<svg xmlns="http://www.w3.org/2000/svg" viewBox="0 0 272.08 341.15"><defs><style>.cls-1{fill:#ad10ff;}.cls-2{fill:#141414;}</style></defs><title>Asset 2</title><g id="Layer_2" data-name="Layer 2"><g id="Layer_2-2" data-name="Layer 2"><path class="cls-1" d="M267.52,23.69C265.61,26,263.79,28,249.23,39.61,234.6,28,232.85,26,230.94,23.69c-7-8.38-5.1-17.83.46-21.79,5-3.51,12-2.21,17.83,4.49,5.87-6.63,12.88-8,17.83-4.49,5.56,4,7.55,13.41.46,21.79Z"/><path class="cls-1" d="M250.45,164.15a15,15,0,0,1-15-14.92l-.41-79a14.94,14.94,0,0,1,14.92-15H250A15,15,0,0,1,265,70l.41,79.06a15,15,0,0,1-14.92,15.06Z"/><path class="cls-2" d="M265,71.17l-2.61,4.22L151.62,242.64a15,15,0,0,1-24.4.83L30.11,116.79l.52,200.32a15,15,0,0,1-15,15h0a15,15,0,0,1-15-15L0,72.46A15,15,0,0,1,26.92,63.3L138.29,208.54,236.42,60.77a15.09,15.09,0,0,1,20.87-4.2A16.29,16.29,0,0,1,265,71.17Z"/><path class="cls-1" d="M213,341.15H15.63a15,15,0,0,1-15-14.77l-.06-41c-.13-8.28,6.92-15,15.2-15.17H16a14.47,14.47,0,0,1,14.54,14.6l.07,26.31H212.78c7.48-.2,13-2.39,16.78-6.7,7.92-9,8.17-25.73,7.63-30.89q-.07-.68-.08-1.36l-1.65-131.73a15,15,0,0,1,14.81-15.31h.19a15.11,15.11,0,0,1,15,14.94l1.65,131.07c.49,5.8,1.88,33.9-15,53.09-9.41,10.67-22.81,16.52-38.76,16.88Z"/></g></g></svg>