<?xml version="1.0" encoding="UTF-8" standalone="no"?>
<svg width="64px" height="71px" viewBox="0 0 64 71" version="1.1" xmlns="http://www.w3.org/2000/svg" xmlns:xlink="http://www.w3.org/1999/xlink">
    <!-- Generator: Sketch 45.2 (43514) - http://www.bohemiancoding.com/sketch -->
    <title>Page 1</title>
    <desc>Created with Sketch.</desc>
    <defs></defs>
    <g id="Page-1" stroke="none" stroke-width="1" fill="none" fill-rule="evenodd" fill-opacity="0.5">
        <g id="Turn-phone" transform="translate(-302.000000, -213.000000)" fill="#FFFFFF">
            <path d="M303.749141,217.002741 C301.145741,217.002741 299,219.148482 299,221.751881 L299,275.575475 C299,278.178875 301.145741,280.324616 303.749141,280.324616 L363.904922,280.324616 C366.508322,280.324616 368.654063,278.178875 368.654063,275.575475 L368.654063,250.246725 C368.654063,247.643325 366.508322,245.497584 363.904922,245.497584 L338.576172,245.497584 C338.15258,245.491403 337.744439,245.655272 337.441444,245.952093 C337.141528,246.252009 336.971477,246.65704 336.971477,247.080647 C336.971477,247.504255 337.141528,247.909293 337.441444,248.209201 C337.744447,248.506023 338.15258,248.669892 338.576172,248.66371 L357.572734,248.66371 L357.572734,277.158554 L333.382195,277.158554 C333.573894,276.645298 333.827427,276.150628 333.827427,275.575507 L333.827427,221.751913 C333.827427,219.148513 331.681686,217.002772 329.078286,217.002772 L303.749141,217.002741 Z M340.010412,217.002741 C339.589916,217.021294 339.194193,217.206803 338.912807,217.519083 C338.628349,217.828268 338.483033,218.239496 338.501587,218.659985 C338.52014,219.080474 338.705649,219.476204 339.017929,219.75759 C339.327114,220.042048 339.738342,220.187364 340.158831,220.168811 C349.706187,220.168811 357.562848,227.147198 358.932975,236.296101 L355.989458,234.614113 C355.225764,234.178158 354.24874,234.444062 353.812769,235.207756 C353.376797,235.971449 353.642718,236.948474 354.406411,237.384445 L359.947075,240.550539 C360.315007,240.763878 360.750946,240.81953 361.159056,240.708226 C361.570276,240.596922 361.916568,240.327923 362.123765,239.956897 L365.289858,234.416233 C365.583585,233.927712 365.592861,233.31554 365.311499,232.817751 C365.030136,232.323049 364.501454,232.016967 363.92942,232.016967 C363.345054,232.00769 362.803952,232.323065 362.519558,232.833186 L361.75277,234.168881 C359.489488,224.333411 350.671442,217.002321 340.159219,217.002321 C340.109749,216.999226 340.060278,216.999226 340.010808,217.002321 L340.010412,217.002741 Z M303.749141,220.168834 L329.077891,220.168834 C329.983789,220.168834 330.660937,220.845959 330.660937,221.751881 L330.660937,222.543405 L302.166094,222.543405 L302.166094,221.751881 C302.166094,220.845983 302.843218,220.168834 303.749141,220.168834 Z M302.166094,225.709498 L330.660937,225.709498 L330.660937,266.077194 L302.166094,266.077194 L302.166094,225.709498 Z M360.738828,248.663678 L363.904922,248.663678 C364.81082,248.663678 365.487969,249.340803 365.487969,250.246725 L365.487969,275.575475 C365.487969,276.481374 364.810844,277.158522 363.904922,277.158522 L360.738828,277.158522 L360.738828,248.663678 Z M302.166094,269.243288 L330.660937,269.243288 L330.660937,275.575475 C330.660937,276.227864 330.299188,276.756586 329.770474,277.010111 C329.674628,277.050305 329.584956,277.099775 329.498387,277.158522 L303.749339,277.158522 C302.84344,277.158522 302.166292,276.481397 302.166292,275.575475 L302.166094,269.243288 Z M313.841064,271.617858 C313.420568,271.639498 313.027932,271.828102 312.746546,272.143477 C312.465183,272.455757 312.322954,272.866977 312.344602,273.287466 C312.36625,273.707955 312.554847,274.100598 312.870221,274.381984 C313.182501,274.663347 313.593721,274.805576 314.01421,274.783928 L318.812821,274.783928 C319.236413,274.79011 319.644554,274.626241 319.947549,274.329419 C320.247465,274.029503 320.417516,273.624473 320.417516,273.200865 C320.417516,272.777258 320.247465,272.372219 319.947549,272.072311 C319.644546,271.77549 319.236413,271.611621 318.812821,271.617802 L314.01421,271.617802 C313.955463,271.614708 313.899811,271.614708 313.841064,271.617802 L313.841064,271.617858 Z" id="Page-1" transform="translate(333.827031, 248.662308) rotate(-90.000000) translate(-333.827031, -248.662308) "></path>
        </g>
    </g>
</svg>