<?xml version="1.0" encoding="UTF-8" standalone="no"?>
<svg width="74px" height="61px" viewBox="0 0 74 61" version="1.1" xmlns="http://www.w3.org/2000/svg" xmlns:xlink="http://www.w3.org/1999/xlink">
    <!-- Generator: Sketch 45.2 (43514) - http://www.bohemiancoding.com/sketch -->
    <title>noun_795375</title>
    <desc>Created with Sketch.</desc>
    <defs></defs>
    <g id="Page-1" stroke="none" stroke-width="1" fill="none" fill-rule="evenodd">
        <g id="cards-on-hover" transform="translate(-819.000000, -203.000000)" fill-rule="nonzero">
            <g id="noun_795375" transform="translate(819.000000, 203.000000)">
                <path d="M46,38.3 L28.5,38.3 C27.9,38.3 27.5,38.7 27.5,39.3 L27.5,44 C27.5,44.6 27.9,45 28.5,45 L46,45 C46.6,45 47,44.6 47,44 L47,39.3 C47,38.8 46.6,38.3 46,38.3 Z M45,43 L29.5,43 L29.5,40.3 L45,40.3 L45,43 Z" id="Shape" fill="#4DF790"></path>
                <path d="M1.7,50.9 L8.1,50.9 L8.1,56.1 C8.1,58.8 10.3,60.9 12.9,60.9 C15.5,60.9 17.7,58.7 17.7,56.1 L17.7,50.9 L56.6,50.9 L56.6,56.1 C56.6,58.8 58.8,60.9 61.4,60.9 C64,60.9 66.2,58.7 66.2,56.1 L66.2,50.9 L72.6,50.9 C73.2,50.9 73.6,50.5 73.6,49.9 L73.6,33.6 C73.6,28.5 69.7,24.4 64.7,24 C64.7,23.9 60.7,6.2 60.7,6.2 C60,2.8 57,0.3 53.5,0.3 L20.8,0.3 C17.3,0.3 14.3,2.8 13.6,6.2 C13.6,6.2 9.6,24 9.6,24 C4.6,24.4 0.7,28.6 0.7,33.6 L0.7,49.9 C0.7,50.5 1.2,50.9 1.7,50.9 Z M15.8,56.1 C15.8,57.7 14.5,58.9 13,58.9 C11.5,58.9 10.2,57.6 10.2,56.1 L10.2,50.9 L15.8,50.9 L15.8,56.1 L15.8,56.1 Z M64.3,56.1 C64.3,57.7 63,58.9 61.5,58.9 C60,58.9 58.7,57.6 58.7,56.1 L58.7,50.9 L64.3,50.9 L64.3,56.1 Z M15.6,6.6 C16.1,4.1 18.3,2.3 20.9,2.3 L53.7,2.3 C56.2,2.3 58.5,4.1 59,6.6 L62.9,23.9 L11.6,23.9 L15.6,6.6 Z M2.7,33.6 C2.7,29.4 6.1,25.9 10.4,25.9 L64.1,25.9 C68.3,25.9 71.8,29.3 71.8,33.6 L71.8,48.9 L2.8,48.9 L2.8,33.6 L2.7,33.6 Z" id="Shape" fill="#FFCE2E"></path>
                <path d="M13.2,30.5 C10.2,30.5 7.8,32.9 7.8,35.9 C7.8,38.9 10.2,41.3 13.2,41.3 C16.2,41.3 18.6,38.9 18.6,35.9 C18.6,32.9 16.2,30.5 13.2,30.5 Z M13.2,39.3 C11.3,39.3 9.8,37.8 9.8,35.9 C9.8,34 11.3,32.5 13.2,32.5 C15.1,32.5 16.6,34 16.6,35.9 C16.7,37.8 15.1,39.3 13.2,39.3 Z" id="Shape" fill="#4DF790"></path>
                <path d="M61.2,30.5 C58.2,30.5 55.8,32.9 55.8,35.9 C55.8,38.9 58.2,41.3 61.2,41.3 C64.2,41.3 66.6,38.9 66.6,35.9 C66.6,32.9 64.2,30.5 61.2,30.5 Z M61.2,39.3 C59.3,39.3 57.8,37.8 57.8,35.9 C57.8,34 59.3,32.5 61.2,32.5 C63.1,32.5 64.6,34 64.6,35.9 C64.6,37.8 63.1,39.3 61.2,39.3 Z" id="Shape" fill="#4DF790"></path>
            </g>
        </g>
    </g>
</svg>