<?xml version="1.0" encoding="UTF-8" standalone="no"?>
<svg width="75px" height="80px" viewBox="0 0 75 80" version="1.1" xmlns="http://www.w3.org/2000/svg" xmlns:xlink="http://www.w3.org/1999/xlink">
    <!-- Generator: Sketch 45.2 (43514) - http://www.bohemiancoding.com/sketch -->
    <title>noun_1077321</title>
    <desc>Created with Sketch.</desc>
    <defs></defs>
    <g id="Page-1" stroke="none" stroke-width="1" fill="none" fill-rule="evenodd">
        <g id="cards-on-hover" transform="translate(-225.000000, -491.000000)" fill-rule="nonzero">
            <g id="noun_1077321" transform="translate(225.000000, 491.000000)">
                <path d="M37.3,13.8 C37.4,13.9 45.6,28.3 47,42.9 C48,52.7 53.3,53.7 57.6,54.5 C60.5,55 62.3,55.5 63,57.5 L66.2,66.4 L60.9,68.3 C60.4,68.5 60.1,69.1 60.3,69.6 C60.4,70 60.8,70.3 61.2,70.3 C61.3,70.3 61.4,70.3 61.5,70.2 L74,65.6 C74.5,65.4 74.8,64.8 74.6,64.3 C74.4,63.8 73.8,63.5 73.3,63.7 L68,65.6 L64.8,56.7 C64,54.6 65.2,53.1 67,50.9 C69.8,47.5 73.2,43.3 67.6,35.2 C59.5,23.2 56.5,7 56.5,6.8 C56.4,6.5 56.3,6.3 56,6.1 C55.7,6 55.4,5.9 55.2,6 L37.9,12.3 C37.9,12.3 37.9,12.3 37.9,12.3 C37.8,12.3 37.8,12.3 37.7,12.4 C37.2,12.7 37,13.3 37.3,13.8 Z M43.5,22.2 C43.6,22.2 43.7,22.2 43.8,22.2 C44.5,22.2 45.2,22.1 46.1,21.8 C48.3,21 49.2,19.6 50,18.4 C50.7,17.3 51.3,16.4 52.8,15.8 C54.4,15.2 55.4,15.6 56.7,15.9 L56.7,15.9 C58.5,21.8 61.5,29.6 66.1,36.3 C70.8,43.2 68.3,46.3 65.6,49.6 C64.5,51 63.3,52.4 62.9,54 C61.5,53 59.7,52.7 58,52.4 C53.8,51.6 49.9,50.9 49,42.6 C48.2,35.1 45.8,27.8 43.5,22.2 Z M39.6,13.8 L54.7,8.3 C54.9,9.4 55.4,11.4 56,13.7 C54.9,13.4 53.7,13.4 52.1,13.9 C49.9,14.7 49,16.1 48.2,17.3 C47.5,18.4 46.9,19.3 45.3,19.9 C44.2,20.3 43.3,20.3 42.5,20 C41.4,17.2 40.3,15 39.6,13.8 Z" id="Shape" fill="#4DF790"></path>
                <path d="M54.2,37.2 C54,37.6 54,38.1 54.1,38.6 C54.3,39.1 54.6,39.4 55,39.6 L58.3,41.2 C58.5,41.3 58.8,41.4 59.1,41.4 C59.3,41.4 59.5,41.4 59.7,41.3 C60.2,41.1 60.5,40.8 60.7,40.4 L62.3,37.1 C62.7,36.2 62.3,35.1 61.4,34.7 L58,33.1 C57.6,32.9 57.1,32.9 56.6,33 C56.1,33.2 55.8,33.5 55.6,33.9 L54.2,37.2 Z M56.1,37.8 L57.5,34.8 L60.5,36.2 L59.1,39.2 L56.1,37.8 Z" id="Shape" fill="#FFCE2E"></path>
                <path d="M54.5,46.8 L56.2,50.1 C56.4,50.5 56.8,50.8 57.3,51 C57.5,51.1 57.7,51.1 57.8,51.1 C58.1,51.1 58.4,51 58.7,50.9 L62,49.2 C62.9,48.7 63.2,47.6 62.7,46.7 L61,43.4 C60.8,43 60.4,42.7 59.9,42.5 C59.4,42.4 58.9,42.4 58.5,42.6 L55.2,44.3 C54.3,44.8 54,45.9 54.5,46.8 Z M56.3,46 L59.2,44.4 L60.8,47.3 L57.9,48.9 L56.3,46 Z" id="Shape" fill="#FFCE2E"></path>
                <path d="M49.1,25.9 C48.4,26.6 48.3,27.7 49,28.5 L51.5,31.2 C51.8,31.6 52.3,31.8 52.8,31.8 C52.8,31.8 52.9,31.8 52.9,31.8 C53.4,31.8 53.8,31.6 54.1,31.3 L56.8,28.8 C57.2,28.5 57.4,28 57.4,27.5 C57.4,27 57.3,26.6 56.9,26.2 L54.4,23.5 C53.7,22.8 52.6,22.7 51.8,23.4 L49.1,25.9 Z M50.6,27.2 L53,24.9 L55.3,27.3 L52.9,29.6 L50.6,27.2 Z" id="Shape" fill="#FFCE2E"></path>
                <path d="M34.7,7.2 L34.7,1.3 C34.7,0.7 35.1,0.3 35.7,0.3 C36.3,0.3 36.7,0.7 36.7,1.3 L36.7,7.2 C36.7,7.8 36.3,8.2 35.7,8.2 C35.1,8.2 34.7,7.8 34.7,7.2 Z" id="Shape" fill="#4DF790"></path>
                <path d="M31.6,9.7 C31.4,9.7 31.3,9.7 31.1,9.6 L26,6.6 C25.5,6.3 25.4,5.7 25.6,5.2 C25.9,4.7 26.5,4.6 27,4.8 L32.1,7.7 C32.6,8 32.7,8.6 32.5,9.1 C32.3,9.5 31.9,9.7 31.6,9.7 Z" id="Shape" fill="#4DF790"></path>
                <path d="M37.4,21.2 L20.2,14.8 C20.2,14.8 20.2,14.8 20.2,14.8 C20.1,14.8 20.1,14.8 20,14.8 C19.5,14.7 18.9,15.1 18.8,15.6 C18.8,15.8 15.7,32 7.3,44 C1.7,52.1 5.1,56.3 7.8,59.7 C9.6,62 10.7,63.5 10,65.5 L6.7,74.4 L1.4,72.4 C0.9,72.2 0.3,72.5 0.1,73 C-0.1,73.5 0.2,74.1 0.7,74.3 L13.2,79 C13.3,79 13.4,79.1 13.5,79.1 C13.9,79.1 14.3,78.9 14.4,78.4 C14.6,77.9 14.3,77.3 13.8,77.1 L8.5,75.1 L11.8,66.2 C12.6,64.1 14.4,63.7 17.3,63.2 C21.6,62.4 26.9,61.5 28,51.7 C29.5,37.1 37.8,22.8 37.9,22.7 C38,22.4 38.1,22.1 38,21.9 C37.9,21.5 37.7,21.3 37.4,21.2 Z M9,45.1 C13.3,38.9 16.3,31.7 18.1,26 C18.6,26.5 19.4,27 20.4,27.4 C22.6,28.2 24.2,27.7 25.5,27.3 C26.7,26.9 27.8,26.6 29.3,27.2 C30.9,27.8 31.5,28.7 32.1,29.8 L32.1,29.8 C29.7,35.4 26.9,43.3 26,51.4 C25.1,59.7 21.2,60.4 17,61.2 C15.2,61.5 13.5,61.8 12.1,62.8 C11.7,61.2 10.5,59.8 9.4,58.4 C6.7,55.1 4.2,51.9 9,45.1 Z M35.6,22.6 C35,23.6 34.1,25.4 33.1,27.6 C32.4,26.7 31.6,25.8 30,25.2 C27.8,24.4 26.2,24.9 24.9,25.3 C23.7,25.7 22.6,26 21.1,25.4 C20,25 19.4,24.4 18.9,23.7 C19.8,20.7 20.4,18.3 20.7,17 L35.6,22.6 Z" id="Shape" fill="#4DF790"></path>
                <path d="M21,55.3 L15.8,46 C15.6,45.6 15.2,45.5 14.7,45.6 C14.3,45.7 13.8,45.9 13.4,46.1 C11.9,46.9 10.9,48.3 10.4,49.9 C10,51.5 10.2,53.2 11,54.7 C11.8,56.2 13.2,57.2 14.8,57.7 C15.4,57.9 15.9,57.9 16.5,57.9 C17.6,57.9 18.7,57.6 19.6,57.1 C20,56.9 20.3,56.6 20.6,56.4 C21.1,56.1 21.2,55.6 21,55.3 Z M19,55.5 C18.9,55.5 18.9,55.6 18.8,55.6 C17.8,56.2 16.5,56.4 15.4,56 C14.2,55.7 13.3,54.9 12.7,53.9 C12.1,52.9 11.9,51.6 12.3,50.5 C12.6,49.3 13.4,48.4 14.4,47.8 C14.5,47.8 14.6,47.7 14.6,47.7 L19,55.5 Z" id="Shape" fill="#FFCE2E"></path>
                <path d="M15.2,53.1 L14.8,53.3 C14.7,53.4 14.5,53.4 14.4,53.4 C14.1,53.4 13.9,53.3 13.7,53 C13.5,52.6 13.6,52.1 14,51.9 L14.4,51.7 C14.8,51.5 15.3,51.6 15.5,52 C15.7,52.4 15.6,52.9 15.2,53.1 Z" id="Shape" fill="#FFCE2E"></path>
                <path d="M16.3,55.3 C16.3,55.3 16.2,55.3 16.2,55.3 C15.8,55.2 15.5,54.8 15.5,54.4 L15.6,53.7 C15.7,53.3 16.1,53 16.5,53 C16.9,53.1 17.2,53.5 17.2,53.9 L17,54.6 C17,55 16.6,55.3 16.3,55.3 Z" id="Shape" fill="#FFCE2E"></path>
                <path d="M14.4,51.3 C14.3,51.3 14.2,51.3 14.1,51.2 L13.5,51 C13.1,50.8 12.9,50.4 13.1,50 C13.3,49.6 13.7,49.4 14.1,49.6 L14.7,49.8 C15.1,50 15.3,50.4 15.1,50.8 C15,51.1 14.7,51.3 14.4,51.3 Z" id="Shape" fill="#FFCE2E"></path>
                <path d="M20,47 C21.6,47 23.1,46.4 24.3,45.3 C25.5,44.2 26.3,42.6 26.3,40.9 C26.4,37.4 23.7,34.5 20.2,34.3 C19.8,34.3 19.3,34.3 18.9,34.4 C18.5,34.5 18.2,34.8 18.1,35.2 L17.6,45.8 C17.6,46.2 17.9,46.6 18.3,46.7 C18.7,46.8 19.2,46.9 19.7,46.9 C19.9,47 20,47 20,47 Z M23.1,44 C22.2,44.8 21.1,45.2 19.9,45.2 C19.8,45.2 19.7,45.2 19.6,45.2 L20,36.2 C20,36.2 20,36.2 20,36.2 C20.1,36.2 20.1,36.2 20.2,36.2 C22.7,36.3 24.6,38.4 24.5,40.9 C24.5,42.1 24,43.2 23.1,44 Z" id="Shape" fill="#FFCE2E"></path>
                <path d="M21.9,41.8 C21.5,41.8 21.1,41.4 21.1,41 C21.1,40.6 21.5,40.2 21.9,40.2 L22.4,40.2 C22.8,40.2 23.2,40.6 23.2,41 C23.2,41.4 22.8,41.8 22.4,41.8 C22.4,41.8 22.4,41.8 22.4,41.8 L21.9,41.8 Z" id="Shape" fill="#FFCE2E"></path>
                <path d="M22,39.5 C21.8,39.7 21.6,39.8 21.4,39.8 C21.2,39.8 21,39.7 20.9,39.6 C20.6,39.3 20.5,38.8 20.8,38.5 L21.2,38 C21.5,37.7 22,37.6 22.3,37.9 C22.6,38.2 22.7,38.7 22.4,39 L22,39.5 Z" id="Shape" fill="#FFCE2E"></path>
                <path d="M21.9,42.4 L22.3,42.9 C22.6,43.3 22.5,43.8 22.1,44 C22,44.1 21.8,44.1 21.6,44.1 C21.3,44.1 21.1,44 20.9,43.8 L20.5,43.3 C20.2,42.9 20.3,42.4 20.7,42.2 C21.2,41.9 21.7,42 21.9,42.4 Z" id="Shape" fill="#FFCE2E"></path>
            </g>
        </g>
    </g>
</svg>