<?xml version="1.0" encoding="utf-8"?>
<!-- Generator: Adobe Illustrator 21.1.0, SVG Export Plug-In . SVG Version: 6.00 Build 0)  -->
<svg version="1.1" id="Layer_1" xmlns="http://www.w3.org/2000/svg" xmlns:xlink="http://www.w3.org/1999/xlink" x="0px" y="0px"
	 viewBox="0 0 52 52" style="enable-background:new 0 0 52 52;" xml:space="preserve">
<style type="text/css">
	.st0{fill:#3DEF83;}
</style>
<title>Combined Shape</title>
<desc>Created with Sketch.</desc>
<g id="Page-1">
	<g id="cards-on-hover" transform="translate(-211.000000, -1026.000000)">
		<path id="Combined-Shape" class="st0" d="M237,1078c-14.4,0-26-11.6-26-26s11.6-26,26-26s26,11.6,26,26S251.4,1078,237,1078z
			 M242.7,1060.3l-7.9-7.9l7.9-7.9c0.4-0.4,0.4-1,0-1.4l-2.7-2.7c-0.4-0.4-1-0.4-1.4,0l-11.3,11.3c-0.4,0.4-0.4,1,0,1.4l11.3,11.3
			c0.4,0.4,1,0.4,1.4,0l2.7-2.7C243.1,1061.3,243.1,1060.7,242.7,1060.3z"/>
	</g>
</g>
</svg>
