<?xml version="1.0" encoding="UTF-8" standalone="no"?>
<svg width="59px" height="75px" viewBox="0 0 59 75" version="1.1" xmlns="http://www.w3.org/2000/svg" xmlns:xlink="http://www.w3.org/1999/xlink">
    <!-- Generator: Sketch 45.2 (43514) - http://www.bohemiancoding.com/sketch -->
    <title>Group 3</title>
    <desc>Created with Sketch.</desc>
    <defs></defs>
    <g id="Page-1" stroke="none" stroke-width="1" fill="none" fill-rule="evenodd">
        <g id="cards-on-hover" transform="translate(-1122.000000, -485.000000)">
            <g id="Group-3" transform="translate(1122.000000, 485.000000)">
                <g id="noun_928441" fill-rule="nonzero" fill="#4DF790">
                    <path d="M3.9,74.7 L57.9,74.7 C58.5,74.7 58.9,74.3 58.9,73.7 L58.9,1.7 C58.9,1.1 58.5,0.7 57.9,0.7 L3.9,0.7 C3.3,0.7 2.9,1.1 2.9,1.7 L2.9,5.4 L1.2,5.4 C0.6,5.4 0.2,5.8 0.2,6.4 C0.2,7 0.6,7.4 1.2,7.4 L2.9,7.4 L2.9,11 L1.2,11 C0.6,11 0.2,11.4 0.2,12 C0.2,12.6 0.6,13 1.2,13 L2.9,13 L2.9,16.6 L1.2,16.6 C0.6,16.6 0.2,17 0.2,17.6 C0.2,18.2 0.6,18.6 1.2,18.6 L2.9,18.6 L2.9,22.2 L1.2,22.2 C0.6,22.2 0.2,22.6 0.2,23.2 C0.2,23.8 0.6,24.2 1.2,24.2 L2.9,24.2 L2.9,27.8 L1.2,27.8 C0.6,27.8 0.2,28.2 0.2,28.8 C0.2,29.4 0.6,29.8 1.2,29.8 L2.9,29.8 L2.9,33.4 L1.2,33.4 C0.6,33.4 0.2,33.8 0.2,34.4 C0.2,35 0.6,35.4 1.2,35.4 L2.9,35.4 L2.9,39 L1.2,39 C0.6,39 0.2,39.4 0.2,40 C0.2,40.6 0.6,41 1.2,41 L2.9,41 L2.9,44.6 L1.2,44.6 C0.6,44.6 0.2,45 0.2,45.6 C0.2,46.2 0.6,46.6 1.2,46.6 L2.9,46.6 L2.9,50.2 L1.2,50.2 C0.6,50.2 0.2,50.6 0.2,51.2 C0.2,51.8 0.6,52.2 1.2,52.2 L2.9,52.2 L2.9,56 L1.2,56 C0.6,56 0.2,56.4 0.2,57 C0.2,57.6 0.6,58 1.2,58 L2.9,58 L2.9,61.6 L1.2,61.6 C0.6,61.6 0.2,62 0.2,62.6 C0.2,63.2 0.6,63.6 1.2,63.6 L2.9,63.6 L2.9,67.2 L1.2,67.2 C0.6,67.2 0.2,67.6 0.2,68.2 C0.2,68.8 0.6,69.2 1.2,69.2 L2.9,69.2 L2.9,73.6 C2.9,74.2 3.4,74.7 3.9,74.7 Z M4.9,63.7 L6.6,63.7 C7.2,63.7 7.6,63.3 7.6,62.7 C7.6,62.1 7.2,61.7 6.6,61.7 L4.9,61.7 L4.9,58 L6.6,58 C7.2,58 7.6,57.6 7.6,57 C7.6,56.4 7.2,56 6.6,56 L4.9,56 L4.9,52.4 L6.6,52.4 C7.2,52.4 7.6,52 7.6,51.4 C7.6,50.8 7.2,50.4 6.6,50.4 L4.9,50.4 L4.9,46.8 L6.6,46.8 C7.2,46.8 7.6,46.4 7.6,45.8 C7.6,45.2 7.2,44.8 6.6,44.8 L4.9,44.8 L4.9,41.2 L6.6,41.2 C7.2,41.2 7.6,40.8 7.6,40.2 C7.6,39.6 7.2,39.2 6.6,39.2 L4.9,39.2 L4.9,35.6 L6.6,35.6 C7.2,35.6 7.6,35.2 7.6,34.6 C7.6,34 7.2,33.6 6.6,33.6 L4.9,33.6 L4.9,30 L6.6,30 C7.2,30 7.6,29.6 7.6,29 C7.6,28.4 7.2,28 6.6,28 L4.9,28 L4.9,24.4 L6.6,24.4 C7.2,24.4 7.6,24 7.6,23.4 C7.6,22.8 7.2,22.4 6.6,22.4 L4.9,22.4 L4.9,18.8 L6.6,18.8 C7.2,18.8 7.6,18.4 7.6,17.8 C7.6,17.2 7.2,16.8 6.6,16.8 L4.9,16.8 L4.9,13 L6.6,13 C7.2,13 7.6,12.6 7.6,12 C7.6,11.4 7.2,11 6.6,11 L4.9,11 L4.9,7.4 L6.6,7.4 C7.2,7.4 7.6,7 7.6,6.4 C7.6,5.8 7.2,5.4 6.6,5.4 L4.9,5.4 L4.9,2.7 L56.9,2.7 L56.9,72.7 L4.9,72.7 L4.9,69.3 L6.6,69.3 C7.2,69.3 7.6,68.9 7.6,68.3 C7.6,67.7 7.2,67.3 6.6,67.3 L4.9,67.3 L4.9,63.7 Z" id="Shape"></path>
                </g>
                <path d="M13.5,13 L50.5,13" id="Line" stroke="#FFCE2E" stroke-width="2" stroke-linecap="round"></path>
                <path d="M13.5,23 L50.5,23" id="Line" stroke="#FFCE2E" stroke-width="2" stroke-linecap="round"></path>
                <path d="M13.5,33 L50.5,33" id="Line" stroke="#FFCE2E" stroke-width="2" stroke-linecap="round"></path>
                <path d="M13.5,43 L50.5,43" id="Line" stroke="#FFCE2E" stroke-width="2" stroke-linecap="round"></path>
                <path d="M13.5,53 L50.5,53" id="Line" stroke="#FFCE2E" stroke-width="2" stroke-linecap="round"></path>
                <path d="M13.5,63 L50.5,63" id="Line" stroke="#FFCE2E" stroke-width="2" stroke-linecap="round"></path>
            </g>
        </g>
    </g>
</svg>