<?xml version="1.0" encoding="UTF-8" standalone="no"?>
<svg width="73px" height="81px" viewBox="0 0 73 81" version="1.1" xmlns="http://www.w3.org/2000/svg" xmlns:xlink="http://www.w3.org/1999/xlink">
    <!-- Generator: Sketch 45.2 (43514) - http://www.bohemiancoding.com/sketch -->
    <title>noun_749423</title>
    <desc>Created with Sketch.</desc>
    <defs></defs>
    <g id="Page-1" stroke="none" stroke-width="1" fill="none" fill-rule="evenodd">
        <g id="cards-on-hover" transform="translate(-823.000000, -491.000000)">
            <g id="noun_749423" transform="translate(823.000000, 491.000000)">
                <path d="M72.3,17.2 C71.8,16.9 71.2,17.1 70.9,17.6 L63,32.1 L36.4,32.1 C37,31.3 37.4,30.3 37.4,29.2 C37.4,27.6 36.6,26.2 35.4,25.3 C36.6,24.4 37.4,23 37.4,21.4 C37.4,19.8 36.6,18.4 35.4,17.5 C36.6,16.6 37.4,15.2 37.4,13.6 C37.4,12 36.6,10.6 35.4,9.7 C36.6,8.8 37.4,7.4 37.4,5.8 C37.4,3.1 35.2,0.9 32.5,0.9 C14.8,0.9 0.3,15.3 0.3,33.1 C0.3,46 7.9,57.1 18.9,62.2 L18.1,66.3 C18,66.3 17.9,66.3 17.8,66.3 C13.9,66.3 10.7,69.5 10.7,73.4 C10.7,77.3 13.9,80.5 17.8,80.5 C21.7,80.5 24.9,77.3 24.9,73.4 C24.9,70.3 22.9,67.6 20.1,66.7 L20.8,63 C24.4,64.4 28.4,65.2 32.5,65.2 C36.9,65.2 41.1,64.3 45,62.7 L45.7,66.6 C42.8,67.5 40.7,70.2 40.7,73.4 C40.7,77.3 43.9,80.5 47.8,80.5 C51.7,80.5 54.9,77.3 54.9,73.4 C54.9,69.5 51.7,66.3 47.8,66.3 C47.8,66.3 47.7,66.3 47.7,66.3 L46.9,61.8 C57.4,56.6 64.6,45.8 64.7,33.3 L72.8,18.5 C72.9,18 72.7,17.4 72.3,17.2 Z M22.9,73.4 C22.9,76.2 20.6,78.5 17.8,78.5 C15,78.5 12.7,76.2 12.7,73.4 C12.7,70.6 14.9,68.4 17.7,68.3 L16.8,73.2 C16.7,73.7 17.1,74.3 17.6,74.4 C17.7,74.4 17.7,74.4 17.8,74.4 C18.3,74.4 18.7,74.1 18.8,73.6 L19.7,68.7 C21.6,69.4 22.9,71.3 22.9,73.4 Z M52.8,73.4 C52.8,76.2 50.5,78.5 47.7,78.5 C44.9,78.5 42.6,76.2 42.6,73.4 C42.6,71.2 44,69.3 46,68.6 L46.9,73.6 C47,74.1 47.4,74.4 47.9,74.4 C48,74.4 48,74.4 48.1,74.4 C48.6,74.3 49,73.8 48.9,73.2 L48,68.3 C50.7,68.5 52.8,70.7 52.8,73.4 Z M33.5,26.4 C34.6,26.8 35.4,27.9 35.4,29.1 C35.4,30.3 34.6,31.4 33.5,31.8 L33.5,26.4 Z M33.5,18.7 C34.6,19.1 35.4,20.2 35.4,21.4 C35.4,22.6 34.6,23.7 33.5,24.1 L33.5,18.7 Z M33.5,10.9 C34.6,11.3 35.4,12.4 35.4,13.6 C35.4,14.8 34.6,15.9 33.5,16.3 L33.5,10.9 Z M35.3,5.8 C35.3,7 34.5,8.1 33.4,8.5 L33.4,3.1 C34.6,3.5 35.3,4.5 35.3,5.8 Z M31.5,2.9 L31.5,32.1 L2.3,32.1 C2.8,16.2 15.6,3.4 31.5,2.9 Z M32.5,63.2 C16.2,63.2 2.9,50.2 2.4,34 L62.7,34 C62.1,50.2 48.8,63.2 32.5,63.2 Z" id="Shape" fill="#4DF790" fill-rule="nonzero"></path>
                <path d="M8.5,38 L57.5,38" id="Line" stroke="#FFCE2E" stroke-width="2" stroke-linecap="round"></path>
            </g>
        </g>
    </g>
</svg>