<?xml version="1.0" encoding="UTF-8" standalone="no"?>
<svg width="51px" height="84px" viewBox="0 0 51 84" version="1.1" xmlns="http://www.w3.org/2000/svg" xmlns:xlink="http://www.w3.org/1999/xlink">
    <!-- Generator: Sketch 45.2 (43514) - http://www.bohemiancoding.com/sketch -->
    <title>noun_726313</title>
    <desc>Created with Sketch.</desc>
    <defs></defs>
    <g id="Page-1" stroke="none" stroke-width="1" fill="none" fill-rule="evenodd">
        <g id="cards-on-hover" transform="translate(-536.000000, -184.000000)">
            <g id="noun_726313" transform="translate(536.000000, 184.000000)">
                <path d="M44.6,0.3 L5.9,0.3 C2.8,0.3 0.4,2.8 0.4,5.8 L0.4,78 C0.4,81.1 2.9,83.5 5.9,83.5 L44.6,83.5 C47.7,83.5 50.1,81 50.1,78 L50.1,5.9 C50.1,2.8 47.6,0.3 44.6,0.3 Z M48.1,78 C48.1,79.9 46.5,81.5 44.6,81.5 L5.9,81.5 C4,81.5 2.4,79.9 2.4,78 L2.4,5.9 C2.4,4 4,2.4 5.9,2.4 L44.6,2.4 C46.5,2.4 48.1,4 48.1,5.9 L48.1,78 Z" id="Shape" fill="#FFCE2E" fill-rule="nonzero"></path>
                <path d="M45.7,9.3 L4.8,9.3 C4.5,9.3 4.3,9.5 4.3,9.8 L4.3,71.4 C4.3,71.7 4.5,71.9 4.8,71.9 L45.7,71.9 C46,71.9 46.2,71.7 46.2,71.4 L46.2,9.8 C46.2,9.5 46,9.3 45.7,9.3 Z M45.2,70.9 L5.3,70.9 L5.3,10.3 L45.2,10.3 L45.2,70.9 Z" id="Shape" fill="#FFCE2E" fill-rule="nonzero"></path>
                <path d="M23.3,7.1 L30.1,7.1 C30.7,7.1 31.1,6.7 31.1,6.1 C31.1,5.5 30.7,5.1 30.1,5.1 L23.3,5.1 C22.7,5.1 22.3,5.5 22.3,6.1 C22.3,6.7 22.8,7.1 23.3,7.1 Z" id="Shape" fill="#4DF790" fill-rule="nonzero"></path>
                <path d="M19.9,7 C20,7 20.1,7.1 20.3,7.1 C20.5,7.1 20.6,7.1 20.7,7 C20.8,7 20.9,6.9 21,6.8 C21.2,6.6 21.3,6.4 21.3,6.1 C21.3,6 21.3,6 21.3,5.9 C21.3,5.8 21.3,5.8 21.2,5.7 C21.2,5.6 21.2,5.6 21.1,5.5 C21.1,5.5 21,5.4 21,5.4 C20.9,5.3 20.8,5.2 20.7,5.2 C20.5,5.1 20.2,5.1 19.9,5.2 C19.8,5.3 19.7,5.3 19.6,5.4 C19.6,5.4 19.5,5.5 19.5,5.5 C19.5,5.6 19.4,5.6 19.4,5.7 C19.4,5.8 19.4,5.8 19.3,5.9 C19.3,6 19.3,6 19.3,6.1 C19.3,6.4 19.4,6.6 19.6,6.8 C19.7,6.9 19.8,7 19.9,7 Z" id="Shape" fill="#4DF790" fill-rule="nonzero"></path>
                <path d="M25.2,73.6 C23.5,73.6 22.2,74.9 22.2,76.6 C22.2,78.3 23.5,79.6 25.2,79.6 C26.9,79.6 28.2,78.3 28.2,76.6 C28.2,74.9 26.9,73.6 25.2,73.6 Z M25.2,78.6 C24.1,78.6 23.2,77.7 23.2,76.6 C23.2,75.5 24.1,74.6 25.2,74.6 C26.3,74.6 27.2,75.5 27.2,76.6 C27.2,77.7 26.3,78.6 25.2,78.6 Z" id="Shape" fill="#4DF790" fill-rule="nonzero"></path>
                <path d="M8.6,38.8 L8.6,14.5" id="Shape" stroke="#4DF790" stroke-linecap="round" stroke-linejoin="round"></path>
                <path d="M8.6,49.3 L8.6,42" id="Shape" stroke="#4DF790" stroke-linecap="round" stroke-linejoin="round"></path>
            </g>
        </g>
    </g>
</svg>