<?xml version="1.0" encoding="UTF-8" standalone="no"?>
<svg width="73px" height="72px" viewBox="0 0 73 72" version="1.1" xmlns="http://www.w3.org/2000/svg" xmlns:xlink="http://www.w3.org/1999/xlink">
    <!-- Generator: Sketch 45.2 (43514) - http://www.bohemiancoding.com/sketch -->
    <title>noun_713781</title>
    <desc>Created with Sketch.</desc>
    <defs></defs>
    <g id="Page-1" stroke="none" stroke-width="1" fill="none" fill-rule="evenodd">
        <g id="cards-on-hover" transform="translate(-226.000000, -193.000000)" fill-rule="nonzero">
            <g id="noun_713781" transform="translate(226.000000, 193.000000)">
                <path d="M36.7,0 C16.9,0 0.8,16.1 0.8,35.9 C0.8,55.7 16.9,71.8 36.7,71.8 C56.5,71.8 72.6,55.7 72.6,35.9 C72.6,16.1 56.5,0 36.7,0 Z M36.7,69.8 C18,69.8 2.8,54.6 2.8,35.9 C2.8,17.2 18,2 36.7,2 C55.4,2 70.6,17.2 70.6,35.9 C70.6,54.6 55.4,69.8 36.7,69.8 Z" id="Shape" fill="#FFCE2E"></path>
                <path d="M58.4,34.9 C57.8,34.9 57.4,35.3 57.4,35.9 C57.4,47.3 48.1,56.6 36.7,56.6 C25.3,56.6 16,47.3 16,35.9 C16,35.3 15.6,34.9 15,34.9 C14.4,34.9 14,35.3 14,35.9 C14,48.4 24.2,58.6 36.7,58.6 C49.2,58.6 59.4,48.4 59.4,35.9 C59.4,35.4 59,34.9 58.4,34.9 Z" id="Shape" fill="#FFCE2E"></path>
                <circle id="Oval" fill="#4DF790" cx="26.8" cy="21.1" r="2.2"></circle>
                <circle id="Oval" fill="#4DF790" cx="46.5" cy="21.1" r="2.2"></circle>
            </g>
        </g>
    </g>
</svg>