<svg xmlns="http://www.w3.org/2000/svg" viewBox="0 0 126.67 29.79"><defs><style>.cls-1{opacity:.15}.cls-2{fill:#1d1d1b}</style></defs><title>Comviq</title><g id="Layer_2" data-name="Layer 2"><g class="cls-1" id="Layer_1-2" data-name="Layer 1"><path class="cls-2" d="M10.47 0H8.7C4 0 0 3.89 0 8.12v13a8.76 8.76 0 0 0 8.7 8.7h1.77a8.76 8.76 0 0 0 8.7-8.7v-3.3h-6v3.08A3.51 3.51 0 0 1 10 24.36h-.8A3.51 3.51 0 0 1 6 20.9v-12a3.25 3.25 0 0 1 3.2-3.47h.8a3.25 3.25 0 0 1 3.23 3.5v3h6V8.12C19.17 3.89 15.17 0 10.47 0zM33.3 0h-1.77c-4.7 0-8.7 3.89-8.7 8.12v13a8.76 8.76 0 0 0 8.7 8.7h1.77a8.76 8.76 0 0 0 8.7-8.7v-13C42 3.89 38 0 33.3 0zM36 20.9a3.51 3.51 0 0 1-3.23 3.46H32a3.51 3.51 0 0 1-3.2-3.46v-12A3.25 3.25 0 0 1 32 5.43h.77A3.25 3.25 0 0 1 36 8.93zm20.66-7.77L51.04.46h-5.28v28.87h5.74V13.66l4.77 10.67h.39l4.89-10.67v15.67h5.77V.46h-4.93l-5.73 12.67zm24.6 7.89L76.64.46H70.6l6.93 28.87h7L91.84.46H85.8l-4.54 20.56zM95.15.46h5.89v28.87h-5.89zm27.02 27.25l1 1.61h3.46L116.71 14h-3.46l4.48 6.92a1 1 0 0 1 .16.55 1.13 1.13 0 0 1 0 .13 3.25 3.25 0 0 1-3.22 2.9h-.94a3.29 3.29 0 0 1-3.28-3.28V8.62a3.33 3.33 0 0 1 3.28-3.32h.94a3.29 3.29 0 0 1 3.24 3.32v4.48l5.75 8.9V8.49A8.48 8.48 0 0 0 115.21 0h-2a8.46 8.46 0 0 0-8.49 8.49V21.3a8.48 8.48 0 0 0 8.49 8.49h2.68a8.45 8.45 0 0 0 5.62-2.14.43.43 0 0 1 .66.06z"/></g></g></svg>