<svg xmlns="http://www.w3.org/2000/svg" viewBox="0 0 150 80"><defs><style>.cls-1{opacity:.15}.cls-2{fill:#1d1d1b}</style></defs><title>keyflow</title><g class="cls-1" id="Layer_1" data-name="Layer 1"><path class="cls-2" d="M13.47 40v9.18H9.85V30.51h3.63V38l7-7.47h4.81L17.1 39l9.18 10.14h-4.59zm20.13-6.31v3.85h5.7v3.18h-5.7v5.18h7.84v3.18H30V30.51h11.15v3.18zm21.17 7.03v8.44h-3.56v-8.44l-6.36-10.21h4.07L53 37.1l4.07-6.59h4.07zm13.91-7.03v3.85h5.7v3.18h-5.7v8.36h-3.63V30.51h11.18v3.18zm11.84-3.18h3.63V46H92v3.18H80.52zm23.31-.22a9.39 9.39 0 0 1 9.69 9.62 9.69 9.69 0 0 1-19.39 0 9.31 9.31 0 0 1 9.7-9.62zm0 15.91a6.18 6.18 0 0 0 6.17-6.36 6.15 6.15 0 1 0-12.28 0 6.13 6.13 0 0 0 6.11 6.36zM115 30.51h3.63l3.85 11.62 4.07-11.62h2.52l4.07 11.62L137 30.51h3.63l-6.23 18.65h-2.52l-4.14-11.77-4 11.77h-2.52z"/></g></svg>