<svg xmlns="http://www.w3.org/2000/svg" viewBox="0 0 150 80"><g opacity=".15" data-name="Layer 1"><path d="M88 17.12H64.44a5 5 0 0 1-4.75-5.29c0-3.86 2.73-5.35 4.75-5.35H88zm-3.14-7.71H64.44a2.81 2.81 0 0 0-1.38 2.48 2.86 2.86 0 0 0 1.49 2.5h20.31zm-1.53 8.97C86.06 18.55 88 19.67 88 24s-3.3 5.48-4.72 5.48H59.73V18.39s22.06.01 23.6-.01zm0 3.25H62.9v4.72h20.44A2.77 2.77 0 0 0 84.69 24a2.6 2.6 0 0 0-1.36-2.37zm-9.92 12.15c.26.31.54.75.85 1.11 1.17-2.12 1.65-2.67 2.48-4.21h11.32c-2.49 7.39-5.08 14.11-7.75 21.2l-2.13 5.64h-7.54c-3.79-8.92-7.2-17.4-11-26.83h11.48c1.36 1.82 1.09 1.46 2.29 3.09zm5-.06l-4 5.94c-1.34-1.87-2.94-4-4.5-6h-5.68c2.94 7 6.06 14.25 8.6 20.49h3c2.58-6.72 3.47-9 8-20.4zM42.3 65.47a1 1 0 0 0 1.07.71c.23 0 .69 0 .69-.36s-.45-.43-.72-.48c-1.1-.21-2.41-.51-2.41-1.91a1.82 1.82 0 0 1 .75-1.43 3 3 0 0 1 1.68-.44A2.33 2.33 0 0 1 45.73 63l-1.49.45a.9.9 0 0 0-.95-.59c-.24 0-.58.07-.58.38s.43.37.65.42a6.23 6.23 0 0 1 1.66.47 1.63 1.63 0 0 1 .87 1.5c0 1.41-1.4 2-2.62 2a2.46 2.46 0 0 1-2.64-1.79zm3.75-1.25V63.1h.71l.13-1.39 1.47-.05v1.44h.87v1.11h-.86v1.5c0 .32 0 .56.37.56a1.93 1.93 0 0 0 .49-.08v1.22l-1 .13a1.38 1.38 0 0 1-1.23-.43 1.65 1.65 0 0 1-.32-1.25v-1.64zm6.43 3.25v-.72a1.3 1.3 0 0 1-1.33.8 1.38 1.38 0 0 1-1-.33 1.43 1.43 0 0 1-.34-1.1v-3h1.69v2.64c0 .28 0 .58.38.58a.46.46 0 0 0 .41-.25 1 1 0 0 0 .09-.46V63.1h1.69v4.37zm5.14 0v-.58a1.17 1.17 0 0 1-1.16.67c-1.26 0-1.69-1.17-1.69-2.25s.4-2.31 1.72-2.31a1.47 1.47 0 0 1 1 .44v-1.83h1.69v5.87zm-.09-2.71a.81.81 0 0 0-.1-.51.46.46 0 0 0-.37-.17c-.3 0-.43.2-.48.46a4.36 4.36 0 0 0-.09.81c0 .38 0 1.07.56 1.07a.42.42 0 0 0 .38-.22.89.89 0 0 0 .1-.56zm4.12 2.71H60V63.1h1.69zm0-4.79H60v-1.16h1.69zM67 66a2.13 2.13 0 0 1-2.24 1.55A2.57 2.57 0 0 1 63 67a2.18 2.18 0 0 1-.72-1.64A2.26 2.26 0 0 1 64.7 63a2.2 2.2 0 0 1 2.3 2.4v.23h-2.88c0 .47.15.81.66.81a.58.58 0 0 0 .67-.53zm-1.71-1.24c0-.43-.14-.75-.62-.75s-.62.35-.61.75zm4.12 2.71h-1.69v-3.14h-.62v-1.08h.62v-.06A1.74 1.74 0 0 1 68 62a1.66 1.66 0 0 1 1.37-.48l1.26.11v1.07l-.77-.07c-.42 0-.54.21-.5.62h1.08v1.08h-1.03zm6.11-2.14a2.4 2.4 0 1 1-2.4-2.33 2.26 2.26 0 0 1 2.4 2.33zm-3-.06c0 1.17.28 1.26.59 1.26s.59-.09.59-1.26c0-.42 0-1.18-.59-1.18s-.58.76-.58 1.18zm.78-3.52a.56.56 0 1 1 .56.56.57.57 0 0 1-.56-.57zm-1.5 0a.56.56 0 1 1 .56.56.57.57 0 0 1-.56-.57zM77.48 64c.15-.61.46-1 1.14-1h.23v1.53a1.35 1.35 0 0 0-.32 0 .73.73 0 0 0-.69.3 1.57 1.57 0 0 0-.12.75v1.9H76V63.1h1.45v.9zm1.8-2.39H81v2a1.14 1.14 0 0 1 1.12-.61c1.22 0 1.64 1.17 1.64 2.21 0 1.21-.51 2.33-1.88 2.33a1.61 1.61 0 0 1-1.4-.68 3 3 0 0 0-.23.6h-1zM81 65.74c0 .34 0 .76.49.76s.56-.78.56-1.2 0-1.2-.58-1.2a.46.46 0 0 0-.37.2.62.62 0 0 0-.1.46zm5.89 1.73v-.72a1.3 1.3 0 0 1-1.33.8 1.38 1.38 0 0 1-1-.33 1.43 1.43 0 0 1-.34-1.1v-3h1.69v2.64c0 .28 0 .58.38.58a.46.46 0 0 0 .41-.25 1 1 0 0 0 .09-.46V63.1h1.69v4.37zM91 63.1v.62a1.25 1.25 0 0 1 1.24-.7 1.43 1.43 0 0 1 1.14.45 2.13 2.13 0 0 1 .27 1.31v2.69h-1.71v-2.65c0-.27 0-.63-.37-.63s-.51.4-.51.76v2.52h-1.7V63.1zm6 4.37v-.58a1.17 1.17 0 0 1-1.16.67c-1.26 0-1.69-1.17-1.69-2.25S94.54 63 95.86 63a1.47 1.47 0 0 1 1 .44v-1.83h1.74v5.87zm-.09-2.71a.81.81 0 0 0-.1-.51.46.46 0 0 0-.37-.17c-.3 0-.43.2-.48.46a4.37 4.37 0 0 0-.09.81c0 .38 0 1.07.56 1.07a.42.42 0 0 0 .38-.22.89.89 0 0 0 .1-.56zm6.95 1.24a2.13 2.13 0 0 1-2.24 1.55 2.57 2.57 0 0 1-1.77-.55 2.18 2.18 0 0 1-.72-1.64 2.26 2.26 0 0 1 2.38-2.36 2.2 2.2 0 0 1 2.34 2.38v.23h-2.92c0 .47.15.81.66.81a.58.58 0 0 0 .67-.53zm-1.71-1.24c0-.43-.14-.75-.62-.75s-.62.35-.61.75zm1.79-.54V63.1h.71l.13-1.39 1.47-.05v1.44h.87v1.11h-.86v1.5c0 .32 0 .56.37.56a1.93 1.93 0 0 0 .49-.08v1.22l-1 .13a1.38 1.38 0 0 1-1.22-.44 1.65 1.65 0 0 1-.32-1.25v-1.63zM51.49 75h-1.84l-1.89-5.87h1.89l.92 3.17.17.58.16-.56.92-3.2h1.48zm4.71 0v-.72a1.3 1.3 0 0 1-1.33.8 1.38 1.38 0 0 1-1-.33 1.43 1.43 0 0 1-.34-1.1v-3h1.69v2.64c0 .28 0 .58.38.58a.46.46 0 0 0 .41-.25 1 1 0 0 0 .09-.46v-2.57h1.7V75zm5.18 0l-.8-1.39-.86 1.39h-1.4l1.53-2.32-1.34-2.05h1.92l.44.8v.09l.09.15.08-.14.05-.09.48-.82H63l-1.27 2L63.31 75zm6.57-1.51A2.13 2.13 0 0 1 65.7 75a2.57 2.57 0 0 1-1.76-.57 2.18 2.18 0 0 1-.72-1.64 2.26 2.26 0 0 1 2.38-2.29 2.2 2.2 0 0 1 2.34 2.38v.23H65c0 .47.15.81.66.81a.58.58 0 0 0 .67-.53zm-1.71-1.24c0-.43-.14-.75-.62-.75s-.62.35-.61.75zm3.86-1.66v.62a1.25 1.25 0 0 1 1.24-.7 1.43 1.43 0 0 1 1.14.45 2.13 2.13 0 0 1 .27 1.31V75h-1.68v-2.69c0-.27 0-.63-.37-.63s-.51.4-.51.76V75H68.5v-4.41zm4.49 2.95c.09.42.56.47.93.47.17 0 .65 0 .65-.27s-.58-.27-.74-.28c-.91-.13-2-.31-2-1.47a1.33 1.33 0 0 1 .68-1.15 2.6 2.6 0 0 1 1.4-.33 2 2 0 0 1 2 1.14l-1.29.25a.77.77 0 0 0-.76-.38c-.14 0-.55 0-.55.23s.15.2.26.22a6.61 6.61 0 0 0 .74.1 3 3 0 0 1 1.19.32 1.27 1.27 0 0 1 .62 1.11c0 1.21-1.27 1.55-2.26 1.55a2.05 2.05 0 0 1-2.2-1.33zm6.9-1.45L83 75h-1.81l-.82-1.75-.43.55V75h-1.69v-5.91h1.69v3.16l.37-.49 1-1.18h1.49z"/><path d="M87.66 72.81a2.4 2.4 0 1 1-2.4-2.31 2.26 2.26 0 0 1 2.4 2.31zm-3-.06c0 1.17.28 1.26.59 1.26s.59-.09.59-1.26c0-.42 0-1.18-.59-1.18s-.58.76-.58 1.18zM89.95 75h-1.7v-5.91h1.69zm3.61 0a2.86 2.86 0 0 1-.06-.61 1.59 1.59 0 0 1-1.43.69 1.36 1.36 0 0 1-1.52-1.32 1.46 1.46 0 0 1 1.15-1.34 7.35 7.35 0 0 1 1.72-.27c0-.39-.1-.55-.51-.55s-.62.12-.67.49l-1.56-.15C90.94 70.78 92 70.5 93 70.5a2.88 2.88 0 0 1 1.6.38c.57.4.5 1 .5 1.59V74a2.43 2.43 0 0 0 .14 1zm-.15-2c-.41 0-1.09.17-1.09.7 0 .28.18.4.44.4.64 0 .65-.54.65-1zm3.96-2.41v.62a1.25 1.25 0 0 1 1.24-.7 1.43 1.43 0 0 1 1.14.45 2.13 2.13 0 0 1 .27 1.31V75h-1.67v-2.69c0-.27 0-.63-.37-.63s-.51.4-.51.76V75h-1.69v-4.41z"/></g></svg>