<svg xmlns="http://www.w3.org/2000/svg" viewBox="0 0 81.25 50.8"><defs><style>.cls-1{opacity:.15}.cls-2{fill:#1d1d1b}</style></defs><title>nix</title><g id="Layer_2" data-name="Layer 2"><g id="Layer_1-2" data-name="Layer 1"><g id="Layer_1-2-2" data-name="Layer 1-2" class="cls-1"><path class="cls-2" d="M0 20.9h9l12.66 20.76h.09V20.9h6.59v29.9h-8.62L6.67 29.51h-.08v21.28H0zm37 0h6.59v29.9H37zm24.24 14.27L51.36 20.9h8.26L66 31.37l6.13-10.47h8L70.44 35l10.81 15.8H73l-7.31-12-7.1 12h-7.83zM40.36 5.89a4.92 4.92 0 1 1-4.89 5 4.9 4.9 0 0 1 4.86-4.93zm0 7.5a2.59 2.59 0 1 0-2.54-2.63v.06a2.56 2.56 0 0 0 2.54 2.58zm-6.11-7.7l-2-1.37A9.8 9.8 0 0 1 48 3.71l-1.88 1.52a7.36 7.36 0 0 0-11.87.46z"/></g></g></g></svg>