<svg xmlns="http://www.w3.org/2000/svg" viewBox="0 0 124.46 38.86"><defs><style>.cls-1{fill:#1d1d1b;opacity:.15}</style></defs><title>Hygglo</title><g id="Layer_2" data-name="Layer 2"><g id="Layer_1-2" data-name="Layer 1"><path class="cls-1" d="M51.57 4.81a4.84 4.84 0 0 1 3.4.85l3.21-3.21a9 9 0 0 0-13.4 1.34l4 2.27a4.88 4.88 0 0 1 2.79-1.25zM11.34 9.14a5.71 5.71 0 0 0-4.82 3.5L5.36 1.6 0 2.18l3 28.21 5.49-.59-1.17-11.28c-.24-2.27.92-4.21 3.23-4.46 2.55-.27 3.81 1.32 4 3.51L15.82 29l5.09-.55-1.33-12.34c-.46-4.3-3.38-7.49-8.24-6.97zm20.15 12.63l-3.76-11.61-5.28-.36L28.54 28c-.73 2.2-5.54 9.6-5.54 9.6l5.71.38c2.39-3.78 13.31-26.86 13.31-26.86l-5.13-.35z"/><path class="cls-1" transform="rotate(-86 94.11 15.414)" d="M79.92 12.69h28.38v5.45H79.92z"/><path class="cls-1" d="M55.39 30.67c-3-.15-4.84-.52-5.79-1-1.37-.86-.33-2 .06-2.29a7.29 7.29 0 0 1 .7-.52 1.33 1.33 0 0 1 .8-.16h.06a12.19 12.19 0 0 0 2.07 0c5.54-.37 9.78-4.37 9.47-8.92a6.94 6.94 0 0 0-.76-2.65l1.14-.08-.29-4.26-5.23.35a11.63 11.63 0 0 0-5.47-.93c-5.54.37-9.78 4.37-9.47 8.92a7.94 7.94 0 0 0 4.7 6.45c-1.29.76-3.44 2.47-3.31 5.13.18 3.84 4.73 4.13 9.76 4.43s4.62 2 4.7 3.24l5.54-.38-.22-3.28s.15-3.63-8.46-4.05zm-3-16.1c2.64-.18 4.89 1.44 5 3.6s-1.87 4.07-4.51 4.25-4.89-1.44-5-3.6 1.87-4.07 4.5-4.25zM76.3 4.7a4.84 4.84 0 0 1 3.31 1.14l3.47-2.92a9 9 0 0 0-13.46.18l3.84 2.6a4.88 4.88 0 0 1 2.84-1zm.14 5.45c-5.55-.1-10.11 3.51-10.2 8.07a7.94 7.94 0 0 0 4.13 6.83c-1.35.64-3.64 2.17-3.74 4.83-.14 3.84 4.37 4.52 9.37 5.25s4.43 2.36 4.41 3.63l5.52.1.07-3.29s.43-3.62-8.08-4.77c-3-.4-4.78-.93-5.68-1.52-1.29-1-.16-2 .26-2.28a7.29 7.29 0 0 1 .74-.46 1.33 1.33 0 0 1 .81-.09h.06a12.19 12.19 0 0 0 2.06.21c5.55.1 10.11-3.51 10.2-8.07a6.94 6.94 0 0 0-.5-2.71h1.14l.08-4.27-5.25-.1a11.63 11.63 0 0 0-5.4-1.36zM81 18.52c0 2.17-2.21 3.89-4.86 3.85s-4.75-1.85-4.71-4 2.21-3.89 4.86-3.85 4.71 1.83 4.71 4zm28.67-9.14a10.39 10.39 0 1 0 11.74 8.81 10.38 10.38 0 0 0-11.74-8.81zM112 25.47a5.65 5.65 0 0 1-6.2-5 5.43 5.43 0 1 1 10.72-1.55 5.65 5.65 0 0 1-4.52 6.55zm11.73-19.34a2.37 2.37 0 0 0-1.73-.72 2.42 2.42 0 0 0-1.7.67 2.35 2.35 0 0 0-.77 1.8 2.47 2.47 0 1 0 4.93 0 2.37 2.37 0 0 0-.73-1.75zm-.31 3.19a2 2 0 0 1-2.87 0 2 2 0 0 1 0-2.88 2 2 0 0 1 2.89 0 2 2 0 0 1 .56 1.43 2 2 0 0 1-.57 1.45z"/><path class="cls-1" d="M123.11 9.09a.61.61 0 0 1 0-.08v-.25a.74.74 0 0 0-.24-.61.93.93 0 0 0-.39-.16.89.89 0 0 0 .47-.18.6.6 0 0 0 .19-.5.69.69 0 0 0-.36-.65 1.32 1.32 0 0 0-.54-.14h-1.32v2.72h.72v-1h.31a.8.8 0 0 1 .24 0 .33.33 0 0 1 .2.2 1.26 1.26 0 0 1 0 .33 2 2 0 0 0 0 .38h.68v-.08a.39.39 0 0 1 .04.02zm-.81-1.4a.66.66 0 0 1-.39.1h-.28V7h.17a1.19 1.19 0 0 1 .41.06.31.31 0 0 1 .22.31.37.37 0 0 1-.14.31z"/></g></g></svg>