<svg xmlns="http://www.w3.org/2000/svg" viewBox="0 0 101.85 53.99"><defs><style>.cls-1{opacity:.15}.cls-2{fill:#1d1d1b}</style></defs><title>aff</title><g id="Layer_2" data-name="Layer 2"><g class="cls-1" id="Layer_1-2" data-name="Layer 1"><path class="cls-2" d="M4.87 47.49H7v6.38H4.87v-.73a2.13 2.13 0 0 1-1.76.86 3.34 3.34 0 0 1 0-6.67 2.2 2.2 0 0 1 1.77.85zM3.55 52a1.33 1.33 0 1 0-1.33-1.33A1.34 1.34 0 0 0 3.55 52zm4.87-7.86h2.18v9.73H8.42zm3.82 0h2.18v9.73h-2.18zm6.58 3.35h1.34v1.6h-1.34v4.78h-2.15v-4.78h-1.16v-1.6h1.16v-2.28h2.15zm9.68-1.28h-.82c-.51 0-.88.33-.89 1.05v.23h1.34v1.6h-1.34v4.78h-2.18v-4.78h-1.19v-1.6h1.19v-.23a2.81 2.81 0 0 1 3.07-3.12h.82zM32.12 54a3.33 3.33 0 1 1 3.42-3.33A3.29 3.29 0 0 1 32.12 54zm-2.31-8.9a1 1 0 0 0 1.05 1 1 1 0 1 0 0-2 1 1 0 0 0-1.05 1zm1 5.57a1.33 1.33 0 1 0 1.33-1.33 1.34 1.34 0 0 0-1.35 1.33zm1.59-5.57a1 1 0 0 0 1.07 1 1 1 0 1 0 0-2 1 1 0 0 0-1.09 1zm6.31 8.77h-2.17v-6.38h2.07v1.57a2.14 2.14 0 0 1 3-1.56L41 49.56a2.68 2.68 0 0 0-1-.16c-.82 0-1.33.47-1.33 2.38zm10.91-7.66h-.82c-.51 0-.88.33-.89 1.05v.23h1.34v1.6h-1.34v4.78h-2.17v-4.78h-1.19v-1.6h1.19v-.23a2.81 2.81 0 0 1 3.07-3.12h.82zM53.24 54a3.33 3.33 0 1 1 3.42-3.33A3.29 3.29 0 0 1 53.24 54zm-1.33-3.33a1.33 1.33 0 1 0 1.33-1.33 1.34 1.34 0 0 0-1.33 1.33zm7.93 3.2h-2.18v-6.38h2.07v1.57a2.14 2.14 0 0 1 3-1.56l-.53 2.05a2.68 2.68 0 0 0-1-.16c-.82 0-1.33.47-1.33 2.38zm8.06-6.38h2.18v6.38H67.9v-.73a2.13 2.13 0 0 1-1.77.85 3.34 3.34 0 0 1 0-6.67 2.2 2.2 0 0 1 1.77.85zm-3.48-2.4a1 1 0 0 0 1.05 1 1 1 0 1 0 0-2 1 1 0 0 0-1.05 1.01zm.82 5.58a1.33 1.33 0 1 0 1.33-1.33 1.34 1.34 0 0 0-1.32 1.34zM67 45.1a1 1 0 0 0 1.07 1 1 1 0 1 0 0-2 1 1 0 0 0-1.07 1zm-16.06 0a1 1 0 0 0 1.05 1 1 1 0 1 0 0-2 1 1 0 0 0-1.06 1zm2.57 0a1 1 0 0 0 1.07 1 1 1 0 1 0 0-2 1 1 0 0 0-1.07 1zm17.94-.96h2.18v9.73h-2.18zm8.05 0h2.18v9.73h-2.06V53a2 2 0 0 1-1.89 1 3.34 3.34 0 0 1 0-6.67 2.31 2.31 0 0 1 1.77.75zM78.17 52a1.33 1.33 0 1 0-1.33-1.33A1.34 1.34 0 0 0 78.17 52zm7.05 1.87H83v-6.38h2.07v1.57a2.14 2.14 0 0 1 3-1.56l-.53 2.05a2.68 2.68 0 0 0-1-.16c-.82 0-1.33.47-1.33 2.38zm8.06-6.38h2.18v6.38h-2.18v-.73a2.13 2.13 0 0 1-1.77.85 3.34 3.34 0 0 1 0-6.67 2.2 2.2 0 0 1 1.77.85zM92 52a1.33 1.33 0 1 0-1.33-1.33A1.34 1.34 0 0 0 92 52zm7 1.87h-2.17v-6.38h2.07v1.57a2.14 2.14 0 0 1 3-1.56l-.53 2.05a2.68 2.68 0 0 0-1-.16c-.82 0-1.33.47-1.33 2.38zM66.43 36a9.78 9.78 0 1 1 9.78-9.78A9.79 9.79 0 0 1 66.43 36zm0-17.35A7.58 7.58 0 1 0 74 26.23a7.58 7.58 0 0 0-7.57-7.57z"/><path class="cls-2" d="M64.39 25.52a1.41 1.41 0 0 0 1.45 1.37 1.36 1.36 0 1 0 0-2.72 1.4 1.4 0 0 0-1.45 1.35zm-20.99 8.6a17.06 17.06 0 1 1 17.06-17.06A17.08 17.08 0 0 1 43.4 34.12zm0-31.92a14.86 14.86 0 1 0 14.86 14.86A14.88 14.88 0 0 0 43.4 2.2zm17.22 22.16a1.06 1.06 0 0 0 1.09 1 1 1 0 1 0 0-2 1.05 1.05 0 0 0-1.09 1z"/><path class="cls-2" d="M40.88 12.7a2.06 2.06 0 0 0-1.46 1.75 2.06 2.06 0 0 0-2.18-.66 2.42 2.42 0 0 0-1.47 3c.53 1.79 5.34 3.32 5.34 3.32s3.18-3.92 2.64-5.71a2.42 2.42 0 0 0-2.87-1.7zm12.9.81a2.06 2.06 0 0 0-2.1.88A2.06 2.06 0 0 0 50 12.8a2.42 2.42 0 0 0-2.69 2c-.35 1.83 3.22 5.4 3.22 5.4s4.62-2 5-3.85a2.42 2.42 0 0 0-1.75-2.84z"/></g></g></svg>