<svg width="52" height="52" viewBox="0 0 52 52" xmlns="http://www.w3.org/2000/svg"><path d="M26.434.02C12.31.02.86 11.469.86 25.593s11.45 25.573 25.574 25.573 25.573-11.45 25.573-25.573C52.007 11.469 40.557.02 26.434.02zm-6.26 36.172h-5.179V19.527h5.179v16.665zm-2.622-18.71c-1.635 0-2.693-1.16-2.693-2.593 0-1.462 1.09-2.586 2.76-2.586 1.67 0 2.693 1.124 2.725 2.586 0 1.434-1.055 2.592-2.792 2.592zm21.535 18.71H33.91v-9.235c0-2.15-.752-3.61-2.624-3.61-1.43 0-2.28.989-2.656 1.94-.139.338-.173.817-.173 1.294v9.609h-5.182V24.842c0-2.08-.066-3.82-.135-5.317h4.499l.237 2.314h.104c.682-1.086 2.352-2.69 5.147-2.69 3.407 0 5.961 2.283 5.961 7.19v9.853z" fill="#3F63FF"/></svg>