<svg xmlns="http://www.w3.org/2000/svg" viewBox="0 0 130.77 19.24"><defs><style>.cls-1{opacity:.15}.cls-2{fill:#1d1d1b}</style></defs><title>keyflow</title><g id="Layer_2" data-name="Layer 2"><g class="cls-1" id="Layer_1-2" data-name="Layer 1"><path class="cls-2" d="M3.63 9.69v9.18H0V.22h3.63V7.7l7-7.47h4.81l-8.19 8.5 9.18 10.14h-4.59zM23.76 3.4v3.85h5.7v3.18h-5.7v5.18h7.84v3.19H20.13V.22H31.3V3.4zm21.16 7.03v8.44h-3.55v-8.44L35 .22h4.07l4.07 6.59L47.22.22h4.07zM58.83 3.4v3.85h5.7v3.18h-5.7v8.37h-3.62V.22h11.17V3.4zM70.67.22h3.63v15.47h7.84v3.18H70.67zM94 0a9.39 9.39 0 0 1 9.69 9.62 9.69 9.69 0 0 1-19.39 0A9.31 9.31 0 0 1 94 0zm0 15.91a6.18 6.18 0 0 0 6.14-6.36 6.15 6.15 0 1 0-12.28 0A6.13 6.13 0 0 0 94 15.91zM105.16.22h3.63l3.85 11.62L116.71.22h2.52l4.07 11.62L127.14.22h3.63l-6.22 18.65H122L117.89 7.1l-4 11.77h-2.52z"/></g></g></svg>