<svg xmlns="http://www.w3.org/2000/svg" viewBox="0 0 150 80"><defs><style>.cls-1{opacity:.15}.cls-2{fill:#010101}</style></defs><title>mini</title><g class="cls-1" id="Layer_1" data-name="Layer 1"><path class="cls-2" d="M61.36 46.47h-2.24V35h3.35l2.93 9.18L68.3 35h3.34v11.5h-2.31V38l-2.69 8.52h-2.51l-2.77-8.58zm15.27 0h-2.37V35h2.38zm4.89 0h-2.28V35H82l4.59 8.34V35h2.28v11.5h-2.76l-4.58-8.3zm12.38 0h-2.37V35h2.38zm16.9 4.24H99.9a25.27 25.27 0 0 0 1.38-4.24h13.77l3.63-3.63h-16.83c.06-.7.09-1.41.09-2.12s0-1.42-.09-2.12h21.07l3.63-3.6h-25.26a25.4 25.4 0 0 0-1.38-4.24h30.89l3.63-3.63H98a25.4 25.4 0 0 0-42.92 0H18.61l3.63 3.63h30.89A25.37 25.37 0 0 0 51.74 35H26.48l3.63 3.63h21.07c-.06.7-.09 1.41-.09 2.12s0 1.42.09 2.12H34.35l3.65 3.6h13.74a25 25 0 0 0 1.39 4.24H42.22l3.63 3.63h9.21a25.4 25.4 0 0 0 42.92 0h9.21zM76.51 62.52a21.8 21.8 0 1 1 21.8-21.8 21.82 21.82 0 0 1-21.8 21.8"/></g></svg>