<svg xmlns="http://www.w3.org/2000/svg" viewBox="0 0 150 80"><defs><style>.cls-1{opacity:.15}.cls-2{fill:#1d1d1b}</style></defs><title>nix</title><g id="Layer_1" data-name="Layer 1"><g id="Layer_1-2" data-name="Layer 1-2" class="cls-1"><path class="cls-2" d="M33.75 32.35h9l12.66 20.76h.09V32.35h6.59v29.9h-8.62L40.42 41h-.08v21.25h-6.59zm37.04 0h6.59v29.9h-6.59zM95 46.63l-9.9-14.28h8.26l6.38 10.47 6.14-10.47h8l-9.69 14.15L115 62.25h-8.26l-7.31-12-7.1 12h-7.82zM74.1 17.35a4.92 4.92 0 1 1-4.89 5 4.9 4.9 0 0 1 4.86-4.93zm0 7.5a2.59 2.59 0 1 0-2.54-2.63v.06a2.56 2.56 0 0 0 2.54 2.58zM68 17.14l-2-1.37a9.8 9.8 0 0 1 15.8-.61l-1.91 1.52a7.36 7.36 0 0 0-11.89.46z"/></g></g></svg>