<svg width="64" height="71" viewBox="0 0 64 71" xmlns="http://www.w3.org/2000/svg"><title>Page 1</title><path d="M.167 65.74c0 2.604 2.146 4.75 4.75 4.75H58.74c2.604 0 4.75-2.146 4.75-4.75V5.584c0-2.603-2.146-4.749-4.75-4.749H33.411c-2.603 0-4.749 2.146-4.749 4.75v25.328c-.006.424.158.832.455 1.135.3.3.705.47 1.128.47.424 0 .829-.17 1.129-.47.297-.303.46-.711.454-1.135V11.917h28.495v24.19c-.513-.192-1.008-.445-1.583-.445H4.917c-2.604 0-4.75 2.146-4.75 4.75V65.74zm0-36.261c.019.42.205.816.517 1.098.309.284.72.43 1.14.41a1.57 1.57 0 0 0 1.098-.516c.285-.309.43-.72.412-1.14A18.943 18.943 0 0 1 19.46 10.556L17.779 13.5c-.436.764-.17 1.74.593 2.177.764.436 1.741.17 2.177-.594l3.166-5.54a1.583 1.583 0 0 0-.593-2.177L17.58 4.199a1.589 1.589 0 0 0-1.599-.021c-.494.281-.8.81-.8 1.382-.01.584.306 1.125.816 1.41l1.336.767C7.498 10 .167 18.817.167 29.33c-.003.05-.003.1 0 .149zM3.334 65.74V40.411c0-.905.677-1.583 1.583-1.583h.791v28.495h-.791c-.906 0-1.583-.677-1.583-1.583zm5.54 1.583V38.828h40.368v28.495H8.874zM31.828 8.751V5.584c0-.905.678-1.583 1.583-1.583h25.33c.905 0 1.582.677 1.582 1.583v3.167H31.828zm20.58 58.572V38.828h6.332c.653 0 1.181.362 1.435.89.04.097.09.186.148.273V65.74c0 .906-.677 1.583-1.583 1.583h-6.332zm2.375-11.675a1.584 1.584 0 1 0 3.166-.173v-4.798a1.588 1.588 0 0 0-.455-1.135c-.3-.3-.705-.47-1.128-.47-.424 0-.83.17-1.129.47-.297.303-.46.71-.454 1.135v4.798a1.616 1.616 0 0 0 0 .173z" fill="#FFF" fill-rule="evenodd" fill-opacity=".5"/></svg>