<svg xmlns="http://www.w3.org/2000/svg" viewBox="0 0 150 80"><defs><style>.cls-1{opacity:.15}.cls-2{fill:#1d1d1b}</style></defs><title>comviq</title><g class="cls-1" id="Layer_1" data-name="Layer 1"><path class="cls-2" d="M22.14 26.35h-1.77c-4.7 0-8.7 3.89-8.7 8.12v13a8.76 8.76 0 0 0 8.7 8.7h1.77a8.76 8.76 0 0 0 8.7-8.7v-3.3h-6v3.08a3.51 3.51 0 0 1-3.23 3.46h-.77a3.51 3.51 0 0 1-3.23-3.46v-12a3.25 3.25 0 0 1 3.23-3.5h.77a3.25 3.25 0 0 1 3.23 3.5v3h6v-3.78c0-4.24-4.01-8.12-8.7-8.12zm22.86 0h-1.8c-4.7 0-8.7 3.89-8.7 8.12v13a8.76 8.76 0 0 0 8.7 8.7H45a8.76 8.76 0 0 0 8.7-8.7v-13c-.03-4.24-4.04-8.12-8.7-8.12zm2.73 20.9a3.51 3.51 0 0 1-3.23 3.46h-.8a3.51 3.51 0 0 1-3.23-3.46v-12a3.25 3.25 0 0 1 3.23-3.5h.77a3.25 3.25 0 0 1 3.23 3.5zm20.59-7.78L62.7 26.81h-5.27v28.86h5.74V40.01l4.77 10.66h.38l4.89-10.66v15.66h5.77V26.81h-4.92l-5.74 12.66zm24.61 7.89l-4.62-20.55h-6.05l6.93 28.86h7.01l7.31-28.86h-6.04l-4.54 20.55zm13.89-20.55h5.89v28.87h-5.89zm27.01 27.25l1 1.61h3.46l-10-15.37h-3.46l4.48 6.92a1 1 0 0 1 .16.55 1.13 1.13 0 0 1 0 .13 3.25 3.25 0 0 1-3.22 2.9h-.94a3.29 3.29 0 0 1-3.28-3.28V35a3.33 3.33 0 0 1 3.28-3.32h.94a3.29 3.29 0 0 1 3.33 3.32v4.48l5.75 8.9V34.84a8.48 8.48 0 0 0-8.49-8.49h-2a8.46 8.46 0 0 0-8.49 8.49v12.8a8.48 8.48 0 0 0 8.49 8.49h2.68a8.45 8.45 0 0 0 5.65-2.13.43.43 0 0 1 .66.06z"/></g></svg>