<svg width="52" height="52" viewBox="0 0 52 52" xmlns="http://www.w3.org/2000/svg"><path d="M26.396.781C12.273.781.823 12.231.823 26.355c0 14.123 11.45 25.573 25.573 25.573 14.124 0 25.574-11.45 25.574-25.573C51.97 12.23 40.52.78 26.396.78zM16.357 18.363h20.031c1.063 0 .516 1.363-.062 1.713-.578.349-8.581 5.187-8.88 5.366-.298.18-.684.266-1.073.266-.388 0-.774-.086-1.073-.266l-8.88-5.366c-.577-.35-1.124-1.713-.063-1.713zm20.695 14.651c0 .56-.67 1.332-1.184 1.332H16.925c-.514 0-1.184-.772-1.184-1.332V23.3c0-.245-.005-.563.458-.291.656.385 8.699 5.128 9.101 5.364.403.237.685.266 1.073.266.389 0 .67-.029 1.073-.266l9.148-5.363c.462-.272.458.047.458.291v9.713z" fill="#3F63FF"/></svg>