<svg xmlns="http://www.w3.org/2000/svg" viewBox="0 0 55.5 57.23"><defs><style>.cls-1{opacity:.15}</style></defs><title>sv</title><g id="Layer_2" data-name="Layer 2"><g class="cls-1" id="Layer_1-2" data-name="Layer 1"><path d="M39.56 8.88H19.87a4.14 4.14 0 0 1-4-4.41c0-3.22 2.28-4.46 4-4.46h19.69zm-2.64-6.44h-17a2.34 2.34 0 0 0-1.15 2.07A2.38 2.38 0 0 0 20 6.6h17zm-1.28 7.49c2.28.14 3.94 1.08 3.94 4.65a4.22 4.22 0 0 1-3.94 4.58h-19.7V9.9s18.41.04 19.7.03zm0 2.72H18.58v3.94h17.07a2.31 2.31 0 0 0 1.12-2 2.17 2.17 0 0 0-1.13-1.95zm-8.28 10.13c.22.26.45.62.71.93 1-1.77 1.38-2.23 2.07-3.51h9.45c-2.08 6.17-4.24 11.78-6.47 17.7l-1.78 4.7h-6.29c-3.16-7.44-6-14.53-9.19-22.39h9.59c1.13 1.51.91 1.21 1.91 2.57zm4.15-.05l-3.33 5c-1.12-1.56-2.45-3.31-3.76-5H19.7c2.45 5.88 5.06 11.9 7.18 17.1h2.52c2.16-5.61 2.9-7.55 6.66-17zM1.39 49.24a.82.82 0 0 0 .89.59c.19 0 .58 0 .58-.3s-.38-.36-.6-.4c-.92-.18-2-.43-2-1.59a1.52 1.52 0 0 1 .63-1.23 2.48 2.48 0 0 1 1.41-.37 1.94 1.94 0 0 1 2 1.2l-1.3.38a.75.75 0 0 0-.78-.52c-.2 0-.49.06-.49.31s.36.31.54.35a5.2 5.2 0 0 1 1.38.39 1.36 1.36 0 0 1 .73 1.25c.01 1.21-1.16 1.7-2.17 1.7A2.05 2.05 0 0 1 0 49.49zm3.14-1.05v-.93h.59l.11-1.16h1.23v1.21h.73v.93h-.72v1.26c0 .26 0 .47.31.47a1.61 1.61 0 0 0 .41-.06v1l-.84.09a1.15 1.15 0 0 1-1-.37 1.38 1.38 0 0 1-.27-1v-1.44zm5.36 2.72v-.6a1.09 1.09 0 0 1-1.12.69 1.16 1.16 0 0 1-.77-.3 1.19 1.19 0 0 1-.29-.92v-2.52h1.37v2.21c0 .24 0 .49.31.49a.38.38 0 0 0 .34-.21.79.79 0 0 0 .07-.39v-2.1h1.41v3.65zm4.29 0v-.49a1 1 0 0 1-1 .56c-1 0-1.41-1-1.41-1.88s.36-1.91 1.46-1.91a1.22 1.22 0 0 1 .87.37V46h1.41v4.9zm-.07-2.26a.68.68 0 0 0-.09-.43.38.38 0 0 0-.31-.14c-.25 0-.36.16-.4.39a3.64 3.64 0 0 0-.07.68c0 .32 0 .89.46.89a.35.35 0 0 0 .31-.19.75.75 0 0 0 .09-.46zm3.44 2.26h-1.42v-3.65h1.41zm0-4h-1.42v-1h1.41zM22 49.69A1.78 1.78 0 0 1 20.18 51a2.15 2.15 0 0 1-1.47-.48 1.82 1.82 0 0 1-.6-1.37 1.88 1.88 0 0 1 2-1.94 1.84 1.84 0 0 1 2 2v.19h-2.5c0 .39.12.68.55.68a.49.49 0 0 0 .56-.44zm-1.43-1c0-.36-.11-.63-.51-.63s-.52.29-.51.63zM24 50.91h-1.39v-2.63h-.51v-.9h.51a1.46 1.46 0 0 1 .26-1 1.39 1.39 0 0 1 1.14-.4l1 .09v.89l-.64-.06c-.35 0-.45.17-.41.51h.9v.9H24zm5.12-1.79a2 2 0 1 1-2-1.93 1.89 1.89 0 0 1 2 1.93zm-2.5 0c0 1 .24 1 .49 1s.49-.07.49-1c0-.35 0-1-.49-1s-.49.6-.49.95zm.65-2.94a.47.47 0 1 1 .46.47.47.47 0 0 1-.46-.52zm-1.26 0a.47.47 0 1 1 .46.47.47.47 0 0 1-.47-.52zM30.76 48c.12-.51.39-.86.95-.82h.19v1.28a1.13 1.13 0 0 0-.27 0 .61.61 0 0 0-.58.25 1.31 1.31 0 0 0-.1.63v1.58h-1.41v-3.66h1.21V48zm1.5-2h1.41v1.7a1 1 0 0 1 .94-.51c1 0 1.37 1 1.37 1.85S35.58 51 34.43 51a1.34 1.34 0 0 1-1.17-.57 2.49 2.49 0 0 0-.19.5h-.81zm1.42 3.45c0 .29 0 .64.41.64s.47-.65.47-1 0-1-.49-1a.38.38 0 0 0-.31.16.52.52 0 0 0-.09.39zm4.94 1.46v-.6a1.09 1.09 0 0 1-1.12.69 1.16 1.16 0 0 1-.81-.28 1.19 1.19 0 0 1-.29-.92v-2.54h1.41v2.21c0 .24 0 .49.31.49a.38.38 0 0 0 .34-.21.79.79 0 0 0 .07-.39v-2.1H40v3.65zM42 47.26v.51a1 1 0 0 1 1-.59 1.19 1.19 0 0 1 .95.38 1.78 1.78 0 0 1 .23 1.09v2.25h-1.35v-2.2c0-.22 0-.53-.31-.53s-.43.34-.43.64v2.11h-1.41v-3.66zm5 3.65v-.49a1 1 0 0 1-1 .56c-1 0-1.41-1-1.41-1.88s.36-1.91 1.46-1.91a1.22 1.22 0 0 1 .87.37V46h1.41v4.9zm0-2.26a.68.68 0 0 0-.09-.43.38.38 0 0 0-.31-.14c-.25 0-.36.16-.4.39a3.65 3.65 0 0 0-.07.68c0 .32 0 .89.46.89a.35.35 0 0 0 .31-.19.75.75 0 0 0 .09-.46zm5.78 1.04A1.78 1.78 0 0 1 50.91 51a2.15 2.15 0 0 1-1.47-.48 1.82 1.82 0 0 1-.6-1.37 1.88 1.88 0 0 1 2-1.94 1.84 1.84 0 0 1 2 2v.19h-2.5c0 .39.12.68.55.68a.49.49 0 0 0 .56-.44zm-1.43-1c0-.36-.11-.63-.51-.63s-.52.29-.51.63zm1.5-.5v-.93h.59l.11-1.16h1.23v1.21h.73v.93h-.71v1.26c0 .26 0 .47.31.47a1.61 1.61 0 0 0 .41-.06v1l-.84.11a1.15 1.15 0 0 1-1-.37 1.38 1.38 0 0 1-.27-1v-1.46zM9.06 57.16H7.53L6 52.26h1.53l.77 2.65.14.49.14-.46.77-2.67h1.23zm3.94 0v-.6a1.09 1.09 0 0 1-1.11.67 1.16 1.16 0 0 1-.81-.28 1.19 1.19 0 0 1-.29-.92v-2.52h1.41v2.21c0 .24 0 .49.31.49a.38.38 0 0 0 .34-.21.79.79 0 0 0 .07-.39v-2.1h1.41v3.65zm4.32 0L16.65 56l-.71 1.16h-1.17L16 55.22l-1.12-1.71h1.6l.37.67v.08l.08.13.06-.11v-.08l.4-.69h1.18l-1.06 1.66 1.3 2zm5.48-1.22a1.78 1.78 0 0 1-1.87 1.29 2.15 2.15 0 0 1-1.47-.48 1.82 1.82 0 0 1-.6-1.37 1.88 1.88 0 0 1 2-1.94 1.84 1.84 0 0 1 2 2v.19h-2.5c0 .39.12.68.55.68a.49.49 0 0 0 .56-.44zm-1.43-1c0-.36-.11-.63-.51-.63s-.52.29-.51.63zm3.23-1.43V54a1 1 0 0 1 1-.59 1.19 1.19 0 0 1 .95.38 1.78 1.78 0 0 1 .23 1.09v2.25h-1.37v-2.19c0-.22 0-.53-.31-.53s-.43.34-.43.64v2.11h-1.41v-3.65zM28.35 56c.08.35.47.39.78.39.14 0 .54 0 .54-.23s-.49-.22-.61-.24c-.76-.11-1.67-.26-1.67-1.23a1.11 1.11 0 0 1 .56-1 2.17 2.17 0 0 1 1.17-.28 1.63 1.63 0 0 1 1.65.95l-1.08.21a.64.64 0 0 0-.64-.32c-.11 0-.46 0-.46.19s.12.16.21.19a5.52 5.52 0 0 0 .61.09 2.54 2.54 0 0 1 1 .27 1.06 1.06 0 0 1 .51.93c0 1-1.06 1.29-1.88 1.29a1.72 1.72 0 0 1-1.83-1.11zm5.75-1.24l1.23 2.39h-1.48l-.69-1.46-.36.46v1h-1.4v-4.9h1.41v2.65l.31-.41.86-1h1.22z"/><path d="M39.26 55.36a2 2 0 1 1-2-1.93 1.89 1.89 0 0 1 2 1.93zm-2.5 0c0 1 .24 1 .49 1s.49-.07.49-1c0-.35 0-1-.49-1s-.49.64-.49.95zm4.4 1.8h-1.41v-4.9h1.41zm3.02 0a2.39 2.39 0 0 1 0-.51 1.33 1.33 0 0 1-1.19.58 1.13 1.13 0 0 1-1.27-1.1 1.22 1.22 0 0 1 1-1.12 6.13 6.13 0 0 1 1.43-.23c0-.33-.09-.46-.43-.46s-.51.1-.56.41l-1.3-.12c.21-.91 1.08-1.14 1.9-1.14a2.4 2.4 0 0 1 1.33.31c.48.34.42.81.42 1.33v1.28a2 2 0 0 0 .11.8zm-.12-1.71c-.34 0-.91.14-.91.59 0 .24.15.34.37.34.54 0 .54-.45.54-.85zm3.31-1.94V54a1 1 0 0 1 1-.59 1.19 1.19 0 0 1 .95.38 1.78 1.78 0 0 1 .23 1.09v2.25h-1.37v-2.19c0-.22 0-.53-.31-.53s-.43.34-.43.64v2.11H46v-3.65z"/></g></g></svg>