<svg width="42" height="42" viewBox="0 0 42 42" fill="none" xmlns="http://www.w3.org/2000/svg">
<path id="Shape" fill-rule="evenodd" clip-rule="evenodd" d="M21 0C9.40197 0 0 9.40211 0 21.0001C0 32.5982 9.40197 42.0001 21 42.0001C32.598 42.0001 42 32.5982 42 21.0001C42 9.40211 32.598 0 21 0ZM12.756 14.4376H29.2051C30.0775 14.4376 29.6285 15.557 29.1537 15.8443C28.9139 15.9889 27.118 17.0744 25.3679 18.1322C23.6537 19.1683 21.9833 20.1779 21.8621 20.2508C21.6171 20.3982 21.3 20.4687 20.981 20.4687C20.6619 20.4687 20.3448 20.3982 20.1 20.2508C19.9791 20.1781 18.3169 19.1735 16.6073 18.1402L16.5873 18.1281C14.8393 17.0716 13.0477 15.9888 12.8082 15.8443C12.3336 15.557 11.8844 14.4376 12.756 14.4376ZM28.7778 27.5626C29.1994 27.5626 29.75 26.9282 29.75 26.4689V18.4927V18.4869C29.7501 18.2869 29.7501 18.0324 29.374 18.2535L28.7143 18.6402C26.9004 19.7036 22.1405 22.4941 21.8621 22.6579C21.5317 22.8522 21.3 22.8756 20.981 22.8756C20.6619 22.8756 20.4303 22.8523 20.1 22.6579C19.9904 22.5934 19.1916 22.1224 18.1528 21.5099C16.0576 20.2746 12.9865 18.4638 12.626 18.2524C12.2499 18.0313 12.2499 18.2859 12.25 18.4858V18.4917V26.4689C12.25 26.9282 12.8006 27.5626 13.2222 27.5626H28.7778Z" fill="#C24C9C"/>
</svg>
