<svg width="42" height="42" viewBox="0 0 42 42" fill="none" xmlns="http://www.w3.org/2000/svg">
<path id="Shape" fill-rule="evenodd" clip-rule="evenodd" d="M0 21C0 9.40187 9.40187 0 21 0C32.5981 0 42 9.40187 42 21C42 32.5981 32.5981 42 21 42C9.40187 42 0 32.5981 0 21ZM11.6069 29.7041H15.8594V16.0191H11.6069V29.7041ZM13.7069 14.3391C12.3638 14.3391 11.4953 13.3875 11.4953 12.2106C11.4953 11.0097 12.39 10.0866 13.7616 10.0866C15.1331 10.0866 15.9731 11.0097 15.9994 12.2106C15.9994 13.3875 15.1331 14.3391 13.7069 14.3391ZM27.1381 29.7041H31.3906V21.6125C31.3906 17.5831 29.2928 15.7084 26.495 15.7084C24.2003 15.7084 22.8287 17.0253 22.2687 17.9178H22.1834L21.9887 16.0169H18.2941C18.3509 17.2463 18.4056 18.6747 18.4056 20.3831V29.7019H22.6603V21.8116C22.6603 21.42 22.6887 21.0263 22.8025 20.7484C23.1109 19.9675 23.8087 19.1559 24.9834 19.1559C26.5212 19.1559 27.1381 20.3547 27.1381 22.12V29.7041Z" fill="#A80071"/>
</svg>
