<svg width="52px" height="52px" viewBox="0 0 52 52" version="1.1" xmlns="http://www.w3.org/2000/svg" xmlns:xlink="http://www.w3.org/1999/xlink">
    <g id="Page-1" stroke="none" stroke-width="1" fill="none" fill-rule="evenodd">
        <g id="mijoh.se-desktop-ipad" transform="translate(-212.000000, -2869.000000)" fill-rule="nonzero" fill="#3F63FF">
            <g id="mail-with-circle" transform="translate(212.000000, 2869.000000)">
                <path d="M26.3963659,0.78125 C12.272607,0.78125 0.823138348,12.2308811 0.823138348,26.35464 C0.823138348,40.478399 12.272607,51.9278676 26.3963659,51.9278676 C40.5201248,51.9278676 51.9695934,40.478399 51.9695934,26.35464 C51.9695934,12.2308811 40.5201248,0.78125 26.3963659,0.78125 Z M16.3570457,18.3629861 L36.3883721,18.3629861 C37.4507391,18.3629861 36.903947,19.726146 36.3257748,20.0760408 C35.7476026,20.4246352 27.7445672,25.2626815 27.4462135,25.4421815 C27.1478597,25.6216815 26.761707,25.7075295 26.373278,25.7075295 C25.9846865,25.7075295 25.5985338,25.6216815 25.3003425,25.4421815 C25.0019888,25.2626815 16.9987909,20.4246352 16.4206187,20.0760408 C15.842609,19.726146 15.2956541,18.3629861 16.3570457,18.3629861 Z M37.0519045,33.0143516 C37.0519045,33.5736633 36.3813807,34.346294 35.8679196,34.346294 L16.9248122,34.346294 C16.4113511,34.346294 15.7408273,33.5736633 15.7408273,33.0143516 C15.7408273,33.0143516 15.7408273,23.5457245 15.7408273,23.2998876 C15.7408273,23.0553513 15.7362748,22.7366737 16.1986825,23.0085252 C16.855386,23.3935397 24.8979308,28.1366332 25.3003425,28.3733651 C25.7025918,28.6100971 25.9846865,28.6385503 26.373278,28.6385503 C26.761707,28.6385503 27.0438017,28.6100968 27.4462135,28.3733651 C27.8486252,28.1366334 35.9373458,23.3948404 36.5940493,23.009826 C37.056457,22.7379744 37.0519045,23.056652 37.0519045,23.3011884 C37.0519045,23.5470252 37.0519045,33.0143516 37.0519045,33.0143516 Z" id="Shape"></path>
            </g>
        </g>
    </g>
</svg>
