<?xml version="1.0" standalone="no"?>
<!DOCTYPE svg PUBLIC "-//W3C//DTD SVG 20010904//EN"
 "http://www.w3.org/TR/2001/REC-SVG-20010904/DTD/svg10.dtd">
<svg version="1.0" xmlns="http://www.w3.org/2000/svg"
 width="680.000000pt" height="680.000000pt" viewBox="0 0 680.000000 680.000000"
 preserveAspectRatio="xMidYMid meet">
<metadata>
Created by potrace 1.11, written by Peter Selinger 2001-2013
</metadata>
<g transform="translate(0.000000,680.000000) scale(0.100000,-0.100000)"
fill="#000000" stroke="none">
<path d="M3094 6649 c-60 -11 -195 -59 -225 -80 -14 -10 -31 -19 -38 -21 -8
-2 -24 -12 -36 -23 -51 -46 -110 -90 -117 -87 -5 1 -7 -1 -6 -5 5 -15 -34 -63
-46 -56 -6 3 -8 3 -4 -1 3 -4 -11 -35 -33 -68 -21 -34 -39 -66 -39 -72 0 -6
-5 -4 -11 4 -8 12 -9 10 -4 -8 4 -13 2 -28 -3 -35 -6 -7 -17 -39 -26 -72 -10
-33 -21 -67 -26 -76 -9 -18 -7 -277 4 -324 16 -72 86 -222 125 -269 9 -11 10
-16 4 -12 -7 4 -13 2 -13 -3 0 -6 8 -11 18 -11 9 0 28 -18 42 -39 13 -22 28
-37 34 -34 5 3 6 1 2 -5 -4 -7 -3 -12 3 -12 11 0 61 -47 61 -57 0 -3 -7 -3
-15 1 -8 3 -15 1 -15 -4 0 -6 -3 -9 -7 -9 -21 3 -44 -2 -39 -9 2 -4 -4 -8 -14
-8 -10 0 -16 5 -14 11 3 5 -2 1 -11 -10 -18 -22 -24 -23 -36 -3 -6 9 -9 9 -9
1 0 -16 -56 -43 -81 -38 -11 2 -17 0 -14 -4 2 -5 -6 -16 -19 -24 -12 -9 -40
-32 -62 -52 -21 -21 -51 -43 -66 -51 -16 -8 -28 -19 -28 -25 0 -6 -4 -7 -10
-4 -5 3 -10 1 -10 -5 0 -6 -4 -8 -10 -5 -5 3 -10 -1 -10 -10 0 -9 -4 -14 -9
-10 -6 3 -14 -3 -20 -12 -10 -17 -10 -17 -11 2 -1 13 -4 15 -7 6 -9 -22 -43
-52 -53 -46 -5 3 -11 -4 -15 -15 -4 -11 -10 -18 -15 -15 -5 3 -12 -4 -15 -16
-4 -11 -9 -18 -12 -16 -2 3 -24 -15 -48 -39 -25 -24 -49 -44 -55 -44 -6 0 -9
-4 -6 -9 3 -5 -1 -11 -9 -15 -8 -3 -15 -12 -15 -21 0 -13 -18 -20 -42 -16 -4
0 -5 -6 -2 -14 4 -8 -1 -17 -10 -21 -9 -3 -13 -11 -9 -17 4 -6 0 -8 -9 -4 -12
4 -14 1 -11 -14 4 -15 2 -18 -13 -12 -13 5 -16 3 -11 -10 4 -11 1 -17 -8 -17
-8 0 -21 -15 -29 -34 -8 -19 -22 -39 -33 -45 -10 -6 -13 -11 -8 -11 6 0 -3 -9
-20 -20 -16 -11 -25 -20 -20 -20 6 0 17 6 25 13 7 6 3 -2 -11 -20 -13 -18 -29
-30 -35 -28 -6 2 -11 -4 -11 -13 0 -35 -3 -41 -18 -36 -8 4 -15 1 -15 -5 0 -6
5 -11 12 -11 6 0 1 -9 -11 -19 -13 -11 -20 -24 -17 -29 7 -11 -30 -42 -40 -34
-5 4 -2 -2 6 -12 10 -13 10 -17 3 -12 -8 4 -13 1 -13 -9 0 -9 -5 -13 -10 -10
-6 3 -10 0 -10 -9 0 -8 -6 -17 -12 -19 -10 -4 -10 -6 0 -6 9 -1 7 -10 -8 -31
-12 -16 -18 -35 -14 -41 5 -8 3 -9 -6 -4 -10 6 -12 4 -7 -9 4 -9 3 -15 -2 -12
-5 3 -12 -5 -15 -19 -4 -14 -11 -25 -17 -25 -8 0 -7 6 2 18 11 15 11 15 -1 4
-18 -15 -20 -34 -5 -44 6 -5 5 -8 -3 -8 -7 0 -11 -4 -7 -9 3 -5 -5 -17 -17
-25 -21 -15 -18 -21 7 -16 5 1 1 -8 -9 -19 -16 -17 -22 -19 -35 -8 -14 10 -14
10 -5 -3 13 -17 10 -53 -5 -58 -5 -2 -7 -10 -4 -18 3 -7 -2 -17 -11 -20 -11
-4 -13 -11 -6 -23 6 -13 5 -18 -5 -18 -8 0 -11 5 -8 10 4 6 1 7 -7 2 -10 -6
-9 -11 5 -22 11 -7 13 -13 6 -13 -7 0 -9 -6 -6 -12 4 -7 -1 -4 -9 6 -19 23
-20 18 -6 -20 9 -23 8 -25 -3 -15 -12 9 -13 7 -10 -13 4 -18 0 -26 -16 -31
-12 -3 -21 -11 -21 -16 0 -13 17 -11 24 4 3 6 3 1 0 -12 -3 -13 -7 -29 -9 -35
-6 -29 -18 -45 -29 -39 -6 4 -4 -2 4 -12 13 -17 13 -18 -1 -13 -13 5 -15 0
-14 -28 2 -18 -1 -31 -6 -28 -8 4 -14 -33 -10 -58 2 -12 -14 -9 -28 5 -8 6 -6
0 3 -15 12 -19 14 -27 5 -30 -7 -2 -13 -12 -15 -21 -1 -9 1 -15 5 -12 4 2 8
-2 8 -10 0 -8 -4 -12 -8 -9 -4 2 -10 0 -14 -6 -3 -5 0 -10 7 -10 8 0 9 -3 3
-8 -6 -4 -10 -17 -9 -29 1 -12 -2 -20 -6 -18 -4 3 -11 -2 -14 -11 -3 -8 -2
-13 2 -10 5 3 9 -2 9 -10 0 -8 -6 -13 -14 -10 -10 4 -11 1 -4 -13 6 -10 7 -21
4 -25 -3 -3 -8 -18 -9 -33 -2 -15 -8 -29 -14 -31 -6 -2 -4 -10 7 -18 17 -13
17 -14 -1 -7 -16 5 -18 3 -13 -11 4 -9 3 -15 -2 -11 -5 3 -13 0 -17 -6 -4 -7
-3 -9 4 -5 6 3 13 2 16 -3 4 -5 2 -12 -3 -16 -6 -3 -7 -13 -4 -22 4 -10 2 -14
-5 -9 -6 3 -13 2 -17 -4 -3 -5 1 -10 9 -10 10 0 13 -6 10 -15 -4 -8 -11 -12
-18 -8 -6 3 -6 1 2 -8 14 -15 16 -33 3 -25 -5 4 -7 -3 -4 -14 4 -15 1 -18 -16
-15 -12 2 -19 0 -16 -6 4 -5 10 -7 15 -4 5 3 11 1 14 -4 4 -5 2 -13 -4 -16 -8
-5 -7 -12 2 -23 11 -13 11 -14 -1 -7 -11 6 -13 3 -9 -13 4 -12 1 -22 -4 -22
-6 0 -4 -8 3 -17 11 -13 11 -15 1 -9 -10 6 -13 3 -12 -10 1 -11 1 -21 0 -24
-1 -5 -8 -72 -13 -130 -1 -14 -6 -31 -11 -39 -7 -11 -6 -12 5 -6 12 8 12 6 0
-8 -8 -11 -9 -17 -3 -17 6 0 9 -7 5 -16 -5 -13 -7 -13 -14 -2 -6 9 -9 9 -9 1
0 -7 8 -17 17 -22 10 -6 13 -11 8 -11 -6 0 -10 -21 -10 -47 0 -27 -4 -51 -10
-55 -6 -5 -4 -8 5 -8 13 0 13 -1 0 -10 -11 -7 -11 -10 -2 -10 7 0 10 -5 7 -10
-4 -6 -7 -40 -6 -76 0 -45 -3 -63 -11 -58 -7 5 -8 2 -2 -7 12 -20 13 -112 1
-127 -7 -9 -7 -16 1 -24 16 -16 15 -41 0 -32 -10 6 -10 4 0 -7 6 -7 12 -24 12
-39 0 -20 -2 -22 -11 -10 -9 12 -10 12 -5 -3 3 -10 6 -21 6 -23 0 -3 6 -2 12
2 10 6 10 4 3 -7 -12 -15 -12 -129 -1 -148 4 -6 2 -11 -5 -11 -10 0 -10 -3 -2
-11 6 -6 9 -17 6 -24 -2 -8 1 -24 8 -37 12 -22 11 -22 -6 -8 -17 14 -17 13 -7
-5 7 -15 7 -26 -1 -40 -10 -19 -9 -19 9 -5 10 8 16 11 12 6 -4 -5 -3 -16 2
-26 6 -11 4 -24 -6 -38 -10 -15 -11 -23 -3 -28 8 -5 9 -3 4 6 -5 8 -4 11 2 7
15 -9 23 -46 12 -53 -5 -3 -9 -10 -9 -15 0 -6 5 -7 10 -4 6 3 10 1 10 -4 0 -6
-6 -11 -12 -11 -9 0 -9 -3 -2 -8 30 -20 22 -49 -11 -42 -5 1 -6 -2 -2 -7 5 -4
14 -8 20 -8 7 0 12 -4 12 -10 0 -5 4 -16 8 -22 11 -17 -5 -17 -23 -1 -12 11
-12 10 -3 -2 17 -24 22 -92 6 -86 -10 4 -10 1 0 -15 10 -17 9 -22 -13 -39
l-25 -19 23 6 c24 6 24 6 8 -26 -9 -17 -14 -31 -10 -31 4 0 1 -7 -6 -15 -6 -8
-8 -20 -4 -26 4 -7 3 -9 -3 -6 -6 4 -17 -1 -24 -10 -10 -12 -10 -14 -1 -9 6 4
12 3 12 -2 0 -6 -7 -13 -16 -16 -9 -4 -14 -9 -11 -13 4 -3 -1 -12 -11 -19 -9
-7 -15 -14 -12 -16 3 -2 18 -14 35 -28 16 -14 24 -18 17 -9 -10 13 -8 15 18
11 19 -3 27 -8 23 -16 -10 -15 -13 -40 -5 -31 4 4 7 12 7 18 1 7 7 11 14 9 7
-1 10 2 6 8 -3 5 -1 10 4 10 6 0 11 -4 11 -10 0 -5 8 -10 18 -10 14 0 15 2 2
10 -13 8 -12 10 3 10 9 0 17 -5 17 -11 0 -8 5 -8 15 1 8 7 28 10 44 8 18 -3
29 0 28 6 -1 6 4 10 11 9 6 -2 12 2 12 8 0 5 5 7 10 4 8 -5 7 -12 -2 -23 -12
-15 -11 -16 4 -3 10 7 15 18 11 24 -4 7 0 8 12 3 16 -6 16 -4 4 11 -11 14 -12
15 0 9 8 -5 17 -3 23 5 7 11 9 9 5 -7 -2 -12 1 -21 8 -21 7 0 10 10 7 24 -3
18 1 26 17 30 12 3 18 10 14 17 -4 6 1 5 11 -3 10 -8 15 -23 13 -33 -3 -10 -1
-18 5 -18 6 0 8 -6 5 -14 -3 -7 0 -19 6 -25 6 -6 7 -11 1 -11 -5 0 -2 -5 6
-10 13 -9 12 -13 -5 -26 -20 -16 -20 -16 3 -9 16 5 22 2 22 -10 0 -9 9 -25 20
-37 10 -12 17 -25 14 -30 -3 -4 0 -8 7 -8 9 0 9 -3 0 -14 -9 -11 -9 -16 0 -22
8 -4 9 -3 5 4 -10 17 3 15 20 -2 11 -11 11 -16 1 -19 -9 -4 -9 -6 1 -6 8 -1
10 -6 6 -13 -5 -9 -2 -9 9 1 9 7 17 9 17 4 0 -15 36 -53 44 -46 7 7 8 3 10
-40 1 -16 -2 -31 -6 -33 -4 -3 -8 -14 -8 -26 0 -14 -5 -18 -15 -15 -8 4 -17 2
-20 -4 -4 -5 -1 -8 6 -7 19 5 22 -20 2 -25 -17 -4 -17 -5 0 -6 15 -1 16 -3 5
-15 -7 -8 -17 -11 -23 -8 -5 3 -3 -3 5 -13 14 -17 13 -18 -5 -11 -15 5 -17 4
-8 -5 9 -9 7 -16 -8 -32 -21 -23 -25 -47 -8 -47 5 0 7 5 3 12 -4 7 -3 8 4 4
22 -13 52 -15 52 -3 0 7 4 7 9 -3 6 -8 7 -18 4 -24 -3 -5 -1 -6 6 -2 6 4 9 11
6 16 -3 4 2 10 9 13 8 3 17 1 20 -6 3 -9 5 -9 5 1 1 6 12 12 25 12 14 0 28 5
31 10 5 8 11 7 21 -1 10 -8 14 -8 14 0 0 6 5 11 11 11 5 0 7 -6 4 -12 -4 -7 1
-4 9 6 9 11 17 17 17 13 1 -4 2 -11 3 -16 0 -5 4 -13 8 -17 4 -3 6 3 3 14 -3
19 14 33 45 37 3 0 11 4 19 9 11 7 13 5 8 -7 -3 -9 -3 -18 1 -21 4 -3 9 5 9
16 1 12 7 26 14 32 9 8 10 8 4 -2 -6 -11 -3 -11 16 0 13 7 28 19 32 26 5 7 13
10 18 7 5 -4 6 -11 3 -17 -4 -7 -2 -8 4 -4 6 4 8 14 5 23 -4 11 -3 14 5 9 7
-4 12 -2 12 3 0 6 5 11 11 11 5 0 7 -5 3 -12 -4 -7 -3 -8 4 -4 6 4 8 14 5 24
-6 15 -3 14 18 -3 13 -11 18 -13 12 -5 -18 20 -16 35 3 19 13 -11 15 -11 12 2
-1 8 7 24 20 37 l22 22 0 -30 c0 -17 -5 -30 -12 -30 -9 0 -9 -3 -3 -8 12 -8
13 -22 2 -40 -5 -6 -5 -17 -1 -24 5 -8 0 -9 -15 -5 -18 4 -20 3 -10 -9 6 -7
15 -12 19 -9 5 3 3 -6 -3 -19 -7 -15 -16 -21 -22 -16 -7 6 -11 2 -11 -10 0
-10 3 -17 7 -14 4 2 5 -5 2 -16 -3 -11 -10 -17 -16 -13 -6 4 -8 -2 -4 -16 4
-17 2 -21 -9 -17 -9 3 -12 1 -9 -4 3 -6 1 -10 -5 -10 -6 0 -8 -5 -4 -11 4 -8
9 -7 15 2 6 10 8 7 6 -9 0 -12 -6 -22 -12 -22 -5 0 -3 -5 5 -10 10 -7 11 -10
2 -10 -9 0 -8 -7 5 -26 13 -21 14 -30 5 -45 -17 -26 -15 -37 2 -14 13 18 14
18 24 -2 6 -11 9 -23 6 -26 -3 -3 2 -4 13 -3 10 2 23 -1 30 -6 7 -5 18 -6 24
-2 7 4 9 3 5 -4 -4 -6 1 -10 13 -9 16 1 18 5 10 19 -5 10 -14 18 -19 18 -5 0
-7 7 -4 15 4 8 2 15 -3 15 -8 0 -11 100 -3 108 1 1 3 5 4 10 2 13 36 57 36 47
0 -6 5 -2 11 8 9 15 13 16 27 5 15 -12 16 -11 4 4 -12 15 -9 22 21 52 19 19
32 37 29 40 -3 3 0 6 7 6 7 0 10 4 7 9 -3 5 0 11 8 14 8 3 16 16 18 29 2 15 9
22 22 21 12 -1 15 2 8 9 -11 11 12 84 27 81 5 -2 8 5 6 15 -1 10 5 34 15 55
10 20 14 34 8 31 -6 -4 -5 3 1 15 7 12 9 25 6 30 -3 5 3 12 12 14 16 4 16 5 1
6 -11 1 -15 7 -11 21 3 11 9 20 15 20 5 0 5 7 -1 18 -5 10 -6 23 -2 30 3 6 6
54 5 106 -1 53 2 93 7 91 4 -3 11 -1 14 5 4 6 3 10 -2 9 -22 -4 -30 3 -29 28
1 16 -2 36 -6 45 -5 9 -4 20 2 23 6 3 14 -2 18 -12 4 -10 13 -19 20 -21 8 -1
29 -15 48 -30 31 -24 33 -28 17 -40 -10 -7 -12 -12 -4 -12 7 0 9 -4 6 -10 -3
-6 1 -7 10 -3 12 4 13 8 5 13 -9 6 -9 9 0 15 7 4 26 -8 48 -31 19 -22 32 -33
28 -27 -5 9 -2 11 8 7 9 -3 16 -12 16 -20 0 -8 6 -11 17 -7 12 5 14 3 8 -7 -6
-10 -4 -12 8 -7 8 3 21 0 27 -8 6 -7 22 -16 35 -19 14 -4 25 -11 25 -17 0 -6
5 -7 10 -4 10 6 14 -6 11 -35 -2 -13 -1 -13 8 0 5 8 7 18 5 22 -3 5 6 3 20 -4
14 -6 26 -15 26 -20 0 -5 6 -8 13 -7 6 1 25 -1 40 -6 21 -5 27 -12 24 -25 -5
-19 7 -20 46 -5 12 5 17 2 17 -10 0 -12 -5 -15 -17 -10 -15 5 -16 4 -5 -7 11
-11 15 -10 25 2 12 16 57 15 57 0 0 -5 8 -6 18 -3 15 6 15 5 3 -10 -12 -15
-12 -17 3 -11 9 3 16 10 16 15 0 6 10 4 23 -2 12 -7 24 -12 27 -11 15 5 70
-12 70 -22 0 -6 5 -4 10 4 6 9 10 10 10 3 0 -7 13 -10 33 -9 42 4 81 -10 71
-25 -4 -8 -3 -9 5 -5 6 4 8 12 5 18 -5 7 4 9 25 6 17 -2 31 -1 31 3 0 4 15 6
33 5 17 -2 35 1 38 6 3 5 24 10 46 11 23 1 39 5 36 10 -7 12 12 8 26 -5 10
-11 11 -10 7 2 -4 11 13 22 65 42 39 16 76 25 82 21 6 -4 7 -1 2 7 -6 10 -3
12 13 8 12 -4 20 -2 16 3 -5 8 28 26 50 27 5 0 13 7 18 16 5 9 13 16 19 16 5
0 32 16 59 35 27 19 55 36 62 37 7 2 22 13 33 26 11 12 24 22 27 22 4 0 22 14
40 30 l33 31 22 -28 c13 -15 23 -23 23 -17 0 6 -7 17 -15 24 -21 18 -19 26 14
49 l29 21 -5 -32 c-10 -55 -4 -218 7 -218 3 0 6 -13 6 -29 1 -23 -2 -28 -15
-24 -10 3 -8 -1 6 -14 12 -10 23 -29 25 -43 2 -14 7 -31 11 -37 5 -7 5 -13 0
-13 -4 0 -1 -5 7 -10 12 -7 13 -13 3 -27 -6 -10 -16 -17 -22 -16 -6 2 -11 -2
-11 -7 0 -14 13 -13 28 2 9 9 12 9 12 -1 0 -7 5 -9 13 -5 8 5 8 3 -2 -9 -7 -9
-17 -15 -20 -12 -4 2 -8 -2 -8 -10 0 -8 4 -12 9 -9 4 3 8 0 8 -5 0 -6 5 -11
11 -11 8 0 8 5 -1 15 -7 9 -8 15 -2 15 9 0 21 -19 27 -42 2 -5 4 -11 5 -15 1
-5 2 -11 1 -15 0 -5 4 -8 9 -8 6 0 10 -9 10 -20 0 -11 5 -20 10 -20 6 0 10 -9
10 -20 0 -11 5 -20 10 -20 6 0 10 -9 10 -20 0 -11 5 -20 10 -20 6 0 10 -8 10
-17 0 -16 -2 -16 -11 -3 -9 13 -10 13 -6 0 2 -8 11 -14 21 -12 9 2 16 -4 16
-13 0 -8 4 -15 9 -15 5 0 12 -8 15 -17 5 -13 0 -11 -19 7 -14 13 -24 18 -20
10 3 -8 21 -25 40 -38 36 -23 45 -46 23 -56 -7 -3 -3 -3 10 0 16 4 22 1 22
-11 0 -9 6 -23 14 -30 7 -8 13 -24 12 -37 -1 -13 3 -26 9 -30 7 -5 6 -14 -3
-29 -7 -11 -11 -24 -8 -27 3 -3 6 0 6 6 0 7 4 12 10 12 5 0 7 -7 3 -16 -3 -9
0 -20 8 -25 12 -7 12 -9 0 -9 -7 0 -11 -6 -7 -15 3 -8 0 -15 -7 -15 -8 0 -6
-4 3 -10 12 -7 12 -10 1 -10 -8 0 -11 -6 -7 -16 3 -8 2 -12 -4 -9 -6 3 -10 1
-10 -4 0 -6 6 -11 13 -11 9 0 8 -3 -2 -9 -7 -5 -10 -14 -7 -20 4 -6 3 -11 -3
-11 -6 0 -17 -14 -26 -30 -9 -17 -11 -30 -5 -30 5 0 10 5 10 10 0 6 9 10 21
10 15 0 19 5 15 15 -3 9 0 15 9 15 8 0 15 5 15 11 0 5 5 7 12 3 7 -4 8 -3 4 5
-4 6 0 18 8 27 9 9 13 21 9 27 -4 7 0 8 13 3 14 -5 16 -4 8 4 -12 12 -7 53 6
45 4 -2 6 8 4 23 -1 14 2 32 7 38 7 8 6 14 -1 19 -5 3 -10 11 -10 16 0 6 6 7
13 3 9 -6 9 -4 1 7 -6 8 -12 21 -13 29 -2 28 -9 75 -11 75 -1 0 -3 20 -5 45
-1 25 -8 46 -15 48 -8 3 -4 10 11 19 13 8 16 12 7 9 -12 -3 -18 0 -18 10 0 9
5 12 13 8 7 -5 6 0 -3 11 -14 17 -13 18 5 12 17 -6 16 -4 -4 11 -16 13 -20 21
-12 26 9 6 9 11 1 21 -8 9 -7 14 4 18 9 4 18 1 22 -5 5 -7 2 -8 -6 -3 -9 5
-11 4 -6 -4 4 -6 12 -9 17 -5 6 3 24 -9 40 -27 17 -19 38 -34 47 -34 12 0 16
-7 15 -25 -3 -23 -2 -24 11 -7 13 17 15 16 24 -13 6 -16 13 -30 16 -30 3 0 1
11 -4 25 -5 14 -6 25 -2 25 4 0 13 -14 19 -30 6 -17 17 -29 24 -28 7 2 13 -3
14 -11 0 -8 7 -16 15 -18 13 -4 13 -3 0 6 -8 6 -11 11 -6 11 5 0 3 7 -4 15 -7
8 -16 13 -20 10 -4 -3 -11 2 -14 11 -4 10 -2 14 6 10 7 -3 21 -9 31 -12 9 -4
17 -11 17 -16 0 -5 8 -8 18 -6 10 2 16 -2 14 -10 -2 -9 2 -11 10 -6 19 12 38
14 38 4 0 -5 -5 -12 -10 -15 -6 -3 -10 -1 -10 6 0 7 -3 10 -6 6 -12 -12 7 -28
20 -18 7 6 17 7 21 3 5 -4 4 0 0 8 -7 12 -6 13 7 3 8 -7 18 -10 21 -6 4 3 7 1
7 -6 0 -7 5 -9 12 -5 15 10 58 12 52 3 -2 -4 5 -9 16 -12 11 -3 20 0 21 6 0 7
4 3 9 -8 8 -18 9 -18 9 -2 1 14 5 16 19 8 10 -5 22 -7 28 -3 13 10 17 35 4 27
-6 -4 -10 6 -10 24 0 17 -4 31 -10 31 -5 0 -10 10 -10 23 0 12 -7 31 -15 41
-18 23 -20 40 -4 30 6 -3 3 5 -6 20 -10 15 -15 29 -12 33 4 3 -1 12 -11 20
-10 9 -11 11 -2 7 13 -7 13 -5 2 9 -8 9 -11 21 -7 27 3 5 0 10 -7 10 -9 0 -9
3 2 10 8 5 11 10 6 10 -6 0 5 16 24 35 19 19 30 35 24 35 -5 0 -1 5 9 11 9 5
17 17 17 24 0 8 5 15 10 15 6 0 10 9 10 21 0 11 4 17 10 14 6 -4 7 1 3 11 -5
14 -3 16 12 11 14 -6 16 -5 6 7 -9 11 -9 17 2 28 8 7 13 21 11 31 -1 9 2 19 6
22 5 3 7 12 3 20 -4 11 2 15 22 15 14 0 24 -3 21 -8 -2 -4 2 -18 10 -32 l15
-25 -7 25 c-6 23 -6 23 10 7 13 -12 14 -21 7 -35 -14 -27 -3 -34 28 -17 19 9
31 10 42 3 11 -8 11 -9 -3 -5 -9 3 -24 -3 -35 -16 -18 -21 -18 -21 1 -7 21 16
67 14 78 -4 4 -6 8 -7 8 -3 0 4 10 2 23 -5 12 -7 28 -11 35 -10 6 2 12 -1 12
-6 0 -15 -44 -9 -58 8 -11 13 -12 12 -4 -5 11 -21 62 -29 74 -11 5 7 8 7 8 1
0 -6 12 -12 27 -13 15 -1 30 -8 35 -15 6 -9 8 -8 9 3 0 10 3 8 9 -5 l9 -20 0
20 c1 15 3 17 10 7 4 -8 11 -13 15 -13 3 1 9 0 14 0 4 -1 15 0 26 1 11 1 15
-3 12 -9 -4 -6 -2 -11 3 -11 6 0 11 4 11 9 0 5 11 9 25 9 13 0 22 -4 19 -9 -3
-5 0 -9 5 -9 6 0 11 4 11 10 0 5 14 8 30 6 17 -2 30 -1 30 3 0 3 17 6 38 5 20
0 43 4 49 9 7 5 20 7 28 3 8 -3 15 -1 15 4 0 6 3 9 8 9 30 -5 32 3 8 27 -14
15 -26 31 -26 35 0 5 -7 9 -16 9 -11 0 -14 5 -10 17 4 10 4 14 0 11 -8 -8 -34
16 -34 32 0 6 -4 8 -10 5 -5 -3 -10 1 -10 10 0 8 -7 18 -15 21 -14 6 -31 41
-27 57 1 5 -2 6 -8 2 -5 -3 -10 -1 -10 5 0 6 -5 8 -10 5 -6 -4 -9 -3 -8 2 2 4
-6 24 -18 43 -11 19 -21 38 -22 43 -1 4 -11 16 -22 27 -12 12 -18 25 -15 30 3
5 1 11 -5 15 -6 4 -7 11 -4 17 4 7 2 8 -4 4 -11 -6 -14 0 -11 20 0 4 -4 10 -9
13 -6 3 -12 15 -14 26 -1 11 -9 26 -16 34 -7 7 -11 20 -8 27 3 8 1 14 -5 14
-6 0 -7 5 -4 10 3 6 1 10 -5 10 -6 0 -8 4 -5 10 3 5 2 10 -3 10 -8 0 -10 6
-14 50 -1 11 -6 20 -10 20 -4 0 -7 8 -7 18 0 19 -4 38 -16 66 -5 11 -3 21 4
26 10 5 9 9 -3 13 -10 4 -14 18 -13 46 2 23 -1 41 -5 41 -4 0 -8 9 -8 21 0 13
4 18 12 13 8 -5 8 -3 2 7 -12 18 -14 188 -3 195 5 3 4 14 -2 26 -8 15 -8 19 0
14 9 -6 17 28 12 56 0 5 4 8 10 8 5 0 8 4 5 8 -3 5 0 26 6 48 15 51 15 51 17
70 0 8 5 13 9 10 5 -3 9 1 9 9 0 8 -5 11 -11 8 -6 -4 -5 1 3 10 7 9 11 24 7
32 -3 8 -1 15 4 15 5 0 8 14 6 30 -2 17 0 30 5 30 4 0 6 9 4 20 -2 11 2 20 8
20 7 0 6 4 -3 10 -12 8 -13 11 -1 19 11 7 11 9 0 14 -8 3 -9 6 -3 6 8 1 9 12
4 36 -5 22 -4 37 3 42 6 4 7 1 2 -7 -5 -9 -4 -11 4 -6 9 6 9 11 0 22 -9 11 -8
14 2 14 9 0 10 3 4 8 -6 4 -10 51 -10 107 0 74 -4 105 -15 119 -9 12 -10 16
-2 12 7 -4 12 -1 12 8 0 9 -3 16 -7 16 -5 0 -9 17 -9 38 -2 63 -7 96 -17 110
-6 8 -5 12 4 12 12 0 12 2 0 9 -7 5 -11 13 -7 19 3 6 2 13 -3 16 -5 4 -8 17
-6 31 1 14 -1 25 -5 25 -5 0 -7 11 -5 25 1 17 -3 25 -14 25 -9 0 -12 3 -6 8
12 8 15 53 3 46 -4 -3 -8 6 -8 20 0 14 -6 26 -12 26 -9 0 -8 4 2 10 10 6 11
10 3 10 -7 0 -13 7 -13 16 0 8 -4 13 -8 10 -5 -3 -9 1 -9 9 0 8 5 12 10 8 5
-3 2 6 -7 19 -9 14 -13 28 -9 31 3 4 2 7 -3 7 -5 0 -11 12 -12 28 -1 15 -7 29
-12 30 -6 2 -8 8 -4 13 3 5 1 9 -5 9 -5 0 -8 11 -7 25 2 13 -1 22 -5 19 -5 -3
-9 1 -9 10 0 8 -6 17 -12 19 -10 4 -10 6 0 6 10 1 10 5 -2 17 -9 8 -14 20 -11
25 4 5 1 9 -6 9 -7 0 -9 3 -6 7 4 3 -1 15 -10 26 -13 15 -14 18 -3 12 11 -6
10 -3 -3 12 -9 11 -14 23 -10 26 3 4 1 7 -5 7 -7 0 -12 9 -12 20 0 11 -5 20
-11 20 -5 0 -7 5 -4 10 3 6 1 10 -5 10 -7 0 -10 6 -8 12 3 7 -1 19 -9 26 -7 8
-11 18 -8 23 4 5 -1 6 -9 3 -11 -4 -13 0 -9 15 3 12 1 21 -6 21 -6 0 -11 7
-11 15 0 8 -3 15 -8 15 -4 0 -13 9 -20 21 -8 12 -9 18 -3 14 6 -3 11 -1 11 4
0 6 -10 11 -22 11 -19 0 -20 2 -8 10 13 9 8 14 -11 12 -4 -1 -5 8 -2 18 3 11
0 20 -6 20 -6 0 -11 7 -11 15 0 8 -9 20 -19 27 -11 7 -17 18 -13 27 4 10 1 13
-11 8 -15 -6 -16 -4 -6 14 6 12 7 19 1 15 -5 -3 -13 1 -16 10 -3 8 -10 12 -16
9 -6 -3 -7 1 -4 9 4 9 0 18 -9 22 -9 3 -13 12 -10 21 4 11 2 14 -5 9 -11 -7
-17 6 -13 27 1 5 -3 6 -8 3 -5 -3 -11 4 -14 15 -3 12 -10 18 -16 15 -6 -4 -8
2 -6 14 2 11 0 18 -6 15 -5 -4 -9 -1 -9 5 0 6 -4 9 -9 5 -6 -3 -8 4 -6 16 3
15 0 19 -11 15 -8 -3 -13 -2 -10 3 3 5 -1 14 -10 21 -8 7 -13 19 -10 26 3 8 0
11 -9 8 -14 -6 -49 48 -38 59 3 4 -4 5 -15 2 -15 -2 -19 0 -15 11 3 8 0 14 -7
14 -6 0 -8 5 -5 10 3 6 -1 10 -10 10 -11 0 -15 5 -11 16 3 8 2 13 -2 11 -9 -6
-33 19 -25 27 4 3 -1 6 -10 6 -9 0 -17 6 -17 14 0 8 -15 23 -32 35 -18 11 -30
21 -25 21 4 0 -9 16 -29 35 -20 20 -41 32 -47 28 -7 -4 -5 2 3 12 8 10 10 16
3 12 -7 -5 -26 7 -46 27 -19 19 -38 32 -41 29 -3 -4 -6 -1 -6 6 0 7 -4 9 -10
6 -5 -3 -10 2 -10 11 0 10 -3 14 -6 11 -4 -4 -15 3 -25 15 -13 14 -19 17 -19
7 -1 -8 -7 -3 -15 11 -8 14 -14 21 -15 16 0 -5 -6 -3 -13 3 -8 6 -17 8 -20 4
-4 -3 -7 1 -7 11 0 9 -4 15 -9 11 -5 -3 -16 1 -24 9 -8 8 -17 12 -21 9 -3 -4
-6 -1 -6 5 0 9 -40 28 -48 23 -2 -1 -10 6 -19 16 -8 10 -11 11 -7 3 6 -12 4
-12 -12 1 -10 9 -29 20 -42 24 -12 3 -20 10 -17 15 3 5 -4 7 -15 5 -11 -2 -20
1 -20 7 0 5 -7 8 -15 4 -8 -3 -15 -1 -15 5 0 6 -7 9 -15 5 -8 -3 -15 -1 -15 4
0 5 -11 12 -25 16 -14 3 -25 11 -25 18 0 6 -5 4 -10 -4 -6 -9 -13 -11 -17 -5
-5 6 -19 16 -32 23 -19 11 -22 11 -16 0 6 -10 5 -11 -6 0 -7 6 -21 12 -31 12
-10 0 -18 5 -18 11 0 6 -8 8 -19 4 -11 -3 -22 -1 -25 4 -4 6 -13 8 -21 4 -8
-3 -15 0 -15 6 0 6 -5 11 -11 11 -5 0 -7 -6 -3 -12 5 -8 0 -7 -11 2 -10 8 -26
14 -37 12 -10 -2 -18 2 -18 7 0 6 -3 10 -7 10 -36 -6 -72 3 -76 19 -4 17 65
92 85 92 5 0 6 5 3 10 -3 6 4 14 17 19 13 6 19 10 15 10 -15 2 14 41 31 42 10
0 12 3 4 6 -9 3 -8 11 6 31 42 61 102 219 102 270 0 12 5 22 11 22 6 0 7 5 2
13 -10 16 -4 58 10 76 9 12 9 13 -1 7 -10 -6 -13 2 -11 36 1 23 0 50 -2 58 -2
8 2 14 9 12 8 -1 11 2 7 8 -3 6 -11 8 -16 5 -8 -5 -14 23 -10 47 0 4 -6 25
-14 47 -8 23 -14 42 -14 44 1 1 -6 20 -15 42 -9 22 -16 44 -15 49 0 5 -3 12
-8 15 -11 8 -73 100 -73 109 -1 4 -19 25 -40 47 -32 32 -37 42 -27 55 10 13
10 13 -3 3 -13 -10 -23 -5 -58 26 -23 21 -42 36 -42 34 0 -3 -15 6 -34 21 -19
14 -39 26 -45 26 -6 0 -11 5 -11 10 0 6 -3 9 -7 8 -11 -3 -83 25 -83 32 0 3
-8 6 -17 6 -10 1 -29 4 -43 7 -124 28 -247 34 -346 16z m626 -1369 c0 -5 -2
-10 -4 -10 -3 0 -8 5 -11 10 -3 6 -1 10 4 10 6 0 11 -4 11 -10z m1615 -4109
c3 -6 -4 -15 -15 -21 -20 -11 -21 -10 -10 9 12 23 16 25 25 12z m-2315 -55 c0
-3 -4 -8 -10 -11 -5 -3 -10 -1 -10 4 0 6 5 11 10 11 6 0 10 -2 10 -4z"/>
<path d="M2430 5906 c0 -2 7 -7 16 -10 8 -3 12 -2 9 4 -6 10 -25 14 -25 6z"/>
<path d="M2453 5775 c0 -8 4 -12 9 -9 5 3 6 10 3 15 -9 13 -12 11 -12 -6z"/>
<path d="M2435 5741 c-3 -5 -2 -12 3 -15 5 -3 9 1 9 9 0 17 -3 19 -12 6z"/>
<path d="M2456 5678 c3 -5 10 -6 15 -3 13 9 11 12 -6 12 -8 0 -12 -4 -9 -9z"/>
<path d="M2479 5668 c-5 -18 -6 -38 -1 -34 7 8 12 36 6 36 -2 0 -4 -1 -5 -2z"/>
<path d="M2490 5619 c0 -5 5 -7 10 -4 6 3 10 8 10 11 0 2 -4 4 -10 4 -5 0 -10
-5 -10 -11z"/>
<path d="M2500 5595 c-11 -13 -10 -14 4 -9 9 3 16 10 16 15 0 13 -6 11 -20 -6z"/>
<path d="M2480 5560 c-9 -6 -10 -10 -3 -10 6 0 15 5 18 10 8 12 4 12 -15 0z"/>
<path d="M2506 5541 c-4 -5 4 -7 16 -3 23 5 23 5 4 -16 -11 -12 -16 -22 -11
-22 4 0 1 -8 -6 -17 -13 -16 -12 -17 3 -4 10 7 16 17 13 21 -3 4 2 13 10 20 8
7 12 16 9 21 -7 12 -31 12 -38 0z"/>
<path d="M2546 5512 c-3 -5 1 -9 9 -9 8 0 12 4 9 9 -3 4 -7 8 -9 8 -2 0 -6 -4
-9 -8z"/>
<path d="M3936 5498 c3 -5 10 -6 15 -3 13 9 11 12 -6 12 -8 0 -12 -4 -9 -9z"/>
<path d="M2562 5465 c-17 -37 -14 -45 4 -12 9 16 14 31 11 33 -2 2 -9 -7 -15
-21z"/>
<path d="M2576 5445 c-3 -8 -1 -15 4 -15 6 0 10 7 10 15 0 8 -2 15 -4 15 -2 0
-6 -7 -10 -15z"/>
<path d="M3870 5436 c7 -7 13 -7 20 0 6 6 3 10 -10 10 -13 0 -16 -4 -10 -10z"/>
<path d="M2630 5398 c11 -12 18 -28 16 -35 -3 -7 3 -18 13 -25 10 -7 19 -17
19 -21 0 -5 4 -12 8 -15 4 -4 4 -1 0 6 -4 6 -2 12 4 12 6 0 13 -7 16 -15 4 -8
10 -15 15 -15 20 0 7 17 -30 40 -22 13 -38 27 -35 32 6 9 -25 58 -38 58 -5 0
1 -10 12 -22z"/>
<path d="M2598 5393 c7 -3 16 -2 19 1 4 3 -2 6 -13 5 -11 0 -14 -3 -6 -6z"/>
<path d="M2535 5380 c3 -5 8 -10 11 -10 2 0 4 5 4 10 0 6 -5 10 -11 10 -5 0
-7 -4 -4 -10z"/>
<path d="M3850 5379 c0 -5 5 -7 10 -4 6 3 10 8 10 11 0 2 -4 4 -10 4 -5 0 -10
-5 -10 -11z"/>
<path d="M3794 5359 c-4 -7 -3 -9 4 -5 5 3 13 0 15 -6 4 -9 6 -10 6 -1 1 17
-16 25 -25 12z"/>
<path d="M2624 5310 c0 -12 6 -15 20 -12 14 4 17 2 11 -8 -6 -9 -4 -11 5 -5
10 6 10 11 -3 20 -9 7 -15 14 -12 17 3 2 -1 5 -8 5 -7 0 -13 -8 -13 -17z"/>
<path d="M3815 5320 c-3 -5 -1 -10 4 -10 6 0 11 5 11 10 0 6 -2 10 -4 10 -3 0
-8 -4 -11 -10z"/>
<path d="M2675 5280 c-3 -6 1 -7 9 -4 18 7 21 14 7 14 -6 0 -13 -4 -16 -10z"/>
<path d="M1510 4079 c0 -5 5 -7 10 -4 6 3 10 8 10 11 0 2 -4 4 -10 4 -5 0 -10
-5 -10 -11z"/>
<path d="M1455 3980 c-3 -5 -1 -10 4 -10 6 0 11 5 11 10 0 6 -2 10 -4 10 -3 0
-8 -4 -11 -10z"/>
<path d="M1335 3731 c-3 -5 -2 -12 3 -15 5 -3 9 1 9 9 0 17 -3 19 -12 6z"/>
<path d="M1360 3699 c0 -5 5 -7 10 -4 6 3 10 8 10 11 0 2 -4 4 -10 4 -5 0 -10
-5 -10 -11z"/>
<path d="M1253 3435 c0 -8 4 -12 9 -9 5 3 6 10 3 15 -9 13 -12 11 -12 -6z"/>
<path d="M1109 2483 c-13 -16 -12 -17 4 -4 9 7 17 15 17 17 0 8 -8 3 -21 -13z"/>
<path d="M1115 1860 c3 -5 8 -10 11 -10 2 0 4 5 4 10 0 6 -5 10 -11 10 -5 0
-7 -4 -4 -10z"/>
<path d="M4206 1397 c-17 -12 -17 -14 1 -27 14 -11 16 -11 6 0 -10 11 -9 16 5
26 22 17 11 18 -12 1z"/>
<path d="M2512 1360 c0 -14 2 -19 5 -12 2 6 2 18 0 25 -3 6 -5 1 -5 -13z"/>
<path d="M2530 1376 c0 -3 15 -15 33 -27 l32 -22 -27 27 c-25 24 -38 32 -38
22z"/>
<path d="M4145 1347 c-14 -11 -15 -16 -5 -22 9 -5 11 -4 6 3 -4 7 -1 12 8 12
9 0 16 5 16 10 0 13 -3 13 -25 -3z"/>
<path d="M2536 1337 c3 -10 9 -15 12 -12 3 3 0 11 -7 18 -10 9 -11 8 -5 -6z"/>
<path d="M4119 1318 c-6 -20 -6 -39 0 -42 4 -3 7 6 7 20 0 20 -4 32 -7 22z"/>
<path d="M4145 1300 c-3 -6 1 -7 9 -4 18 7 21 14 7 14 -6 0 -13 -4 -16 -10z"/>
<path d="M4180 1306 c0 -2 7 -6 15 -10 8 -3 15 -1 15 4 0 6 -7 10 -15 10 -8 0
-15 -2 -15 -4z"/>
<path d="M2630 1290 c0 -5 5 -10 11 -10 5 0 7 5 4 10 -3 6 -8 10 -11 10 -2 0
-4 -4 -4 -10z"/>
<path d="M2550 1279 c0 -5 5 -7 10 -4 6 3 10 8 10 11 0 2 -4 4 -10 4 -5 0 -10
-5 -10 -11z"/>
<path d="M4180 1280 c8 -5 20 -10 25 -10 6 0 3 5 -5 10 -8 5 -19 10 -25 10 -5
0 -3 -5 5 -10z"/>
<path d="M2642 1263 c11 -3 15 -11 12 -21 -5 -14 -4 -14 4 -2 13 18 6 30 -16
29 -16 -1 -16 -2 0 -6z"/>
<path d="M2596 1235 c-9 -26 -7 -32 5 -12 6 10 9 21 6 23 -2 3 -7 -2 -11 -11z"/>
<path d="M2679 1233 c-13 -16 -12 -17 4 -4 9 7 17 15 17 17 0 8 -8 3 -21 -13z"/>
<path d="M4150 1238 c0 -4 4 -8 9 -8 6 0 12 4 15 8 3 5 -1 9 -9 9 -8 0 -15 -4
-15 -9z"/>
<path d="M4186 1223 c-6 -14 -5 -15 5 -6 7 7 10 15 7 18 -3 3 -9 -2 -12 -12z"/>
<path d="M2693 1207 c0 -7 9 -14 19 -14 10 -1 18 3 18 9 0 6 -3 8 -7 5 -3 -4
-11 -2 -18 3 -8 7 -12 6 -12 -3z"/>
<path d="M2740 1216 c0 -2 7 -7 16 -10 8 -3 12 -2 9 4 -6 10 -25 14 -25 6z"/>
<path d="M5236 1205 c4 -8 10 -15 15 -15 4 0 6 7 3 15 -4 8 -10 15 -15 15 -4
0 -6 -7 -3 -15z"/>
<path d="M1460 1199 c0 -5 5 -7 10 -4 6 3 10 8 10 11 0 2 -4 4 -10 4 -5 0 -10
-5 -10 -11z"/>
<path d="M4207 1199 c7 -7 15 -10 18 -7 3 3 -2 9 -12 12 -14 6 -15 5 -6 -5z"/>
<path d="M2797 1189 c7 -7 15 -10 18 -7 3 3 -2 9 -12 12 -14 6 -15 5 -6 -5z"/>
<path d="M1476 1182 c-3 -4 4 -9 15 -9 23 -2 25 3 4 10 -8 4 -16 3 -19 -1z"/>
<path d="M2748 1175 c4 -5 7 -13 7 -17 0 -3 3 -10 7 -14 4 -3 5 3 3 16 -3 16
0 20 11 16 8 -3 12 -2 9 3 -3 6 -14 9 -25 8 -10 -1 -16 -6 -12 -12z"/>
<path d="M3930 1179 c0 -5 5 -7 10 -4 6 3 10 8 10 11 0 2 -4 4 -10 4 -5 0 -10
-5 -10 -11z"/>
<path d="M5227 1179 c7 -7 15 -10 18 -7 3 3 -2 9 -12 12 -14 6 -15 5 -6 -5z"/>
<path d="M5260 1171 c0 -6 4 -13 10 -16 6 -3 7 1 4 9 -7 18 -14 21 -14 7z"/>
<path d="M4130 1160 c0 -5 5 -10 11 -10 5 0 7 5 4 10 -3 6 -8 10 -11 10 -2 0
-4 -4 -4 -10z"/>
<path d="M1316 1127 c3 -10 9 -15 12 -12 3 3 0 11 -7 18 -10 9 -11 8 -5 -6z"/>
<path d="M4175 1129 c-4 -6 -5 -12 -2 -15 2 -3 7 2 10 11 7 17 1 20 -8 4z"/>
<path d="M1399 1113 c-13 -16 -12 -17 4 -4 9 7 17 15 17 17 0 8 -8 3 -21 -13z"/>
<path d="M1484 1122 c4 -3 14 -7 22 -8 9 -1 13 0 10 4 -4 3 -14 7 -22 8 -9 1
-13 0 -10 -4z"/>
<path d="M2872 1125 c3 -3 16 -8 28 -10 12 -2 20 -1 16 2 -4 4 -16 8 -28 10
-12 2 -19 1 -16 -2z"/>
<path d="M2930 1122 c0 -5 7 -9 15 -9 8 0 12 4 9 9 -3 4 -9 8 -15 8 -5 0 -9
-4 -9 -8z"/>
<path d="M5210 1126 c0 -2 7 -7 16 -10 8 -3 12 -2 9 4 -6 10 -25 14 -25 6z"/>
<path d="M5347 1107 c-3 -8 1 -14 8 -14 7 0 11 6 8 14 -3 7 -6 13 -8 13 -2 0
-5 -6 -8 -13z"/>
<path d="M1270 1096 c4 -4 16 -4 26 2 16 9 14 10 -8 9 -15 -1 -23 -6 -18 -11z"/>
<path d="M2895 1091 c-3 -5 -2 -12 3 -15 5 -3 9 1 9 9 0 17 -3 19 -12 6z"/>
<path d="M3730 1096 c0 -2 8 -10 18 -17 15 -13 16 -12 3 4 -13 16 -21 21 -21
13z"/>
<path d="M4190 1096 c0 -2 7 -9 15 -16 9 -7 15 -8 15 -2 0 5 -7 12 -15 16 -8
3 -15 4 -15 2z"/>
<path d="M5387 1087 c-3 -8 0 -14 7 -14 7 0 13 6 13 14 0 7 -4 13 -8 13 -4 0
-9 -6 -12 -13z"/>
<path d="M1320 1086 c0 -2 8 -10 18 -17 15 -13 16 -12 3 4 -13 16 -21 21 -21
13z"/>
<path d="M5279 1073 c-13 -16 -12 -17 4 -4 9 7 17 15 17 17 0 8 -8 3 -21 -13z"/>
<path d="M1496 1067 c3 -10 9 -15 12 -12 3 3 0 11 -7 18 -10 9 -11 8 -5 -6z"/>
<path d="M2996 1058 c3 -5 10 -6 15 -3 13 9 11 12 -6 12 -8 0 -12 -4 -9 -9z"/>
<path d="M3078 1063 c7 -3 16 -2 19 1 4 3 -2 6 -13 5 -11 0 -14 -3 -6 -6z"/>
<path d="M3695 1060 c3 -5 8 -10 11 -10 2 0 4 5 4 10 0 6 -5 10 -11 10 -5 0
-7 -4 -4 -10z"/>
<path d="M4230 1060 c0 -5 5 -10 10 -10 6 0 10 5 10 10 0 6 -4 10 -10 10 -5 0
-10 -4 -10 -10z"/>
<path d="M5514 1057 c-4 -6 -3 -9 1 -4 5 4 17 0 27 -10 10 -9 20 -14 23 -11 3
3 -6 13 -19 22 -19 12 -27 13 -32 3z"/>
<path d="M3056 1047 c3 -10 9 -15 12 -12 3 3 0 11 -7 18 -10 9 -11 8 -5 -6z"/>
<path d="M3170 1049 c0 -5 -4 -8 -9 -4 -5 3 -12 1 -15 -4 -4 -5 2 -8 11 -7 15
3 33 26 19 26 -3 0 -6 -5 -6 -11z"/>
<path d="M5470 1046 c0 -8 4 -17 9 -20 5 -4 7 3 4 14 -6 23 -13 26 -13 6z"/>
<path d="M3086 1038 c3 -5 10 -6 15 -3 13 9 11 12 -6 12 -8 0 -12 -4 -9 -9z"/>
<path d="M3196 1038 c3 -4 11 -5 19 -1 21 7 19 12 -4 10 -11 0 -18 -5 -15 -9z"/>
<path d="M5247 1039 c7 -7 15 -10 18 -7 3 3 -2 9 -12 12 -14 6 -15 5 -6 -5z"/>
<path d="M5615 1040 c-3 -5 -1 -10 4 -10 6 0 11 5 11 10 0 6 -2 10 -4 10 -3 0
-8 -4 -11 -10z"/>
<path d="M3115 1031 c-3 -5 -2 -12 3 -15 5 -3 9 1 9 9 0 17 -3 19 -12 6z"/>
<path d="M4240 1036 c0 -2 7 -7 16 -10 8 -3 12 -2 9 4 -6 10 -25 14 -25 6z"/>
<path d="M1540 1024 c0 -1 8 -8 17 -15 9 -8 14 -9 10 -2 -4 6 -1 13 5 16 7 3
3 4 -9 4 -13 -1 -23 -2 -23 -3z"/>
<path d="M3180 1026 c0 -2 8 -10 18 -17 15 -13 16 -12 3 4 -13 16 -21 21 -21
13z"/>
<path d="M3228 1023 c6 -2 18 -2 25 0 6 3 1 5 -13 5 -14 0 -19 -2 -12 -5z"/>
<path d="M3476 1021 c-3 -5 1 -14 8 -20 10 -9 16 -9 21 -1 4 6 3 10 -2 9 -20
-3 -27 2 -13 11 9 6 10 10 3 10 -6 0 -14 -4 -17 -9z"/>
<path d="M5636 1013 c-6 -14 -5 -15 5 -6 7 7 10 15 7 18 -3 3 -9 -2 -12 -12z"/>
<path d="M5700 1026 c0 -2 8 -10 18 -17 15 -13 16 -12 3 4 -13 16 -21 21 -21
13z"/>
<path d="M5770 1019 c0 -5 5 -7 10 -4 6 3 10 8 10 11 0 2 -4 4 -10 4 -5 0 -10
-5 -10 -11z"/>
<path d="M3310 1009 c0 -5 5 -7 10 -4 6 3 10 8 10 11 0 2 -4 4 -10 4 -5 0 -10
-5 -10 -11z"/>
<path d="M3433 1005 c0 -8 4 -12 9 -9 5 3 6 10 3 15 -9 13 -12 11 -12 -6z"/>
<path d="M3535 1011 c-3 -5 -2 -12 3 -15 5 -3 9 1 9 9 0 17 -3 19 -12 6z"/>
<path d="M5549 1003 c-13 -16 -12 -17 4 -4 16 13 21 21 13 21 -2 0 -10 -8 -17
-17z"/>
<path d="M4233 993 c0 -7 4 -13 8 -13 4 0 9 6 12 13 3 8 0 14 -7 14 -7 0 -13
-6 -13 -14z"/>
<path d="M5746 1002 c-3 -5 1 -9 9 -9 8 0 12 4 9 9 -3 4 -7 8 -9 8 -2 0 -6 -4
-9 -8z"/>
<path d="M1530 979 c0 -5 5 -7 10 -4 6 3 10 8 10 11 0 2 -4 4 -10 4 -5 0 -10
-5 -10 -11z"/>
<path d="M3255 980 c3 -5 8 -10 11 -10 2 0 4 5 4 10 0 6 -5 10 -11 10 -5 0 -7
-4 -4 -10z"/>
<path d="M3426 962 c-3 -5 1 -9 9 -9 8 0 12 4 9 9 -3 4 -7 8 -9 8 -2 0 -6 -4
-9 -8z"/>
<path d="M3873 955 c0 -8 4 -12 9 -9 5 3 6 10 3 15 -9 13 -12 11 -12 -6z"/>
<path d="M1576 938 c3 -5 10 -6 15 -3 13 9 11 12 -6 12 -8 0 -12 -4 -9 -9z"/>
<path d="M4216 938 c3 -5 10 -6 15 -3 13 9 11 12 -6 12 -8 0 -12 -4 -9 -9z"/>
<path d="M4216 895 c-9 -26 -7 -32 5 -12 6 10 9 21 6 23 -2 3 -7 -2 -11 -11z"/>
<path d="M1660 889 c0 -5 -6 -7 -12 -3 -7 4 -9 3 -5 -1 13 -15 36 -14 30 1 -6
17 -13 18 -13 3z"/>
<path d="M4275 865 c0 -19 7 -40 15 -47 12 -11 12 -10 4 2 -6 8 -10 28 -9 43
1 15 -1 30 -5 32 -3 2 -6 -11 -5 -30z"/>
<path d="M4308 873 c6 -2 9 -10 6 -15 -4 -7 -2 -8 5 -4 13 9 5 26 -12 25 -9 0
-8 -2 1 -6z"/>
<path d="M4313 805 c0 -7 6 -11 14 -8 7 3 13 6 13 8 0 2 -6 5 -13 8 -8 3 -14
-1 -14 -8z"/>
<path d="M2165 800 c-3 -5 -1 -10 4 -10 6 0 11 5 11 10 0 6 -2 10 -4 10 -3 0
-8 -4 -11 -10z"/>
<path d="M4639 769 c19 -8 21 -12 11 -24 -11 -13 -10 -14 4 -9 32 12 11 45
-27 43 -7 0 -1 -5 12 -10z"/>
<path d="M4296 758 c3 -5 10 -6 15 -3 13 9 11 12 -6 12 -8 0 -12 -4 -9 -9z"/>
<path d="M2147 746 c-4 -10 -1 -13 9 -9 15 6 19 23 5 23 -5 0 -11 -7 -14 -14z"/>
<path d="M4352 734 c10 -10 20 -16 22 -13 3 3 -5 11 -17 18 -21 13 -21 12 -5
-5z"/>
<path d="M2110 721 c0 -6 4 -12 8 -15 5 -3 9 1 9 9 0 8 -4 15 -9 15 -4 0 -8
-4 -8 -9z"/>
<path d="M4707 711 c-4 -17 -3 -21 5 -13 5 5 8 16 6 23 -3 8 -7 3 -11 -10z"/>
<path d="M2400 700 c-9 -6 -10 -10 -3 -10 6 0 15 5 18 10 8 12 4 12 -15 0z"/>
<path d="M4306 682 c-2 -4 4 -8 14 -8 10 0 16 4 14 8 -3 4 -9 8 -14 8 -5 0
-11 -4 -14 -8z"/>
<path d="M4370 682 c0 -5 7 -9 15 -9 8 0 12 4 9 9 -3 4 -9 8 -15 8 -5 0 -9 -4
-9 -8z"/>
<path d="M4740 680 c-9 -6 -10 -10 -3 -10 6 0 15 5 18 10 8 12 4 12 -15 0z"/>
<path d="M4696 662 c-3 -5 1 -9 9 -9 8 0 12 4 9 9 -3 4 -7 8 -9 8 -2 0 -6 -4
-9 -8z"/>
<path d="M2096 627 c3 -10 9 -15 12 -12 3 3 0 11 -7 18 -10 9 -11 8 -5 -6z"/>
<path d="M4375 620 c3 -5 8 -10 11 -10 2 0 4 5 4 10 0 6 -5 10 -11 10 -5 0 -7
-4 -4 -10z"/>
<path d="M4424 609 c0 -13 3 -15 13 -7 7 6 13 12 13 13 0 2 -6 5 -13 8 -7 3
-13 -3 -13 -14z"/>
<path d="M5010 616 c0 -2 8 -10 18 -17 15 -13 16 -12 3 4 -13 16 -21 21 -21
13z"/>
<path d="M4953 595 c0 -8 4 -12 9 -9 4 3 8 9 8 15 0 5 -4 9 -8 9 -5 0 -9 -7
-9 -15z"/>
<path d="M4455 590 c-3 -6 1 -7 9 -4 18 7 21 14 7 14 -6 0 -13 -4 -16 -10z"/>
<path d="M4895 580 c-3 -5 -1 -10 4 -10 6 0 11 5 11 10 0 6 -2 10 -4 10 -3 0
-8 -4 -11 -10z"/>
<path d="M1660 560 c-9 -6 -10 -10 -3 -10 6 0 15 5 18 10 8 12 4 12 -15 0z"/>
<path d="M2320 560 c-9 -6 -10 -10 -3 -10 6 0 15 5 18 10 8 12 4 12 -15 0z"/>
<path d="M4480 500 c-9 -6 -10 -10 -3 -10 6 0 15 5 18 10 8 12 4 12 -15 0z"/>
<path d="M4477 473 c-10 -9 -9 -23 1 -23 5 0 9 7 9 15 0 17 -1 18 -10 8z"/>
<path d="M2096 438 c3 -5 10 -6 15 -3 13 9 11 12 -6 12 -8 0 -12 -4 -9 -9z"/>
<path d="M4435 409 c-4 -6 -5 -12 -2 -15 2 -3 7 2 10 11 7 17 1 20 -8 4z"/>
<path d="M2115 360 c3 -5 8 -10 11 -10 2 0 4 5 4 10 0 6 -5 10 -11 10 -5 0 -7
-4 -4 -10z"/>
<path d="M4486 338 c3 -5 10 -6 15 -3 13 9 11 12 -6 12 -8 0 -12 -4 -9 -9z"/>
</g>
</svg>
