<svg version="1" xmlns="http://www.w3.org/2000/svg" width="906.667" height="906.667" viewBox="0 0 680 680"><path d="M309.4 15.1c-6 1.1-19.5 5.9-22.5 8-1.4 1-3.1 1.9-3.8 2.1-.8.2-2.4 1.2-3.6 2.3-5.1 4.6-11 9-11.7 8.7-.5-.1-.7.1-.6.5.5 1.5-3.4 6.3-4.6 5.6-.6-.3-.8-.3-.4.1.3.4-1.1 3.5-3.3 6.8-2.1 3.4-3.9 6.6-3.9 7.2 0 .6-.5.4-1.1-.4-.8-1.2-.9-1-.4.8.4 1.3.2 2.8-.3 3.5-.6.7-1.7 3.9-2.6 7.2-1 3.3-2.1 6.7-2.6 7.6-.9 1.8-.7 27.7.4 32.4 1.6 7.2 8.6 22.2 12.5 26.9.9 1.1 1 1.6.4 1.2-.7-.4-1.3-.2-1.3.3 0 .6.8 1.1 1.8 1.1.9 0 2.8 1.8 4.2 3.9 1.3 2.2 2.8 3.7 3.4 3.4.5-.3.6-.1.2.5-.4.7-.3 1.2.3 1.2 1.1 0 6.1 4.7 6.1 5.7 0 .3-.7.3-1.5-.1-.8-.3-1.5-.1-1.5.4 0 .6-.3.9-.7.9-2.1-.3-4.4.2-3.9.9.2.4-.4.8-1.4.8-1 0-1.6-.5-1.4-1.1.3-.5-.2-.1-1.1 1-1.8 2.2-2.4 2.3-3.6.3-.6-.9-.9-.9-.9-.1 0 1.6-5.6 4.3-8.1 3.8-1.1-.2-1.7 0-1.4.4.2.5-.6 1.6-1.9 2.4-1.2.9-4 3.2-6.2 5.2-2.1 2.1-5.1 4.3-6.6 5.1-1.6.8-2.8 1.9-2.8 2.5 0 .6-.4.7-1 .4-.5-.3-1-.1-1 .5s-.4.8-1 .5c-.5-.3-1 .1-1 1s-.4 1.4-.9 1c-.6-.3-1.4.3-2 1.2-1 1.7-1 1.7-1.1-.2-.1-1.3-.4-1.5-.7-.6-.9 2.2-4.3 5.2-5.3 4.6-.5-.3-1.1.4-1.5 1.5-.4 1.1-1 1.8-1.5 1.5-.5-.3-1.2.4-1.5 1.6-.4 1.1-.9 1.8-1.2 1.6-.2-.3-2.4 1.5-4.8 3.9-2.5 2.4-4.9 4.4-5.5 4.4-.6 0-.9.4-.6.9.3.5-.1 1.1-.9 1.5-.8.3-1.5 1.2-1.5 2.1 0 1.3-1.8 2-4.2 1.6-.4 0-.5.6-.2 1.4.4.8-.1 1.7-1 2.1-.9.3-1.3 1.1-.9 1.7.4.6 0 .8-.9.4-1.2-.4-1.4-.1-1.1 1.4.4 1.5.2 1.8-1.3 1.2-1.3-.5-1.6-.3-1.1 1 .4 1.1.1 1.7-.8 1.7-.8 0-2.1 1.5-2.9 3.4-.8 1.9-2.2 3.9-3.3 4.5-1 .6-1.3 1.1-.8 1.1.6 0-.3.9-2 2-1.6 1.1-2.5 2-2 2 .6 0 1.7-.6 2.5-1.3.7-.6.3.2-1.1 2-1.3 1.8-2.9 3-3.5 2.8-.6-.2-1.1.4-1.1 1.3 0 3.5-.3 4.1-1.8 3.6-.8-.4-1.5-.1-1.5.5s.5 1.1 1.2 1.1c.6 0 .1.9-1.1 1.9-1.3 1.1-2 2.4-1.7 2.9.7 1.1-3 4.2-4 3.4-.5-.4-.2.2.6 1.2 1 1.3 1 1.7.3 1.2-.8-.4-1.3-.1-1.3.9 0 .9-.5 1.3-1 1-.6-.3-1 0-1 .9 0 .8-.6 1.7-1.2 1.9-1 .4-1 .6 0 .6.9.1.7 1-.8 3.1-1.2 1.6-1.8 3.5-1.4 4.1.5.8.3.9-.6.4-1-.6-1.2-.4-.7.9.4.9.3 1.5-.2 1.2-.5-.3-1.2.5-1.5 1.9-.4 1.4-1.1 2.5-1.7 2.5-.8 0-.7-.6.2-1.8 1.1-1.5 1.1-1.5-.1-.4-1.8 1.5-2 3.4-.5 4.4.6.5.5.8-.3.8-.7 0-1.1.4-.7.9.3.5-.5 1.7-1.7 2.5-2.1 1.5-1.8 2.1.7 1.6.5-.1.1.8-.9 1.9-1.6 1.7-2.2 1.9-3.5.8-1.4-1-1.4-1-.5.3 1.3 1.7 1 5.3-.5 5.8-.5.2-.7 1-.4 1.8.3.7-.2 1.7-1.1 2-1.1.4-1.3 1.1-.6 2.3.6 1.3.5 1.8-.5 1.8-.8 0-1.1-.5-.8-1 .4-.6.1-.7-.7-.2-1 .6-.9 1.1.5 2.2 1.1.7 1.3 1.3.6 1.3-.7 0-.9.6-.6 1.2.4.7-.1.4-.9-.6-1.9-2.3-2-1.8-.6 2 .9 2.3.8 2.5-.3 1.5-1.2-.9-1.3-.7-1 1.3.4 1.8 0 2.6-1.6 3.1-1.2.3-2.1 1.1-2.1 1.6 0 1.3 1.7 1.1 2.4-.4.3-.6.3-.1 0 1.2s-.7 2.9-.9 3.5c-.6 2.9-1.8 4.5-2.9 3.9-.6-.4-.4.2.4 1.2 1.3 1.7 1.3 1.8-.1 1.3-1.3-.5-1.5 0-1.4 2.8.2 1.8-.1 3.1-.6 2.8-.8-.4-1.4 3.3-1 5.8.2 1.2-1.4.9-2.8-.5-.8-.6-.6 0 .3 1.5 1.2 1.9 1.4 2.7.5 3-.7.2-1.3 1.2-1.5 2.1-.1.9.1 1.5.5 1.2.4-.2.8.2.8 1s-.4 1.2-.8.9c-.4-.2-1 0-1.4.6-.3.5 0 1 .7 1 .8 0 .9.3.3.8-.6.4-1 1.7-.9 2.9.1 1.2-.2 2-.6 1.8-.4-.3-1.1.2-1.4 1.1-.3.8-.2 1.3.2 1 .5-.3.9.2.9 1s-.6 1.3-1.4 1c-1-.4-1.1-.1-.4 1.3.6 1 .7 2.1.4 2.5-.3.3-.8 1.8-.9 3.3-.2 1.5-.8 2.9-1.4 3.1-.6.2-.4 1 .7 1.8 1.7 1.3 1.7 1.4-.1.7-1.6-.5-1.8-.3-1.3 1.1.4.9.3 1.5-.2 1.1-.5-.3-1.3 0-1.7.6-.4.7-.3.9.4.5.6-.3 1.3-.2 1.6.3.4.5.2 1.2-.3 1.6-.6.3-.7 1.3-.4 2.2.4 1 .2 1.4-.5.9-.6-.3-1.3-.2-1.7.4-.3.5.1 1 .9 1 1 0 1.3.6 1 1.5-.4.8-1.1 1.2-1.8.8-.6-.3-.6-.1.2.8 1.4 1.5 1.6 3.3.3 2.5-.5-.4-.7.3-.4 1.4.4 1.5.1 1.8-1.6 1.5-1.2-.2-1.9 0-1.6.6.4.5 1 .7 1.5.4.5-.3 1.1-.1 1.4.4.4.5.2 1.3-.4 1.6-.8.5-.7 1.2.2 2.3 1.1 1.3 1.1 1.4-.1.7-1.1-.6-1.3-.3-.9 1.3.4 1.2.1 2.2-.4 2.2-.6 0-.4.8.3 1.7 1.1 1.3 1.1 1.5.1.9s-1.3-.3-1.2 1c.1 1.1.1 2.1 0 2.4-.1.5-.8 7.2-1.3 13-.1 1.4-.6 3.1-1.1 3.9-.7 1.1-.6 1.2.5.6 1.2-.8 1.2-.6 0 .8-.8 1.1-.9 1.7-.3 1.7.6 0 .9.7.5 1.6-.5 1.3-.7 1.3-1.4.2-.6-.9-.9-.9-.9-.1 0 .7.8 1.7 1.7 2.2 1 .6 1.3 1.1.8 1.1-.6 0-1 2.1-1 4.7 0 2.7-.4 5.1-1 5.5-.6.5-.4.8.5.8 1.3 0 1.3.1 0 1-1.1.7-1.1 1-.2 1 .7 0 1 .5.7 1-.4.6-.7 4-.6 7.6 0 4.5-.3 6.3-1.1 5.8-.7-.5-.8-.2-.2.7 1.2 2 1.3 11.2.1 12.7-.7.9-.7 1.6.1 2.4 1.6 1.6 1.5 4.1 0 3.2-1-.6-1-.4 0 .7.6.7 1.2 2.4 1.2 3.9 0 2-.2 2.2-1.1 1-.9-1.2-1-1.2-.5.3.3 1 .6 2.1.6 2.3 0 .3.6.2 1.2-.2 1-.6 1-.4.3.7-1.2 1.5-1.2 12.9-.1 14.8.4.6.2 1.1-.5 1.1-1 0-1 .3-.2 1.1.6.6.9 1.7.6 2.4-.2.8.1 2.4.8 3.7 1.2 2.2 1.1 2.2-.6.8-1.7-1.4-1.7-1.3-.7.5.7 1.5.7 2.6-.1 4-1 1.9-.9 1.9.9.5 1-.8 1.6-1.1 1.2-.6-.4.5-.3 1.6.2 2.6.6 1.1.4 2.4-.6 3.8-1 1.5-1.1 2.3-.3 2.8s.9.3.4-.6c-.5-.8-.4-1.1.2-.7 1.5.9 2.3 4.6 1.2 5.3-.5.3-.9 1-.9 1.5 0 .6.5.7 1 .4.6-.3 1-.1 1 .4 0 .6-.6 1.1-1.2 1.1-.9 0-.9.3-.2.8 3 2 2.2 4.9-1.1 4.2-.5-.1-.6.2-.2.7.5.4 1.4.8 2 .8.7 0 1.2.4 1.2 1 0 .5.4 1.6.8 2.2 1.1 1.7-.5 1.7-2.3.1-1.2-1.1-1.2-1-.3.2 1.7 2.4 2.2 9.2.6 8.6-1-.4-1-.1 0 1.5 1 1.7.9 2.2-1.3 3.9l-2.5 1.9 2.3-.6c2.4-.6 2.4-.6.8 2.6-.9 1.7-1.4 3.1-1 3.1.4 0 .1.7-.6 1.5-.6.8-.8 2-.4 2.6.4.7.3.9-.3.6-.6-.4-1.7.1-2.4 1-1 1.2-1 1.4-.1.9.6-.4 1.2-.3 1.2.2 0 .6-.7 1.3-1.6 1.6-.9.4-1.4.9-1.1 1.3.4.3-.1 1.2-1.1 1.9-.9.7-1.5 1.4-1.2 1.6.3.2 1.8 1.4 3.5 2.8 1.6 1.4 2.4 1.8 1.7.9-1-1.3-.8-1.5 1.8-1.1 1.9.3 2.7.8 2.3 1.6-1 1.5-1.3 4-.5 3.1.4-.4.7-1.2.7-1.8.1-.7.7-1.1 1.4-.9.7.1 1-.2.6-.8-.3-.5-.1-1 .4-1 .6 0 1.1.4 1.1 1 0 .5.8 1 1.8 1 1.4 0 1.5-.2.2-1s-1.2-1 .3-1c.9 0 1.7.5 1.7 1.1 0 .8.5.8 1.5-.1.8-.7 2.8-1 4.4-.8 1.8.3 2.9 0 2.8-.6-.1-.6.4-1 1.1-.9.6.2 1.2-.2 1.2-.8 0-.5.5-.7 1-.4.8.5.7 1.2-.2 2.3-1.2 1.5-1.1 1.6.4.3 1-.7 1.5-1.8 1.1-2.4-.4-.7 0-.8 1.2-.3 1.6.6 1.6.4.4-1.1-1.1-1.4-1.2-1.5 0-.9.8.5 1.7.3 2.3-.5.7-1.1.9-.9.5.7-.2 1.2.1 2.1.8 2.1.7 0 1-1 .7-2.4-.3-1.8.1-2.6 1.7-3 1.2-.3 1.8-1 1.4-1.7-.4-.6.1-.5 1.1.3s1.5 2.3 1.3 3.3c-.3 1-.1 1.8.5 1.8s.8.6.5 1.4c-.3.7 0 1.9.6 2.5.6.6.7 1.1.1 1.1-.5 0-.2.5.6 1 1.3.9 1.2 1.3-.5 2.6-2 1.6-2 1.6.3.9 1.6-.5 2.2-.2 2.2 1 0 .9.9 2.5 2 3.7 1 1.2 1.7 2.5 1.4 3-.3.4 0 .8.7.8.9 0 .9.3 0 1.4-.9 1.1-.9 1.6 0 2.2.8.4.9.3.5-.4-1-1.7.3-1.5 2 .2 1.1 1.1 1.1 1.6.1 1.9-.9.4-.9.6.1.6.8.1 1 .6.6 1.3-.5.9-.2.9.9-.1.9-.7 1.7-.9 1.7-.4 0 1.5 3.6 5.3 4.4 4.6.7-.7.8-.3 1 4 .1 1.6-.2 3.1-.6 3.3-.4.3-.8 1.4-.8 2.6 0 1.4-.5 1.8-1.5 1.5-.8-.4-1.7-.2-2 .4-.4.5-.1.8.6.7 1.9-.5 2.2 2 .2 2.5-1.7.4-1.7.5 0 .6 1.5.1 1.6.3.5 1.5-.7.8-1.7 1.1-2.3.8-.5-.3-.3.3.5 1.3 1.4 1.7 1.3 1.8-.5 1.1-1.5-.5-1.7-.4-.8.5.9.9.7 1.6-.8 3.2-2.1 2.3-2.5 4.7-.8 4.7.5 0 .7-.5.3-1.2-.4-.7-.3-.8.4-.4 2.2 1.3 5.2 1.5 5.2.3 0-.7.4-.7.9.3.6.8.7 1.8.4 2.4-.3.5-.1.6.6.2.6-.4.9-1.1.6-1.6-.3-.4.2-1 .9-1.3.8-.3 1.7-.1 2 .6.3.9.5.9.5-.1.1-.6 1.2-1.2 2.5-1.2 1.4 0 2.8-.5 3.1-1 .5-.8 1.1-.7 2.1.1 1 .8 1.4.8 1.4 0 0-.6.5-1.1 1.1-1.1.5 0 .7.6.4 1.2-.4.7.1.4.9-.6.9-1.1 1.7-1.7 1.7-1.3.1.4.2 1.1.3 1.6 0 .5.4 1.3.8 1.7.4.3.6-.3.3-1.4-.3-1.9 1.4-3.3 4.5-3.7.3 0 1.1-.4 1.9-.9 1.1-.7 1.3-.5.8.7-.3.9-.3 1.8.1 2.1.4.3.9-.5.9-1.6.1-1.2.7-2.6 1.4-3.2.9-.8 1-.8.4.2-.6 1.1-.3 1.1 1.6 0 1.3-.7 2.8-1.9 3.2-2.6.5-.7 1.3-1 1.8-.7.5.4.6 1.1.3 1.7-.4.7-.2.8.4.4.6-.4.8-1.4.5-2.3-.4-1.1-.3-1.4.5-.9.7.4 1.2.2 1.2-.3 0-.6.5-1.1 1.1-1.1.5 0 .7.5.3 1.2-.4.7-.3.8.4.4.6-.4.8-1.4.5-2.4-.6-1.5-.3-1.4 1.8.3 1.3 1.1 1.8 1.3 1.2.5-1.8-2-1.6-3.5.3-1.9 1.3 1.1 1.5 1.1 1.2-.2-.1-.8.7-2.4 2-3.7l2.2-2.2v3c0 1.7-.5 3-1.2 3-.9 0-.9.3-.3.8 1.2.8 1.3 2.2.2 4-.5.6-.5 1.7-.1 2.4.5.8 0 .9-1.5.5-1.8-.4-2-.3-1 .9.6.7 1.5 1.2 1.9.9.5-.3.3.6-.3 1.9-.7 1.5-1.6 2.1-2.2 1.6-.7-.6-1.1-.2-1.1 1 0 1 .3 1.7.7 1.4.4-.2.5.5.2 1.6s-1 1.7-1.6 1.3c-.6-.4-.8.2-.4 1.6.4 1.7.2 2.1-.9 1.7-.9-.3-1.2-.1-.9.4.3.6.1 1-.5 1s-.8.5-.4 1.1c.4.8.9.7 1.5-.2.6-1 .8-.7.6.9 0 1.2-.6 2.2-1.2 2.2-.5 0-.3.5.5 1 1 .7 1.1 1 .2 1-.9 0-.8.7.5 2.6 1.3 2.1 1.4 3 .5 4.5-1.7 2.6-1.5 3.7.2 1.4 1.3-1.8 1.4-1.8 2.4.2.6 1.1.9 2.3.6 2.6-.3.3.2.4 1.3.3 1-.2 2.3.1 3 .6.7.5 1.8.6 2.4.2.7-.4.9-.3.5.4-.4.6.1 1 1.3.9 1.6-.1 1.8-.5 1-1.9-.5-1-1.4-1.8-1.9-1.8s-.7-.7-.4-1.5c.4-.8.2-1.5-.3-1.5-.8 0-1.1-10-.3-10.8.1-.1.3-.5.4-1 .2-1.3 3.6-5.7 3.6-4.7 0 .6.5.2 1.1-.8.9-1.5 1.3-1.6 2.7-.5 1.5 1.2 1.6 1.1.4-.4-1.2-1.5-.9-2.2 2.1-5.2 1.9-1.9 3.2-3.7 2.9-4-.3-.3 0-.6.7-.6s1-.4.7-.9c-.3-.5 0-1.1.8-1.4.8-.3 1.6-1.6 1.8-2.9.2-1.5.9-2.2 2.2-2.1 1.2.1 1.5-.2.8-.9-1.1-1.1 1.2-8.4 2.7-8.1.5.2.8-.5.6-1.5-.1-1 .5-3.4 1.5-5.5 1-2 1.4-3.4.8-3.1-.6.4-.5-.3.1-1.5.7-1.2.9-2.5.6-3-.3-.5.3-1.2 1.2-1.4 1.6-.4 1.6-.5.1-.6-1.1-.1-1.5-.7-1.1-2.1.3-1.1.9-2 1.5-2 .5 0 .5-.7-.1-1.8-.5-1-.6-2.3-.2-3 .3-.6.6-5.4.5-10.6-.1-5.3.2-9.3.7-9.1.4.3 1.1.1 1.4-.5.4-.6.3-1-.2-.9-2.2.4-3-.3-2.9-2.8.1-1.6-.2-3.6-.6-4.5-.5-.9-.4-2 .2-2.3.6-.3 1.4.2 1.8 1.2.4 1 1.3 1.9 2 2.1.8.1 2.9 1.5 4.8 3 3.1 2.4 3.3 2.8 1.7 4-1 .7-1.2 1.2-.4 1.2.7 0 .9.4.6 1-.3.6.1.7 1 .3 1.2-.4 1.3-.8.5-1.3-.9-.6-.9-.9 0-1.5.7-.4 2.6.8 4.8 3.1 1.9 2.2 3.2 3.3 2.8 2.7-.5-.9-.2-1.1.8-.7.9.3 1.6 1.2 1.6 2s.6 1.1 1.7.7c1.2-.5 1.4-.3.8.7-.6 1-.4 1.2.8.7.8-.3 2.1 0 2.7.8.6.7 2.2 1.6 3.5 1.9 1.4.4 2.5 1.1 2.5 1.7 0 .6.5.7 1 .4 1-.6 1.4.6 1.1 3.5-.2 1.3-.1 1.3.8 0 .5-.8.7-1.8.5-2.2-.3-.5.6-.3 2 .4 1.4.6 2.6 1.5 2.6 2s.6.8 1.3.7c.6-.1 2.5.1 4 .6 2.1.5 2.7 1.2 2.4 2.5-.5 1.9.7 2 4.6.5 1.2-.5 1.7-.2 1.7 1s-.5 1.5-1.7 1c-1.5-.5-1.6-.4-.5.7s1.5 1 2.5-.2c1.2-1.6 5.7-1.5 5.7 0 0 .5.8.6 1.8.3 1.5-.6 1.5-.5.3 1s-1.2 1.7.3 1.1c.9-.3 1.6-1 1.6-1.5 0-.6 1-.4 2.3.2 1.2.7 2.4 1.2 2.7 1.1 1.5-.5 7 1.2 7 2.2 0 .6.5.4 1-.4.6-.9 1-1 1-.3s1.3 1 3.3.9c4.2-.4 8.1 1 7.1 2.5-.4.8-.3.9.5.5.6-.4.8-1.2.5-1.8-.5-.7.4-.9 2.5-.6 1.7.2 3.1.1 3.1-.3s1.5-.6 3.3-.5c1.7.2 3.5-.1 3.8-.6.3-.5 2.4-1 4.6-1.1 2.3-.1 3.9-.5 3.6-1-.7-1.2 1.2-.8 2.6.5 1 1.1 1.1 1 .7-.2-.4-1.1 1.3-2.2 6.5-4.2 3.9-1.6 7.6-2.5 8.2-2.1.6.4.7.1.2-.7-.6-1-.3-1.2 1.3-.8 1.2.4 2 .2 1.6-.3-.5-.8 2.8-2.6 5-2.7.5 0 1.3-.7 1.8-1.6.5-.9 1.3-1.6 1.9-1.6.5 0 3.2-1.6 5.9-3.5s5.5-3.6 6.2-3.7c.7-.2 2.2-1.3 3.3-2.6 1.1-1.2 2.4-2.2 2.7-2.2.4 0 2.2-1.4 4-3l3.3-3.1 2.2 2.8c1.3 1.5 2.3 2.3 2.3 1.7 0-.6-.7-1.7-1.5-2.4-2.1-1.8-1.9-2.6 1.4-4.9l2.9-2.1-.5 3.2c-1 5.5-.4 21.8.7 21.8.3 0 .6 1.3.6 2.9.1 2.3-.2 2.8-1.5 2.4-1-.3-.8.1.6 1.4 1.2 1 2.3 2.9 2.5 4.3.2 1.4.7 3.1 1.1 3.7.5.7.5 1.3 0 1.3-.4 0-.1.5.7 1 1.2.7 1.3 1.3.3 2.7-.6 1-1.6 1.7-2.2 1.6-.6-.2-1.1.2-1.1.7 0 1.4 1.3 1.3 2.8-.2.9-.9 1.2-.9 1.2.1 0 .7.5.9 1.3.5.8-.5.8-.3-.2.9-.7.9-1.7 1.5-2 1.2-.4-.2-.8.2-.8 1s.4 1.2.9.9c.4-.3.8 0 .8.5 0 .6.5 1.1 1.1 1.1.8 0 .8-.5-.1-1.5-.7-.9-.8-1.5-.2-1.5.9 0 2.1 1.9 2.7 4.2.2.5.4 1.1.5 1.5.1.5.2 1.1.1 1.5 0 .5.4.8.9.8.6 0 1 .9 1 2s.5 2 1 2c.6 0 1 .9 1 2s.5 2 1 2c.6 0 1 .9 1 2s.5 2 1 2c.6 0 1 .8 1 1.7 0 1.6-.2 1.6-1.1.3-.9-1.3-1-1.3-.6 0 .2.8 1.1 1.4 2.1 1.2.9-.2 1.6.4 1.6 1.3 0 .8.4 1.5.9 1.5s1.2.8 1.5 1.7c.5 1.3 0 1.1-1.9-.7-1.4-1.3-2.4-1.8-2-1 .3.8 2.1 2.5 4 3.8 3.6 2.3 4.5 4.6 2.3 5.6-.7.3-.3.3 1 0 1.6-.4 2.2-.1 2.2 1.1 0 .9.6 2.3 1.4 3 .7.8 1.3 2.4 1.2 3.7-.1 1.3.3 2.6.9 3 .7.5.6 1.4-.3 2.9-.7 1.1-1.1 2.4-.8 2.7.3.3.6 0 .6-.6 0-.7.4-1.2 1-1.2.5 0 .7.7.3 1.6-.3.9 0 2 .8 2.5 1.2.7 1.2.9 0 .9-.7 0-1.1.6-.7 1.5.3.8 0 1.5-.7 1.5-.8 0-.6.4.3 1 1.2.7 1.2 1 .1 1-.8 0-1.1.6-.7 1.6.3.8.2 1.2-.4.9-.6-.3-1-.1-1 .4 0 .6.6 1.1 1.3 1.1.9 0 .8.3-.2.9-.7.5-1 1.4-.7 2 .4.6.3 1.1-.3 1.1s-1.7 1.4-2.6 3c-.9 1.7-1.1 3-.5 3 .5 0 1-.5 1-1 0-.6.9-1 2.1-1 1.5 0 1.9-.5 1.5-1.5-.3-.9 0-1.5.9-1.5.8 0 1.5-.5 1.5-1.1 0-.5.5-.7 1.2-.3.7.4.8.3.4-.5-.4-.6 0-1.8.8-2.7.9-.9 1.3-2.1.9-2.7-.4-.7 0-.8 1.3-.3 1.4.5 1.6.4.8-.4-1.2-1.2-.7-5.3.6-4.5.4.2.6-.8.4-2.3-.1-1.4.2-3.2.7-3.8.7-.8.6-1.4-.1-1.9-.5-.3-1-1.1-1-1.6 0-.6.6-.7 1.3-.3.9.6.9.4.1-.7-.6-.8-1.2-2.1-1.3-2.9-.2-2.8-.9-7.5-1.1-7.5-.1 0-.3-2-.5-4.5-.1-2.5-.8-4.6-1.5-4.8-.8-.3-.4-1 1.1-1.9 1.3-.8 1.6-1.2.7-.9-1.2.3-1.8 0-1.8-1 0-.9.5-1.2 1.3-.8.7.5.6 0-.3-1.1-1.4-1.7-1.3-1.8.5-1.2 1.7.6 1.6.4-.4-1.1-1.6-1.3-2-2.1-1.2-2.6.9-.6.9-1.1.1-2.1-.8-.9-.7-1.4.4-1.8.9-.4 1.8-.1 2.2.5.5.7.2.8-.6.3-.9-.5-1.1-.4-.6.4.4.6 1.2.9 1.7.5.6-.3 2.4.9 4 2.7 1.7 1.9 3.8 3.4 4.7 3.4 1.2 0 1.6.7 1.5 2.5-.3 2.3-.2 2.4 1.1.7s1.5-1.6 2.4 1.3c.6 1.6 1.3 3 1.6 3 .3 0 .1-1.1-.4-2.5s-.6-2.5-.2-2.5c.4 0 1.3 1.4 1.9 3 .6 1.7 1.7 2.9 2.4 2.8.7-.2 1.3.3 1.4 1.1 0 .8.7 1.6 1.5 1.8 1.3.4 1.3.3 0-.6-.8-.6-1.1-1.1-.6-1.1.5 0 .3-.7-.4-1.5s-1.6-1.3-2-1c-.4.3-1.1-.2-1.4-1.1-.4-1-.2-1.4.6-1 .7.3 2.1.9 3.1 1.2.9.4 1.7 1.1 1.7 1.6s.8.8 1.8.6c1-.2 1.6.2 1.4 1-.2.9.2 1.1 1 .6 1.9-1.2 3.8-1.4 3.8-.4 0 .5-.5 1.2-1 1.5-.6.3-1 .1-1-.6s-.3-1-.6-.6c-1.2 1.2.7 2.8 2 1.8.7-.6 1.7-.7 2.1-.3.5.4.4 0 0-.8-.7-1.2-.6-1.3.7-.3.8.7 1.8 1 2.1.6.4-.3.7-.1.7.6s.5.9 1.2.5c1.5-1 5.8-1.2 5.2-.3-.2.4.5.9 1.6 1.2 1.1.3 2 0 2.1-.6 0-.7.4-.3.9.8.8 1.8.9 1.8.9.2.1-1.4.5-1.6 1.9-.8 1 .5 2.2.7 2.8.3 1.3-1 1.7-3.5.4-2.7-.6.4-1-.6-1-2.4 0-1.7-.4-3.1-1-3.1-.5 0-1-1-1-2.3 0-1.2-.7-3.1-1.5-4.1-1.8-2.3-2-4-.4-3 .6.3.3-.5-.6-2-1-1.5-1.5-2.9-1.2-3.3.4-.3-.1-1.2-1.1-2-1-.9-1.1-1.1-.2-.7 1.3.7 1.3.5.2-.9-.8-.9-1.1-2.1-.7-2.7.3-.5 0-1-.7-1-.9 0-.9-.3.2-1 .8-.5 1.1-1 .6-1-.6 0 .5-1.6 2.4-3.5s3-3.5 2.4-3.5c-.5 0-.1-.5.9-1.1.9-.5 1.7-1.7 1.7-2.4 0-.8.5-1.5 1-1.5.6 0 1-.9 1-2.1 0-1.1.4-1.7 1-1.4.6.4.7-.1.3-1.1-.5-1.4-.3-1.6 1.2-1.1 1.4.6 1.6.5.6-.7-.9-1.1-.9-1.7.2-2.8.8-.7 1.3-2.1 1.1-3.1-.1-.9.2-1.9.6-2.2.5-.3.7-1.2.3-2-.4-1.1.2-1.5 2.2-1.5 1.4 0 2.4.3 2.1.8-.2.4.2 1.8 1 3.2l1.5 2.5-.7-2.5c-.6-2.3-.6-2.3 1-.7 1.3 1.2 1.4 2.1.7 3.5-1.4 2.7-.3 3.4 2.8 1.7 1.9-.9 3.1-1 4.2-.3 1.1.8 1.1.9-.3.5-.9-.3-2.4.3-3.5 1.6-1.8 2.1-1.8 2.1.1.7 2.1-1.6 6.7-1.4 7.8.4.4.6.8.7.8.3 0-.4 1-.2 2.3.5 1.2.7 2.8 1.1 3.5 1 .6-.2 1.2.1 1.2.6 0 1.5-4.4.9-5.8-.8-1.1-1.3-1.2-1.2-.4.5 1.1 2.1 6.2 2.9 7.4 1.1.5-.7.8-.7.8-.1s1.2 1.2 2.7 1.3c1.5.1 3 .8 3.5 1.5.6.9.8.8.9-.3 0-1 .3-.8.9.5l.9 2v-2c.1-1.5.3-1.7 1-.7.4.8 1.1 1.3 1.5 1.3.3-.1.9 0 1.4 0 .4.1 1.5 0 2.6-.1s1.5.3 1.2.9c-.4.6-.2 1.1.3 1.1.6 0 1.1-.4 1.1-.9s1.1-.9 2.5-.9c1.3 0 2.2.4 1.9.9-.3.5 0 .9.5.9.6 0 1.1-.4 1.1-1 0-.5 1.4-.8 3-.6 1.7.2 3 .1 3-.3 0-.3 1.7-.6 3.8-.5 2 0 4.3-.4 4.9-.9.7-.5 2-.7 2.8-.3.8.3 1.5.1 1.5-.4 0-.6.3-.9.8-.9 3 .5 3.2-.3.8-2.7-1.4-1.5-2.6-3.1-2.6-3.5 0-.5-.7-.9-1.6-.9-1.1 0-1.4-.5-1-1.7.4-1 .4-1.4 0-1.1-.8.8-3.4-1.6-3.4-3.2 0-.6-.4-.8-1-.5-.5.3-1-.1-1-1 0-.8-.7-1.8-1.5-2.1-1.4-.6-3.1-4.1-2.7-5.7.1-.5-.2-.6-.8-.2-.5.3-1 .1-1-.5s-.5-.8-1-.5c-.6.4-.9.3-.8-.2.2-.4-.6-2.4-1.8-4.3-1.1-1.9-2.1-3.8-2.2-4.3-.1-.4-1.1-1.6-2.2-2.7-1.2-1.2-1.8-2.5-1.5-3 .3-.5.1-1.1-.5-1.5-.6-.4-.7-1.1-.4-1.7.4-.7.2-.8-.4-.4-1.1.6-1.4 0-1.1-2 0-.4-.4-1-.9-1.3-.6-.3-1.2-1.5-1.4-2.6-.1-1.1-.9-2.6-1.6-3.4-.7-.7-1.1-2-.8-2.7.3-.8.1-1.4-.5-1.4s-.7-.5-.4-1c.3-.6.1-1-.5-1s-.8-.4-.5-1c.3-.5.2-1-.3-1-.8 0-1-.6-1.4-5-.1-1.1-.6-2-1-2s-.7-.8-.7-1.8c0-1.9-.4-3.8-1.6-6.6-.5-1.1-.3-2.1.4-2.6 1-.5.9-.9-.3-1.3-1-.4-1.4-1.8-1.3-4.6.2-2.3-.1-4.1-.5-4.1s-.8-.9-.8-2.1c0-1.3.4-1.8 1.2-1.3.8.5.8.3.2-.7-1.2-1.8-1.4-18.8-.3-19.5.5-.3.4-1.4-.2-2.6-.8-1.5-.8-1.9 0-1.4.9.6 1.7-2.8 1.2-5.6 0-.5.4-.8 1-.8.5 0 .8-.4.5-.8-.3-.5 0-2.6.6-4.8 1.5-5.1 1.5-5.1 1.7-7 0-.8.5-1.3.9-1 .5.3.9-.1.9-.9s-.5-1.1-1.1-.8c-.6.4-.5-.1.3-1 .7-.9 1.1-2.4.7-3.2-.3-.8-.1-1.5.4-1.5s.8-1.4.6-3c-.2-1.7 0-3 .5-3 .4 0 .6-.9.4-2-.2-1.1.2-2 .8-2 .7 0 .6-.4-.3-1-1.2-.8-1.3-1.1-.1-1.9 1.1-.7 1.1-.9 0-1.4-.8-.3-.9-.6-.3-.6.8-.1.9-1.2.4-3.6-.5-2.2-.4-3.7.3-4.2.6-.4.7-.1.2.7-.5.9-.4 1.1.4.6.9-.6.9-1.1 0-2.2s-.8-1.4.2-1.4c.9 0 1-.3.4-.8-.6-.4-1-5.1-1-10.7 0-7.4-.4-10.5-1.5-11.9-.9-1.2-1-1.6-.2-1.2.7.4 1.2.1 1.2-.8s-.3-1.6-.7-1.6c-.5 0-.9-1.7-.9-3.8-.2-6.3-.7-9.6-1.7-11-.6-.8-.5-1.2.4-1.2 1.2 0 1.2-.2 0-.9-.7-.5-1.1-1.3-.7-1.9.3-.6.2-1.3-.3-1.6-.5-.4-.8-1.7-.6-3.1.1-1.4-.1-2.5-.5-2.5-.5 0-.7-1.1-.5-2.5.1-1.7-.3-2.5-1.4-2.5-.9 0-1.2-.3-.6-.8 1.2-.8 1.5-5.3.3-4.6-.4.3-.8-.6-.8-2s-.6-2.6-1.2-2.6c-.9 0-.8-.4.2-1s1.1-1 .3-1c-.7 0-1.3-.7-1.3-1.6 0-.8-.4-1.3-.8-1-.5.3-.9-.1-.9-.9s.5-1.2 1-.8c.5.3.2-.6-.7-1.9-.9-1.4-1.3-2.8-.9-3.1.3-.4.2-.7-.3-.7s-1.1-1.2-1.2-2.8c-.1-1.5-.7-2.9-1.2-3-.6-.2-.8-.8-.4-1.3.3-.5.1-.9-.5-.9-.5 0-.8-1.1-.7-2.5.2-1.3-.1-2.2-.5-1.9-.5.3-.9-.1-.9-1 0-.8-.6-1.7-1.2-1.9-1-.4-1-.6 0-.6 1-.1 1-.5-.2-1.7-.9-.8-1.4-2-1.1-2.5.4-.5.1-.9-.6-.9s-.9-.3-.6-.7c.4-.3-.1-1.5-1-2.6-1.3-1.5-1.4-1.8-.3-1.2 1.1.6 1 .3-.3-1.2-.9-1.1-1.4-2.3-1-2.6.3-.4.1-.7-.5-.7-.7 0-1.2-.9-1.2-2s-.5-2-1.1-2c-.5 0-.7-.5-.4-1 .3-.6.1-1-.5-1-.7 0-1-.6-.8-1.2.3-.7-.1-1.9-.9-2.6-.7-.8-1.1-1.8-.8-2.3.4-.5-.1-.6-.9-.3-1.1.4-1.3 0-.9-1.5.3-1.2.1-2.1-.6-2.1-.6 0-1.1-.7-1.1-1.5s-.3-1.5-.8-1.5c-.4 0-1.3-.9-2-2.1-.8-1.2-.9-1.8-.3-1.4.6.3 1.1.1 1.1-.4 0-.6-1-1.1-2.2-1.1-1.9 0-2-.2-.8-1 1.3-.9.8-1.4-1.1-1.2-.4.1-.5-.8-.2-1.8.3-1.1 0-2-.6-2s-1.1-.7-1.1-1.5-.9-2-1.9-2.7c-1.1-.7-1.7-1.8-1.3-2.7.4-1 .1-1.3-1.1-.8-1.5.6-1.6.4-.6-1.4.6-1.2.7-1.9.1-1.5-.5.3-1.3-.1-1.6-1-.3-.8-1-1.2-1.6-.9-.6.3-.7-.1-.4-.9.4-.9 0-1.8-.9-2.2-.9-.3-1.3-1.2-1-2.1.4-1.1.2-1.4-.5-.9-1.1.7-1.7-.6-1.3-2.7.1-.5-.3-.6-.8-.3s-1.1-.4-1.4-1.5c-.3-1.2-1-1.8-1.6-1.5-.6.4-.8-.2-.6-1.4.2-1.1 0-1.8-.6-1.5-.5.4-.9.1-.9-.5s-.4-.9-.9-.5c-.6.3-.8-.4-.6-1.6.3-1.5 0-1.9-1.1-1.5-.8.3-1.3.2-1-.3.3-.5-.1-1.4-1-2.1-.8-.7-1.3-1.9-1-2.6.3-.8 0-1.1-.9-.8-1.4.6-4.9-4.8-3.8-5.9.3-.4-.4-.5-1.5-.2-1.5.2-1.9 0-1.5-1.1.3-.8 0-1.4-.7-1.4-.6 0-.8-.5-.5-1 .3-.6-.1-1-1-1-1.1 0-1.5-.5-1.1-1.6.3-.8.2-1.3-.2-1.1-.9.6-3.3-1.9-2.5-2.7.4-.3-.1-.6-1-.6s-1.7-.6-1.7-1.4c0-.8-1.5-2.3-3.2-3.5-1.8-1.1-3-2.1-2.5-2.1.4 0-.9-1.6-2.9-3.5-2-2-4.1-3.2-4.7-2.8-.7.4-.5-.2.3-1.2s1-1.6.3-1.2c-.7.5-2.6-.7-4.6-2.7-1.9-1.9-3.8-3.2-4.1-2.9-.3.4-.6.1-.6-.6s-.4-.9-1-.6c-.5.3-1-.2-1-1.1 0-1-.3-1.4-.6-1.1-.4.4-1.5-.3-2.5-1.5-1.3-1.4-1.9-1.7-1.9-.7-.1.8-.7.3-1.5-1.1-.8-1.4-1.4-2.1-1.5-1.6 0 .5-.6.3-1.3-.3-.8-.6-1.7-.8-2-.4-.4.3-.7-.1-.7-1.1 0-.9-.4-1.5-.9-1.1-.5.3-1.6-.1-2.4-.9-.8-.8-1.7-1.2-2.1-.9-.3.4-.6.1-.6-.5 0-.9-4-2.8-4.8-2.3-.2.1-1-.6-1.9-1.6-.8-1-1.1-1.1-.7-.3.6 1.2.4 1.2-1.2-.1-1-.9-2.9-2-4.2-2.4-1.2-.3-2-1-1.7-1.5.3-.5-.4-.7-1.5-.5-1.1.2-2-.1-2-.7 0-.5-.7-.8-1.5-.4-.8.3-1.5.1-1.5-.5s-.7-.9-1.5-.5c-.8.3-1.5.1-1.5-.4s-1.1-1.2-2.5-1.6c-1.4-.3-2.5-1.1-2.5-1.8 0-.6-.5-.4-1 .4-.6.9-1.3 1.1-1.7.5-.5-.6-1.9-1.6-3.2-2.3-1.9-1.1-2.2-1.1-1.6 0 .6 1 .5 1.1-.6 0-.7-.6-2.1-1.2-3.1-1.2s-1.8-.5-1.8-1.1c0-.6-.8-.8-1.9-.4-1.1.3-2.2.1-2.5-.4-.4-.6-1.3-.8-2.1-.4-.8.3-1.5 0-1.5-.6s-.5-1.1-1.1-1.1c-.5 0-.7.6-.3 1.2.5.8 0 .7-1.1-.2-1-.8-2.6-1.4-3.7-1.2-1 .2-1.8-.2-1.8-.7 0-.6-.3-1-.7-1-3.6.6-7.2-.3-7.6-1.9-.4-1.7 6.5-9.2 8.5-9.2.5 0 .6-.5.3-1-.3-.6.4-1.4 1.7-1.9 1.3-.6 1.9-1 1.5-1-1.5-.2 1.4-4.1 3.1-4.2 1 0 1.2-.3.4-.6-.9-.3-.8-1.1.6-3.1 4.2-6.1 10.2-21.9 10.2-27 0-1.2.5-2.2 1.1-2.2.6 0 .7-.5.2-1.3-1-1.6-.4-5.8 1-7.6.9-1.2.9-1.3-.1-.7-1 .6-1.3-.2-1.1-3.6.1-2.3 0-5-.2-5.8-.2-.8.2-1.4.9-1.2.8.1 1.1-.2.7-.8-.3-.6-1.1-.8-1.6-.5-.8.5-1.4-2.3-1-4.7 0-.4-.6-2.5-1.4-4.7-.8-2.3-1.4-4.2-1.4-4.4.1-.1-.6-2-1.5-4.2s-1.6-4.4-1.5-4.9c0-.5-.3-1.2-.8-1.5-1.1-.8-7.3-10-7.3-10.9-.1-.4-1.9-2.5-4-4.7-3.2-3.2-3.7-4.2-2.7-5.5 1-1.3 1-1.3-.3-.3s-2.3.5-5.8-2.6c-2.3-2.1-4.2-3.6-4.2-3.4 0 .3-1.5-.6-3.4-2.1-1.9-1.4-3.9-2.6-4.5-2.6-.6 0-1.1-.5-1.1-1 0-.6-.3-.9-.7-.8-1.1.3-8.3-2.5-8.3-3.2 0-.3-.8-.6-1.7-.6-1-.1-2.9-.4-4.3-.7-12.4-2.8-24.7-3.4-34.6-1.6zM372 152c0 .5-.2 1-.4 1-.3 0-.8-.5-1.1-1-.3-.6-.1-1 .4-1 .6 0 1.1.4 1.1 1zm161.5 410.9c.3.6-.4 1.5-1.5 2.1-2 1.1-2.1 1-1-.9 1.2-2.3 1.6-2.5 2.5-1.2zM302 568.4c0 .3-.4.8-1 1.1-.5.3-1 .1-1-.4 0-.6.5-1.1 1-1.1.6 0 1 .2 1 .4z"/><path d="M243 89.4c0 .2.7.7 1.6 1 .8.3 1.2.2.9-.4-.6-1-2.5-1.4-2.5-.6zm2.3 13.1c0 .8.4 1.2.9.9.5-.3.6-1 .3-1.5-.9-1.3-1.2-1.1-1.2.6zm-1.8 3.4c-.3.5-.2 1.2.3 1.5.5.3.9-.1.9-.9 0-1.7-.3-1.9-1.2-.6zm2.1 6.3c.3.5 1 .6 1.5.3 1.3-.9 1.1-1.2-.6-1.2-.8 0-1.2.4-.9.9zm2.3 1c-.5 1.8-.6 3.8-.1 3.4.7-.8 1.2-3.6.6-3.6-.2 0-.4.1-.5.2zm1.1 4.9c0 .5.5.7 1 .4.6-.3 1-.8 1-1.1 0-.2-.4-.4-1-.4-.5 0-1 .5-1 1.1zm1 2.4c-1.1 1.3-1 1.4.4.9.9-.3 1.6-1 1.6-1.5 0-1.3-.6-1.1-2 .6zm-2 3.5c-.9.6-1 1-.3 1 .6 0 1.5-.5 1.8-1 .8-1.2.4-1.2-1.5 0zm2.6 1.9c-.4.5.4.7 1.6.3 2.3-.5 2.3-.5.4 1.6-1.1 1.2-1.6 2.2-1.1 2.2.4 0 .1.8-.6 1.7-1.3 1.6-1.2 1.7.3.4 1-.7 1.6-1.7 1.3-2.1-.3-.4.2-1.3 1-2s1.2-1.6.9-2.1c-.7-1.2-3.1-1.2-3.8 0zm4 2.9c-.3.5.1.9.9.9s1.2-.4.9-.9c-.3-.4-.7-.8-.9-.8-.2 0-.6.4-.9.8zm139 1.4c.3.5 1 .6 1.5.3 1.3-.9 1.1-1.2-.6-1.2-.8 0-1.2.4-.9.9zm-137.4 3.3c-1.7 3.7-1.4 4.5.4 1.2.9-1.6 1.4-3.1 1.1-3.3-.2-.2-.9.7-1.5 2.1zm1.4 2c-.3.8-.1 1.5.4 1.5.6 0 1-.7 1-1.5s-.2-1.5-.4-1.5-.6.7-1 1.5zm129.4.9c.7.7 1.3.7 2 0 .6-.6.3-1-1-1s-1.6.4-1 1zm-124 3.8c1.1 1.2 1.8 2.8 1.6 3.5-.3.7.3 1.8 1.3 2.5s1.9 1.7 1.9 2.1c0 .5.4 1.2.8 1.5.4.4.4.1 0-.6-.4-.6-.2-1.2.4-1.2.6 0 1.3.7 1.6 1.5.4.8 1 1.5 1.5 1.5 2 0 .7-1.7-3-4-2.2-1.3-3.8-2.7-3.5-3.2.6-.9-2.5-5.8-3.8-5.8-.5 0 .1 1 1.2 2.2zm-3.2.5c.7.3 1.6.2 1.9-.1.4-.3-.2-.6-1.3-.5-1.1 0-1.4.3-.6.6zm-6.3 1.3c.3.5.8 1 1.1 1 .2 0 .4-.5.4-1 0-.6-.5-1-1.1-1-.5 0-.7.4-.4 1zm131.5.1c0 .5.5.7 1 .4.6-.3 1-.8 1-1.1 0-.2-.4-.4-1-.4-.5 0-1 .5-1 1.1zm-5.6 2c-.4.7-.3.9.4.5.5-.3 1.3 0 1.5.6.4.9.6 1 .6.1.1-1.7-1.6-2.5-2.5-1.2zm-117 4.9c0 1.2.6 1.5 2 1.2 1.4-.4 1.7-.2 1.1.8-.6.9-.4 1.1.5.5 1-.6 1-1.1-.3-2-.9-.7-1.5-1.4-1.2-1.7.3-.2-.1-.5-.8-.5-.7 0-1.3.8-1.3 1.7zm119.1-1c-.3.5-.1 1 .4 1 .6 0 1.1-.5 1.1-1 0-.6-.2-1-.4-1-.3 0-.8.4-1.1 1zm-114 4c-.3.6.1.7.9.4 1.8-.7 2.1-1.4.7-1.4-.6 0-1.3.4-1.6 1zM151 272.1c0 .5.5.7 1 .4.6-.3 1-.8 1-1.1 0-.2-.4-.4-1-.4-.5 0-1 .5-1 1.1zm-5.5 9.9c-.3.5-.1 1 .4 1 .6 0 1.1-.5 1.1-1 0-.6-.2-1-.4-1-.3 0-.8.4-1.1 1zm-12 24.9c-.3.5-.2 1.2.3 1.5.5.3.9-.1.9-.9 0-1.7-.3-1.9-1.2-.6zm2.5 3.2c0 .5.5.7 1 .4.6-.3 1-.8 1-1.1 0-.2-.4-.4-1-.4-.5 0-1 .5-1 1.1zm-10.7 26.4c0 .8.4 1.2.9.9.5-.3.6-1 .3-1.5-.9-1.3-1.2-1.1-1.2.6zm-14.4 95.2c-1.3 1.6-1.2 1.7.4.4.9-.7 1.7-1.5 1.7-1.7 0-.8-.8-.3-2.1 1.3zm.6 62.3c.3.5.8 1 1.1 1 .2 0 .4-.5.4-1 0-.6-.5-1-1.1-1-.5 0-.7.4-.4 1zm309.1 46.3c-1.7 1.2-1.7 1.4.1 2.7 1.4 1.1 1.6 1.1.6 0s-.9-1.6.5-2.6c2.2-1.7 1.1-1.8-1.2-.1zM251.2 544c0 1.4.2 1.9.5 1.2.2-.6.2-1.8 0-2.5-.3-.6-.5-.1-.5 1.3zm1.8-1.6c0 .3 1.5 1.5 3.3 2.7l3.2 2.2-2.7-2.7c-2.5-2.4-3.8-3.2-3.8-2.2zm161.5 2.9c-1.4 1.1-1.5 1.6-.5 2.2.9.5 1.1.4.6-.3-.4-.7-.1-1.2.8-1.2s1.6-.5 1.6-1c0-1.3-.3-1.3-2.5.3zm-160.9 1c.3 1 .9 1.5 1.2 1.2.3-.3 0-1.1-.7-1.8-1-.9-1.1-.8-.5.6zm158.3 1.9c-.6 2-.6 3.9 0 4.2.4.3.7-.6.7-2 0-2-.4-3.2-.7-2.2zm2.6 1.8c-.3.6.1.7.9.4 1.8-.7 2.1-1.4.7-1.4-.6 0-1.3.4-1.6 1zm3.5-.6c0 .2.7.6 1.5 1 .8.3 1.5.1 1.5-.4 0-.6-.7-1-1.5-1s-1.5.2-1.5.4zM263 551c0 .5.5 1 1.1 1 .5 0 .7-.5.4-1-.3-.6-.8-1-1.1-1-.2 0-.4.4-.4 1zm-8 1.1c0 .5.5.7 1 .4.6-.3 1-.8 1-1.1 0-.2-.4-.4-1-.4-.5 0-1 .5-1 1.1zm163-.1c.8.5 2 1 2.5 1 .6 0 .3-.5-.5-1s-1.9-1-2.5-1c-.5 0-.3.5.5 1zm-153.8 1.7c1.1.3 1.5 1.1 1.2 2.1-.5 1.4-.4 1.4.4.2 1.3-1.8.6-3-1.6-2.9-1.6.1-1.6.2 0 .6zm-4.6 2.8c-.9 2.6-.7 3.2.5 1.2.6-1 .9-2.1.6-2.3-.2-.3-.7.2-1.1 1.1zm8.3.2c-1.3 1.6-1.2 1.7.4.4.9-.7 1.7-1.5 1.7-1.7 0-.8-.8-.3-2.1 1.3zm147.1-.5c0 .4.4.8.9.8.6 0 1.2-.4 1.5-.8.3-.5-.1-.9-.9-.9s-1.5.4-1.5.9zm3.6 1.5c-.6 1.4-.5 1.5.5.6.7-.7 1-1.5.7-1.8-.3-.3-.9.2-1.2 1.2zm-149.3 1.6c0 .7.9 1.4 1.9 1.4 1 .1 1.8-.3 1.8-.9 0-.6-.3-.8-.7-.5-.3.4-1.1.2-1.8-.3-.8-.7-1.2-.6-1.2.3zm4.7-.9c0 .2.7.7 1.6 1 .8.3 1.2.2.9-.4-.6-1-2.5-1.4-2.5-.6zm249.6 1.1c.4.8 1 1.5 1.5 1.5.4 0 .6-.7.3-1.5-.4-.8-1-1.5-1.5-1.5-.4 0-.6.7-.3 1.5zm-377.6.6c0 .5.5.7 1 .4.6-.3 1-.8 1-1.1 0-.2-.4-.4-1-.4-.5 0-1 .5-1 1.1zm274.7 0c.7.7 1.5 1 1.8.7.3-.3-.2-.9-1.2-1.2-1.4-.6-1.5-.5-.6.5zm-141 1c.7.7 1.5 1 1.8.7.3-.3-.2-.9-1.2-1.2-1.4-.6-1.5-.5-.6.5zm-132.1.7c-.3.4.4.9 1.5.9 2.3.2 2.5-.3.4-1-.8-.4-1.6-.3-1.9.1zm127.2.7c.4.5.7 1.3.7 1.7 0 .3.3 1 .7 1.4.4.3.5-.3.3-1.6-.3-1.6 0-2 1.1-1.6.8.3 1.2.2.9-.3-.3-.6-1.4-.9-2.5-.8-1 .1-1.6.6-1.2 1.2zm118.2-.4c0 .5.5.7 1 .4.6-.3 1-.8 1-1.1 0-.2-.4-.4-1-.4-.5 0-1 .5-1 1.1zm129.7 0c.7.7 1.5 1 1.8.7.3-.3-.2-.9-1.2-1.2-1.4-.6-1.5-.5-.6.5zm3.3.8c0 .6.4 1.3 1 1.6.6.3.7-.1.4-.9-.7-1.8-1.4-2.1-1.4-.7zM413 564c0 .5.5 1 1.1 1 .5 0 .7-.5.4-1-.3-.6-.8-1-1.1-1-.2 0-.4.4-.4 1zm-281.4 3.3c.3 1 .9 1.5 1.2 1.2.3-.3 0-1.1-.7-1.8-1-.9-1.1-.8-.5.6zm285.9-.2c-.4.6-.5 1.2-.2 1.5.2.3.7-.2 1-1.1.7-1.7.1-2-.8-.4zm-277.6 1.6c-1.3 1.6-1.2 1.7.4.4.9-.7 1.7-1.5 1.7-1.7 0-.8-.8-.3-2.1 1.3zm8.5-.9c.4.3 1.4.7 2.2.8.9.1 1.3 0 1-.4-.4-.3-1.4-.7-2.2-.8-.9-.1-1.3 0-1 .4zm138.8-.3c.3.3 1.6.8 2.8 1 1.2.2 2 .1 1.6-.2-.4-.4-1.6-.8-2.8-1-1.2-.2-1.9-.1-1.6.2zm5.8.3c0 .5.7.9 1.5.9s1.2-.4.9-.9c-.3-.4-.9-.8-1.5-.8-.5 0-.9.4-.9.8zm228-.4c0 .2.7.7 1.6 1 .8.3 1.2.2.9-.4-.6-1-2.5-1.4-2.5-.6zm13.7 1.9c-.3.8.1 1.4.8 1.4.7 0 1.1-.6.8-1.4-.3-.7-.6-1.3-.8-1.3-.2 0-.5.6-.8 1.3zM127 570.4c.4.4 1.6.4 2.6-.2 1.6-.9 1.4-1-.8-.9-1.5.1-2.3.6-1.8 1.1zm162.5.5c-.3.5-.2 1.2.3 1.5.5.3.9-.1.9-.9 0-1.7-.3-1.9-1.2-.6zm83.5-.5c0 .2.8 1 1.8 1.7 1.5 1.3 1.6 1.2.3-.4s-2.1-2.1-2.1-1.3zm46 0c0 .2.7.9 1.5 1.6.9.7 1.5.8 1.5.2 0-.5-.7-1.2-1.5-1.6-.8-.3-1.5-.4-1.5-.2zm119.7.9c-.3.8 0 1.4.7 1.4s1.3-.6 1.3-1.4c0-.7-.4-1.3-.8-1.3s-.9.6-1.2 1.3zm-406.7.1c0 .2.8 1 1.8 1.7 1.5 1.3 1.6 1.2.3-.4s-2.1-2.1-2.1-1.3zm395.9 1.3c-1.3 1.6-1.2 1.7.4.4.9-.7 1.7-1.5 1.7-1.7 0-.8-.8-.3-2.1 1.3zm-378.3.6c.3 1 .9 1.5 1.2 1.2.3-.3 0-1.1-.7-1.8-1-.9-1.1-.8-.5.6zm150 .9c.3.5 1 .6 1.5.3 1.3-.9 1.1-1.2-.6-1.2-.8 0-1.2.4-.9.9zm8.2-.5c.7.3 1.6.2 1.9-.1.4-.3-.2-.6-1.3-.5-1.1 0-1.4.3-.6.6zm61.7.3c.3.5.8 1 1.1 1 .2 0 .4-.5.4-1 0-.6-.5-1-1.1-1-.5 0-.7.4-.4 1zm53.5 0c0 .5.5 1 1 1 .6 0 1-.5 1-1 0-.6-.4-1-1-1-.5 0-1 .4-1 1zm128.4.3c-.4.6-.3.9.1.4.5-.4 1.7 0 2.7 1 1 .9 2 1.4 2.3 1.1.3-.3-.6-1.3-1.9-2.2-1.9-1.2-2.7-1.3-3.2-.3zm-245.8 1c.3 1 .9 1.5 1.2 1.2.3-.3 0-1.1-.7-1.8-1-.9-1.1-.8-.5.6zm11.4-.2c0 .5-.4.8-.9.4-.5-.3-1.2-.1-1.5.4-.4.5.2.8 1.1.7 1.5-.3 3.3-2.6 1.9-2.6-.3 0-.6.5-.6 1.1zm230 .3c0 .8.4 1.7.9 2 .5.4.7-.3.4-1.4-.6-2.3-1.3-2.6-1.3-.6zm-238.4.8c.3.5 1 .6 1.5.3 1.3-.9 1.1-1.2-.6-1.2-.8 0-1.2.4-.9.9zm11 0c.3.4 1.1.5 1.9.1 2.1-.7 1.9-1.2-.4-1-1.1 0-1.8.5-1.5.9zm205.1-.1c.7.7 1.5 1 1.8.7.3-.3-.2-.9-1.2-1.2-1.4-.6-1.5-.5-.6.5zm36.8-.1c-.3.5-.1 1 .4 1 .6 0 1.1-.5 1.1-1 0-.6-.2-1-.4-1-.3 0-.8.4-1.1 1zm-250 .9c-.3.5-.2 1.2.3 1.5.5.3.9-.1.9-.9 0-1.7-.3-1.9-1.2-.6zm112.5-.5c0 .2.7.7 1.6 1 .8.3 1.2.2.9-.4-.6-1-2.5-1.4-2.5-.6zm-270 1.2c0 .1.8.8 1.7 1.5.9.8 1.4.9 1 .2-.4-.6-.1-1.3.5-1.6.7-.3.3-.4-.9-.4-1.3.1-2.3.2-2.3.3zm164-.2c0 .2.8 1 1.8 1.7 1.5 1.3 1.6 1.2.3-.4s-2.1-2.1-2.1-1.3zm4.8.3c.6.2 1.8.2 2.5 0 .6-.3.1-.5-1.3-.5-1.4 0-1.9.2-1.2.5zm24.8.2c-.3.5.1 1.4.8 2 1 .9 1.6.9 2.1.1.4-.6.3-1-.2-.9-2 .3-2.7-.2-1.3-1.1.9-.6 1-1 .3-1-.6 0-1.4.4-1.7.9zm216 .8c-.6 1.4-.5 1.5.5.6.7-.7 1-1.5.7-1.8-.3-.3-.9.2-1.2 1.2zm6.4-1.3c0 .2.8 1 1.8 1.7 1.5 1.3 1.6 1.2.3-.4s-2.1-2.1-2.1-1.3zm7 .7c0 .5.5.7 1 .4.6-.3 1-.8 1-1.1 0-.2-.4-.4-1-.4-.5 0-1 .5-1 1.1zm-246 1c0 .5.5.7 1 .4.6-.3 1-.8 1-1.1 0-.2-.4-.4-1-.4-.5 0-1 .5-1 1.1zm12.3.4c0 .8.4 1.2.9.9.5-.3.6-1 .3-1.5-.9-1.3-1.2-1.1-1.2.6zm10.2-.6c-.3.5-.2 1.2.3 1.5.5.3.9-.1.9-.9 0-1.7-.3-1.9-1.2-.6zm201.4.8c-1.3 1.6-1.2 1.7.4.4 1.6-1.3 2.1-2.1 1.3-2.1-.2 0-1 .8-1.7 1.7zm-131.6 1c0 .7.4 1.3.8 1.3s.9-.6 1.2-1.3c.3-.8 0-1.4-.7-1.4s-1.3.6-1.3 1.4zm151.3-.9c-.3.5.1.9.9.9s1.2-.4.9-.9c-.3-.4-.7-.8-.9-.8-.2 0-.6.4-.9.8zM153 582.1c0 .5.5.7 1 .4.6-.3 1-.8 1-1.1 0-.2-.4-.4-1-.4-.5 0-1 .5-1 1.1zm172.5-.1c.3.5.8 1 1.1 1 .2 0 .4-.5.4-1 0-.6-.5-1-1.1-1-.5 0-.7.4-.4 1zm17.1 1.8c-.3.5.1.9.9.9s1.2-.4.9-.9c-.3-.4-.7-.8-.9-.8-.2 0-.6.4-.9.8zm44.7.7c0 .8.4 1.2.9.9.5-.3.6-1 .3-1.5-.9-1.3-1.2-1.1-1.2.6zm-229.7 1.7c.3.5 1 .6 1.5.3 1.3-.9 1.1-1.2-.6-1.2-.8 0-1.2.4-.9.9zm264 0c.3.5 1 .6 1.5.3 1.3-.9 1.1-1.2-.6-1.2-.8 0-1.2.4-.9.9zm0 4.3c-.9 2.6-.7 3.2.5 1.2.6-1 .9-2.1.6-2.3-.2-.3-.7.2-1.1 1.1zm-255.6.6c0 .5-.6.7-1.2.3-.7-.4-.9-.3-.5.1 1.3 1.5 3.6 1.4 3-.1-.6-1.7-1.3-1.8-1.3-.3zm261.5 2.4c0 1.9.7 4 1.5 4.7 1.2 1.1 1.2 1 .4-.2-.6-.8-1-2.8-.9-4.3.1-1.5-.1-3-.5-3.2-.3-.2-.6 1.1-.5 3zm3.3-.8c.6.2.9 1 .6 1.5-.4.7-.2.8.5.4 1.3-.9.5-2.6-1.2-2.5-.9 0-.8.2.1.6zm.5 6.8c0 .7.6 1.1 1.4.8.7-.3 1.3-.6 1.3-.8 0-.2-.6-.5-1.3-.8-.8-.3-1.4.1-1.4.8zm-214.8.5c-.3.5-.1 1 .4 1 .6 0 1.1-.5 1.1-1 0-.6-.2-1-.4-1-.3 0-.8.4-1.1 1zm247.4 3.1c1.9.8 2.1 1.2 1.1 2.4-1.1 1.3-1 1.4.4.9 3.2-1.2 1.1-4.5-2.7-4.3-.7 0-.1.5 1.2 1zm-34.3 1.1c.3.5 1 .6 1.5.3 1.3-.9 1.1-1.2-.6-1.2-.8 0-1.2.4-.9.9zm-214.9 1.2c-.4 1-.1 1.3.9.9 1.5-.6 1.9-2.3.5-2.3-.5 0-1.1.7-1.4 1.4zm220.5 1.2c1 1 2 1.6 2.2 1.3.3-.3-.5-1.1-1.7-1.8-2.1-1.3-2.1-1.2-.5.5zM211 607.9c0 .6.4 1.2.8 1.5.5.3.9-.1.9-.9s-.4-1.5-.9-1.5c-.4 0-.8.4-.8.9zm259.7 1c-.4 1.7-.3 2.1.5 1.3.5-.5.8-1.6.6-2.3-.3-.8-.7-.3-1.1 1zM240 610c-.9.6-1 1-.3 1 .6 0 1.5-.5 1.8-1 .8-1.2.4-1.2-1.5 0zm190.6 1.8c-.2.4.4.8 1.4.8 1 0 1.6-.4 1.4-.8-.3-.4-.9-.8-1.4-.8-.5 0-1.1.4-1.4.8zm6.4 0c0 .5.7.9 1.5.9s1.2-.4.9-.9c-.3-.4-.9-.8-1.5-.8-.5 0-.9.4-.9.8zm37 .2c-.9.6-1 1-.3 1 .6 0 1.5-.5 1.8-1 .8-1.2.4-1.2-1.5 0zm-4.4 1.8c-.3.5.1.9.9.9s1.2-.4.9-.9c-.3-.4-.7-.8-.9-.8-.2 0-.6.4-.9.8zm-260 3.5c.3 1 .9 1.5 1.2 1.2.3-.3 0-1.1-.7-1.8-1-.9-1.1-.8-.5.6zm227.9.7c.3.5.8 1 1.1 1 .2 0 .4-.5.4-1 0-.6-.5-1-1.1-1-.5 0-.7.4-.4 1zm4.9 1.1c0 1.3.3 1.5 1.3.7.7-.6 1.3-1.2 1.3-1.3 0-.2-.6-.5-1.3-.8-.7-.3-1.3.3-1.3 1.4zm58.6-.7c0 .2.8 1 1.8 1.7 1.5 1.3 1.6 1.2.3-.4s-2.1-2.1-2.1-1.3zm-5.7 2.1c0 .8.4 1.2.9.9.4-.3.8-.9.8-1.5 0-.5-.4-.9-.8-.9-.5 0-.9.7-.9 1.5zm-49.8.5c-.3.6.1.7.9.4 1.8-.7 2.1-1.4.7-1.4-.6 0-1.3.4-1.6 1zm44 1c-.3.5-.1 1 .4 1 .6 0 1.1-.5 1.1-1 0-.6-.2-1-.4-1-.3 0-.8.4-1.1 1zM166 624c-.9.6-1 1-.3 1 .6 0 1.5-.5 1.8-1 .8-1.2.4-1.2-1.5 0zm66 0c-.9.6-1 1-.3 1 .6 0 1.5-.5 1.8-1 .8-1.2.4-1.2-1.5 0zm216 6c-.9.6-1 1-.3 1 .6 0 1.5-.5 1.8-1 .8-1.2.4-1.2-1.5 0zm-.3 2.7c-1 .9-.9 2.3.1 2.3.5 0 .9-.7.9-1.5 0-1.7-.1-1.8-1-.8zm-238.1 3.5c.3.5 1 .6 1.5.3 1.3-.9 1.1-1.2-.6-1.2-.8 0-1.2.4-.9.9zm233.9 2.9c-.4.6-.5 1.2-.2 1.5.2.3.7-.2 1-1.1.7-1.7.1-2-.8-.4zm-232 4.9c.3.5.8 1 1.1 1 .2 0 .4-.5.4-1 0-.6-.5-1-1.1-1-.5 0-.7.4-.4 1zm237.1 2.2c.3.5 1 .6 1.5.3 1.3-.9 1.1-1.2-.6-1.2-.8 0-1.2.4-.9.9z"/></svg>