<svg xmlns="http://www.w3.org/2000/svg" viewBox="0 0 150 80"><defs><style>.cls-1{fill:#1d1d1b;opacity:.15}</style></defs><g id="Layer_1" data-name="Layer 1"><path class="cls-1" d="M65.51 27.36a4.84 4.84 0 0 1 3.4.85L72.12 25a9 9 0 0 0-13.4 1.34l4 2.27a4.88 4.88 0 0 1 2.79-1.25zm-40.23 4.33a5.71 5.71 0 0 0-4.82 3.5l-1.16-11-5.36.58 3 28.22 5.49-.59-1.17-11.32c-.24-2.27.92-4.21 3.23-4.46 2.55-.27 3.81 1.32 4 3.51l1.23 11.44 5.13-.57-1.33-12.33c-.46-4.31-3.38-7.5-8.24-6.98zm20.15 12.63l-3.76-11.61-5.28-.36 6.09 18.15c-.73 2.25-5.5 9.65-5.5 9.65l5.71.38C45.08 56.75 56 33.67 56 33.67l-5.13-.35z"/><path class="cls-1" transform="rotate(-86 108.053 37.958)" d="M93.86 35.24h28.38v5.45H93.86z"/><path class="cls-1" d="M69.33 53.22c-3-.15-4.84-.52-5.79-1-1.37-.86-.33-2 .06-2.29a7.29 7.29 0 0 1 .7-.52 1.33 1.33 0 0 1 .8-.16h.06a12.19 12.19 0 0 0 2.07 0c5.54-.37 9.78-4.37 9.47-8.92a6.94 6.94 0 0 0-.7-2.65l1.14-.08-.29-4.26-5.23.35a11.63 11.63 0 0 0-5.47-.93c-5.54.37-9.78 4.37-9.47 8.92a7.94 7.94 0 0 0 4.7 6.45c-1.29.76-3.44 2.47-3.31 5.13.18 3.84 4.73 4.13 9.76 4.43s4.62 2 4.7 3.24l5.47-.37-.22-3.28s.12-3.64-8.45-4.06zm-3-16.1c2.64-.18 4.89 1.44 5 3.6S69.49 44.8 66.85 45s-4.89-1.44-5-3.6 1.84-4.1 4.47-4.28zm23.91-9.87a4.84 4.84 0 0 1 3.31 1.14L97 25.47a9 9 0 0 0-13.46.18l3.84 2.6a4.88 4.88 0 0 1 2.86-1zm.14 5.45c-5.55-.1-10.11 3.51-10.2 8.07a7.94 7.94 0 0 0 4.13 6.83c-1.35.64-3.64 2.17-3.74 4.83-.15 3.84 4.36 4.52 9.34 5.25s4.44 2.32 4.42 3.62l5.52.1.06-3.29s.43-3.62-8.08-4.77c-3-.4-4.78-.93-5.68-1.52-1.29-1-.16-2 .26-2.28a7.29 7.29 0 0 1 .74-.46A1.33 1.33 0 0 1 88 49a12.19 12.19 0 0 0 2.06.21c5.55.1 10.11-3.51 10.2-8.07a6.94 6.94 0 0 0-.5-2.71h1.14l.08-4.27-5.25-.1a11.63 11.63 0 0 0-5.35-1.36zm4.54 8.37c0 2.17-2.21 3.89-4.86 3.85s-4.75-1.85-4.71-4 2.21-3.89 4.86-3.85 4.79 1.83 4.71 4zm28.69-9.14a10.39 10.39 0 1 0 11.74 8.81 10.38 10.38 0 0 0-11.74-8.81zM125.93 48a5.65 5.65 0 0 1-6.2-5 5.43 5.43 0 1 1 10.72-1.55 5.65 5.65 0 0 1-4.52 6.55zm11.74-19.32a2.37 2.37 0 0 0-1.74-.72 2.42 2.42 0 0 0-1.7.67 2.35 2.35 0 0 0-.77 1.8 2.47 2.47 0 1 0 4.21-1.74zm-.31 3.19a2 2 0 0 1-2.87 0 2 2 0 0 1 0-2.88 2 2 0 0 1 2.89 0 2 2 0 0 1 .59 1.43 2 2 0 0 1-.61 1.45z"/><path class="cls-1" d="M137 31.64a.61.61 0 0 1 0-.08v-.24a.74.74 0 0 0-.24-.61.93.93 0 0 0-.39-.16.89.89 0 0 0 .47-.18.6.6 0 0 0 .19-.5.69.69 0 0 0-.36-.65 1.32 1.32 0 0 0-.54-.14h-1.32v2.73h.72v-1h.31a.8.8 0 0 1 .24 0 .33.33 0 0 1 .2.2 1.26 1.26 0 0 1 0 .33 2 2 0 0 0 0 .38h.68v-.08a.39.39 0 0 1 .04 0zm-.81-1.4a.66.66 0 0 1-.39.1h-.28v-.79h.17a1.19 1.19 0 0 1 .41.06.31.31 0 0 1 .22.31.37.37 0 0 1-.09.32z"/></g></svg>