<svg xmlns="http://www.w3.org/2000/svg" viewBox="0 0 150 80"><defs><style>.cls-2{fill:#1d1d1b}</style></defs><g opacity=".15" id="Layer_1" data-name="Layer 1"><path class="cls-2" d="M27.8 61.54h2.33v6.84H27.8v-.78a2.28 2.28 0 0 1-1.89.91 3.58 3.58 0 0 1 0-7.15 2.37 2.37 0 0 1 1.89.91zm-1.42 4.85A1.42 1.42 0 1 0 25 65a1.44 1.44 0 0 0 1.37 1.38zm5.22-8.45h2.33v10.44H31.6zm4.1 0H38v10.44h-2.3zm7.07 3.6h1.43v1.72h-1.43v5.13h-2.31v-5.14h-1.25v-1.71h1.25v-2.46h2.31zm10.38-1.38h-.88c-.54 0-.94.35-1 1.13v.25h1.44v1.72h-1.4v5.13H49v-5.14h-1.3v-1.71H49v-.25a3 3 0 0 1 3.29-3.35h.88zM57 68.51a3.58 3.58 0 1 1 3.67-3.57A3.53 3.53 0 0 1 57 68.51zM54.55 59a1.1 1.1 0 0 0 1.13 1 1.07 1.07 0 1 0 0-2.13A1.1 1.1 0 0 0 54.55 59zm1.05 6a1.42 1.42 0 1 0 1.4-1.48 1.44 1.44 0 0 0-1.4 1.42zm1.71-6a1.1 1.1 0 0 0 1.15 1 1.06 1.06 0 1 0 0-2.13A1.1 1.1 0 0 0 57.31 59zm6.8 9.38h-2.34v-6.84H64v1.69a2.29 2.29 0 0 1 3.17-1.67l-.57 2.2a2.88 2.88 0 0 0-1.06-.18c-.88 0-1.42.5-1.42 2.55zm11.7-8.22h-.88c-.54 0-.94.35-1 1.13v.25h1.44v1.72H74v5.13h-2.36v-5.14h-1.28v-1.71h1.28v-.25a3 3 0 0 1 3.29-3.35h.88zm3.88 8.35a3.58 3.58 0 1 1 3.67-3.57 3.53 3.53 0 0 1-3.67 3.57zm-1.42-3.57a1.42 1.42 0 1 0 1.42-1.42 1.44 1.44 0 0 0-1.43 1.42zm8.5 3.44h-2.34v-6.84h2.22v1.69a2.29 2.29 0 0 1 3.17-1.67l-.57 2.2a2.88 2.88 0 0 0-1.06-.18c-.88 0-1.42.5-1.42 2.55zm8.65-6.84h2.33v6.84h-2.33v-.78a2.28 2.28 0 0 1-1.89.91 3.58 3.58 0 0 1 0-7.15 2.37 2.37 0 0 1 1.89.91zM91.69 59a1.1 1.1 0 0 0 1.13 1 1.07 1.07 0 1 0 0-2.13A1.1 1.1 0 0 0 91.69 59zm.88 6A1.42 1.42 0 1 0 94 63.53 1.44 1.44 0 0 0 92.57 65zm1.88-6a1.1 1.1 0 0 0 1.14 1 1.06 1.06 0 1 0 0-2.13A1.1 1.1 0 0 0 94.45 59zm-17.23 0a1.1 1.1 0 0 0 1.13 1 1.07 1.07 0 1 0 0-2.13A1.1 1.1 0 0 0 77.22 59zM80 59a1.1 1.1 0 0 0 1.12 1 1.06 1.06 0 1 0 0-2.13A1.1 1.1 0 0 0 80 59zm19.22-1.06h2.33v10.44h-2.33zm8.64 0h2.33v10.44H108v-1a2.2 2.2 0 0 1-2 1.12 3.58 3.58 0 0 1 0-7.15 2.48 2.48 0 0 1 1.89.81zm-1.42 8.44A1.42 1.42 0 1 0 105 65a1.44 1.44 0 0 0 1.43 1.38zm7.56 2h-2.33v-6.84h2.22v1.69a2.29 2.29 0 0 1 3.17-1.67l-.57 2.2a2.88 2.88 0 0 0-1.06-.18c-.88 0-1.42.5-1.42 2.55zm8.65-6.84H125v6.84h-2.33v-.78a2.28 2.28 0 0 1-1.89.91 3.58 3.58 0 0 1 0-7.15 2.37 2.37 0 0 1 1.89.91zm-1.42 4.85A1.42 1.42 0 1 0 119.8 65a1.44 1.44 0 0 0 1.42 1.38zm7.56 1.99h-2.33v-6.84h2.22v1.69a2.29 2.29 0 0 1 3.17-1.67l-.57 2.2a2.88 2.88 0 0 0-1.06-.18c-.88 0-1.42.5-1.42 2.55zM93.83 49.22a10.49 10.49 0 1 1 10.49-10.49 10.5 10.5 0 0 1-10.49 10.49zm0-18.62a8.13 8.13 0 1 0 8.17 8.13 8.14 8.14 0 0 0-8.17-8.13z"/><path class="cls-2" d="M91.65 38a1.51 1.51 0 0 0 1.55 1.47 1.46 1.46 0 1 0 0-2.92A1.51 1.51 0 0 0 91.65 38zm-22.52 9.19a18.3 18.3 0 1 1 18.3-18.3 18.32 18.32 0 0 1-18.3 18.3zm0-34.25a15.94 15.94 0 1 0 15.94 15.95 16 16 0 0 0-15.94-15.94zm18.48 23.78a1.13 1.13 0 0 0 1.17 1.1 1.09 1.09 0 1 0 0-2.18 1.13 1.13 0 0 0-1.17 1.08z"/><path class="cls-2" d="M66.43 24.21a2.21 2.21 0 0 0-1.56 1.88 2.21 2.21 0 0 0-2.34-.71A2.6 2.6 0 0 0 61 28.61c.57 1.92 5.73 3.56 5.73 3.56S70.1 28 69.52 26a2.6 2.6 0 0 0-3.09-1.79zm13.83.86A2.21 2.21 0 0 0 78 26a2.21 2.21 0 0 0-1.75-1.7 2.6 2.6 0 0 0-2.89 2.15c-.37 2 3.45 5.8 3.45 5.8s5-2.17 5.33-4.13a2.6 2.6 0 0 0-1.88-3.05z"/></g></svg>