<svg xmlns="http://www.w3.org/2000/svg" viewBox="0 0 150 80"><defs><style>.cls-1{opacity:0.15;}.cls-2{fill:#1d1d1b;}</style></defs><title>aff</title><g id="Layer_1" data-name="Layer 1"><g class="cls-1"><path class="cls-2" d="M27.8,61.54h2.33v6.84H27.8V67.6a2.28,2.28,0,0,1-1.89.91,3.58,3.58,0,0,1,0-7.15,2.37,2.37,0,0,1,1.89.91Zm-1.42,4.85A1.42,1.42,0,1,0,25,65,1.44,1.44,0,0,0,26.37,66.38Z"/><path class="cls-2" d="M31.6,57.94h2.33V68.38H31.6Z"/><path class="cls-2" d="M35.7,57.94H38V68.38H35.7Z"/><path class="cls-2" d="M42.77,61.54H44.2v1.72H42.77v5.13H40.46V63.25H39.21V61.54h1.25V59.08h2.31Z"/><path class="cls-2" d="M53.15,60.16h-.88c-.54,0-.94.35-1,1.13v.25h1.44v1.72H51.31v5.13H49V63.25H47.7V61.54H49v-.25a3,3,0,0,1,3.29-3.35h.88Z"/><path class="cls-2" d="M57,68.51a3.58,3.58,0,1,1,3.67-3.57A3.53,3.53,0,0,1,57,68.51ZM54.55,59A1.1,1.1,0,0,0,55.68,60a1.07,1.07,0,1,0,0-2.13A1.1,1.1,0,0,0,54.55,59Zm1.05,6A1.42,1.42,0,1,0,57,63.52,1.44,1.44,0,0,0,55.6,64.94Zm1.71-6A1.1,1.1,0,0,0,58.46,60a1.06,1.06,0,1,0,0-2.13A1.1,1.1,0,0,0,57.31,59Z"/><path class="cls-2" d="M64.11,68.38H61.77V61.54H64v1.69a2.29,2.29,0,0,1,3.17-1.67l-.57,2.2a2.88,2.88,0,0,0-1.06-.18c-.88,0-1.42.5-1.42,2.55Z"/><path class="cls-2" d="M75.81,60.16h-.88c-.54,0-.94.35-1,1.13v.25h1.44v1.72H74v5.13H71.64V63.25H70.36V61.54h1.28v-.25a3,3,0,0,1,3.29-3.35h.88Z"/><path class="cls-2" d="M79.69,68.51a3.58,3.58,0,1,1,3.67-3.57A3.53,3.53,0,0,1,79.69,68.51Zm-1.42-3.57a1.42,1.42,0,1,0,1.42-1.42A1.44,1.44,0,0,0,78.26,64.94Z"/><path class="cls-2" d="M86.77,68.38H84.43V61.54h2.22v1.69a2.29,2.29,0,0,1,3.17-1.67l-.57,2.2a2.88,2.88,0,0,0-1.06-.18c-.88,0-1.42.5-1.42,2.55Z"/><path class="cls-2" d="M95.42,61.54h2.33v6.84H95.42V67.6a2.28,2.28,0,0,1-1.89.91,3.58,3.58,0,0,1,0-7.15,2.37,2.37,0,0,1,1.89.91ZM91.69,59A1.1,1.1,0,0,0,92.82,60a1.07,1.07,0,1,0,0-2.13A1.1,1.1,0,0,0,91.69,59Zm.88,6A1.42,1.42,0,1,0,94,63.53,1.44,1.44,0,0,0,92.57,65Zm1.88-6A1.1,1.1,0,0,0,95.59,60a1.06,1.06,0,1,0,0-2.13A1.1,1.1,0,0,0,94.45,59ZM77.22,59A1.1,1.1,0,0,0,78.35,60a1.07,1.07,0,1,0,0-2.13A1.1,1.1,0,0,0,77.22,59ZM80,59A1.1,1.1,0,0,0,81.12,60a1.06,1.06,0,1,0,0-2.13A1.1,1.1,0,0,0,80,59Z"/><path class="cls-2" d="M99.22,57.94h2.33V68.38H99.22Z"/><path class="cls-2" d="M107.86,57.94h2.33V68.38H108v-1a2.2,2.2,0,0,1-2,1.12,3.58,3.58,0,0,1,0-7.15,2.48,2.48,0,0,1,1.89.81Zm-1.42,8.44A1.42,1.42,0,1,0,105,65,1.44,1.44,0,0,0,106.43,66.38Z"/><path class="cls-2" d="M114,68.38h-2.33V61.54h2.22v1.69a2.29,2.29,0,0,1,3.17-1.67l-.57,2.2a2.88,2.88,0,0,0-1.06-.18c-.88,0-1.42.5-1.42,2.55Z"/><path class="cls-2" d="M122.65,61.54H125v6.84h-2.33V67.6a2.28,2.28,0,0,1-1.89.91,3.58,3.58,0,0,1,0-7.15,2.37,2.37,0,0,1,1.89.91Zm-1.42,4.85A1.42,1.42,0,1,0,119.8,65,1.44,1.44,0,0,0,121.22,66.38Z"/><path class="cls-2" d="M128.79,68.38h-2.33V61.54h2.22v1.69a2.29,2.29,0,0,1,3.17-1.67l-.57,2.2a2.88,2.88,0,0,0-1.06-.18c-.88,0-1.42.5-1.42,2.55Z"/><path class="cls-2" d="M93.83,49.22a10.49,10.49,0,1,1,10.49-10.49A10.5,10.5,0,0,1,93.83,49.22Zm0-18.62A8.13,8.13,0,1,0,102,38.73,8.14,8.14,0,0,0,93.83,30.6Z"/><path class="cls-2" d="M91.65,38a1.51,1.51,0,0,0,1.55,1.47,1.46,1.46,0,1,0,0-2.92A1.51,1.51,0,0,0,91.65,38Z"/><path class="cls-2" d="M69.13,47.19a18.3,18.3,0,1,1,18.3-18.3A18.32,18.32,0,0,1,69.13,47.19Zm0-34.25A15.94,15.94,0,1,0,85.07,28.89,16,16,0,0,0,69.13,12.95Z"/><path class="cls-2" d="M87.61,36.72a1.13,1.13,0,0,0,1.17,1.1,1.09,1.09,0,1,0,0-2.18A1.13,1.13,0,0,0,87.61,36.72Z"/><path class="cls-2" d="M66.43,24.21a2.21,2.21,0,0,0-1.56,1.88,2.21,2.21,0,0,0-2.34-.71A2.6,2.6,0,0,0,61,28.61c.57,1.92,5.73,3.56,5.73,3.56S70.1,28,69.52,26A2.6,2.6,0,0,0,66.43,24.21Z"/><path class="cls-2" d="M80.26,25.07A2.21,2.21,0,0,0,78,26a2.21,2.21,0,0,0-1.75-1.7,2.6,2.6,0,0,0-2.89,2.15c-.37,2,3.45,5.8,3.45,5.8s5-2.17,5.33-4.13A2.6,2.6,0,0,0,80.26,25.07Z"/></g></g></svg>