<svg width="98" height="32" viewBox="0 0 98 32" fill="none" xmlns="http://www.w3.org/2000/svg">
<path fill-rule="evenodd" clip-rule="evenodd" d="M40.4521 4.64586C41.4474 4.52809 42.3922 4.79383 43.1177 5.3184L45.6346 2.791C44.1704 1.44357 42.1514 0.718101 40.0209 0.970206C37.9808 1.21163 36.2468 2.30081 35.1268 3.84369L38.3022 5.62827C38.8654 5.10702 39.6083 4.74571 40.4521 4.64586Z" fill="white"/>
<path fill-rule="evenodd" clip-rule="evenodd" d="M8.89237 8.0606C7.23551 8.23981 5.88094 9.11665 5.11488 10.819L4.20322 2.12085L0 2.57548L2.38368 24.8005L6.69105 24.3346L5.73827 15.4511C5.54638 13.6619 6.4576 12.1343 8.2706 11.9383C10.2709 11.7219 11.2597 12.9805 11.4448 14.7068L12.4111 23.7158L16.4011 23.2842L15.3575 13.5533C14.9938 10.1631 12.7055 7.64815 8.89237 8.0606Z" fill="white"/>
<path fill-rule="evenodd" clip-rule="evenodd" d="M24.7007 18.0039L21.7513 8.86077L17.6099 8.58057L22.3836 22.876C21.8139 24.6485 18.0736 30.4759 18.0736 30.4759L22.5489 30.7788C24.4234 27.8008 32.986 9.62094 32.986 9.62094L28.9595 9.3485L24.7007 18.0039Z" fill="white"/>
<path fill-rule="evenodd" clip-rule="evenodd" d="M70.9073 23.9989L75.171 24.2982L76.7231 1.99899L72.4594 1.69971L70.9073 23.9989Z" fill="white"/>
<path fill-rule="evenodd" clip-rule="evenodd" d="M41.0867 12.3371C43.1547 12.1973 44.924 13.4685 45.0385 15.1763C45.153 16.8842 43.5693 18.3819 41.5012 18.5217C39.4332 18.6615 37.6639 17.3904 37.5494 15.6826C37.435 13.9747 39.0186 12.477 41.0867 12.3371ZM43.4427 25.0189C41.1 24.9046 39.6482 24.612 38.9051 24.2057C37.8344 23.5305 38.6499 22.6685 38.9519 22.3997C39.1092 22.2657 39.2925 22.1296 39.4998 21.9922C39.5496 21.9632 39.8096 21.823 40.1246 21.8649C40.142 21.8672 40.1567 21.8686 40.1701 21.8695C40.6981 21.9243 41.2423 21.9354 41.7968 21.8979C46.1391 21.6044 49.4643 18.4595 49.224 14.8736C49.1742 14.1303 48.9747 13.4266 48.6517 12.7804L49.5453 12.72L49.3203 9.36337L45.2149 9.6409C43.9525 9.08139 42.4796 8.80719 40.9264 8.9122C36.5841 9.20573 33.2588 12.3506 33.4992 15.9366C33.6461 18.1287 35.0917 19.978 37.1852 21.0175L37.1844 21.0173C36.1743 21.6136 34.489 22.962 34.5887 25.0578C34.7328 28.0816 38.2967 28.3119 42.2422 28.5459C46.1875 28.7799 45.8653 30.0974 45.9321 31.0943L50.2517 30.8023L50.0767 28.2165C50.0767 28.2165 50.1679 25.3472 43.4427 25.0189Z" fill="white"/>
<path fill-rule="evenodd" clip-rule="evenodd" d="M59.8452 4.56273C60.8469 4.53095 61.7656 4.87693 62.4437 5.46201L65.1668 3.16028C63.8229 1.69191 61.8731 0.79548 59.7289 0.863476C57.6757 0.928593 55.8553 1.86471 54.6078 3.3056L57.6194 5.35665C58.225 4.88578 58.996 4.58965 59.8452 4.56273Z" fill="white"/>
<path fill-rule="evenodd" clip-rule="evenodd" d="M63.5169 15.4489C63.4854 17.1603 61.7798 18.5164 59.7074 18.4779C57.6351 18.4394 55.9807 17.0208 56.0122 15.3094C56.0437 13.598 57.7493 12.2419 59.8217 12.2804C61.894 12.3189 63.5485 13.7375 63.5169 15.4489ZM59.954 8.85422C55.6026 8.77332 52.0214 11.6208 51.9552 15.2142C51.9147 17.4109 53.1974 19.3778 55.1945 20.5934L55.1938 20.5931C54.1365 21.1004 52.3424 22.299 52.2631 24.3957C52.1489 27.4208 55.6801 27.9566 59.5911 28.529C63.5021 29.1014 63.0687 30.3864 63.0503 31.3854L67.3789 31.4658L67.425 28.8744C67.425 28.8744 67.7605 26.0236 61.0879 25.1182C58.7635 24.8028 57.3421 24.3865 56.6363 23.9178C55.6271 23.153 56.5131 22.3643 56.8369 22.1225C57.0051 22.0025 57.1993 21.8826 57.4175 21.7636C57.4696 21.7389 57.7406 21.6216 58.0509 21.6904C58.068 21.6943 58.0826 21.6969 58.0959 21.6989C58.6173 21.799 59.1585 21.8568 59.7141 21.8672C64.0655 21.9481 67.6467 19.1006 67.7129 15.5072C67.7266 14.7624 67.5878 14.0441 67.3211 13.3725L68.2166 13.3891L68.2787 10.0255L64.1646 9.94899C62.9545 9.28301 61.5104 8.88315 59.954 8.85422Z" fill="white"/>
<path fill-rule="evenodd" clip-rule="evenodd" d="M87.8354 20.9202C85.5142 21.2563 83.3387 19.4812 82.9761 16.9556C82.6135 14.4297 84.2011 12.1098 86.5224 11.7737C88.8436 11.4376 91.0191 13.2127 91.3818 15.7385C91.7443 18.2642 90.1567 20.5841 87.8354 20.9202ZM86.0159 8.24548C81.5732 8.8887 78.4923 13.0373 79.1347 17.5117C79.777 21.9858 83.8994 25.0918 88.342 24.4486C92.7846 23.8054 95.8654 19.6564 95.2231 15.1823C94.5808 10.7079 90.4585 7.60223 86.0159 8.24548Z" fill="white"/>
<path fill-rule="evenodd" clip-rule="evenodd" d="M96.8078 8.20386C96.4965 8.52 96.1213 8.67809 95.6824 8.67809C95.2416 8.67809 94.8656 8.52094 94.5543 8.20646C94.2412 7.89212 94.0847 7.51006 94.0847 7.06042C94.0847 6.6266 94.2385 6.25155 94.5464 5.9354C94.8594 5.61225 95.2381 5.45062 95.6824 5.45062C96.1213 5.45062 96.4973 5.61225 96.8105 5.9354C97.12 6.25335 97.2748 6.62833 97.2748 7.06042C97.2748 7.50478 97.1191 7.88598 96.8078 8.20386ZM97.0492 5.68777C96.6715 5.30835 96.2158 5.11865 95.6824 5.11865C95.1734 5.11865 94.73 5.29433 94.3522 5.64559C93.95 6.0215 93.7488 6.4931 93.7488 7.06042C93.7488 7.60667 93.9351 8.06686 94.3076 8.44098C94.6802 8.81509 95.1384 9.00215 95.6824 9.00215C96.2088 9.00215 96.66 8.8195 97.0361 8.45416C97.4226 8.0765 97.6159 7.61195 97.6159 7.06042C97.6159 6.52471 97.427 6.06716 97.0492 5.68777Z" fill="white"/>
<path fill-rule="evenodd" clip-rule="evenodd" d="M95.9211 6.91281C95.8476 6.96551 95.7453 6.99184 95.6141 6.99184H95.3964V6.36743H95.5328C95.6727 6.36743 95.7812 6.38238 95.8581 6.41221C95.9736 6.45794 96.0313 6.5396 96.0313 6.65724C96.0313 6.77495 95.9946 6.86012 95.9211 6.91281ZM96.5576 8.01674C96.5548 7.99568 96.5534 7.97459 96.5534 7.95353V7.76117C96.5534 7.54164 96.4904 7.38067 96.3645 7.27829C96.2963 7.22362 96.1948 7.18213 96.0601 7.15389C96.2071 7.13817 96.3307 7.09012 96.4314 7.00971C96.5319 6.92933 96.5823 6.79868 96.5823 6.61773C96.5823 6.38061 96.4868 6.20937 96.2963 6.10398C96.1843 6.0425 96.0435 6.00563 95.8739 5.99331C95.8441 5.99158 95.6968 5.99029 95.4318 5.98936C95.1668 5.98849 94.9679 5.98804 94.835 5.98804V8.14056H95.3964V7.37918H95.5145L95.6378 7.38705C95.7234 7.39236 95.7873 7.40377 95.8293 7.42129C95.9063 7.4512 95.9587 7.50389 95.9867 7.57938C96.0042 7.62507 96.016 7.71291 96.0221 7.84287C96.0282 7.97286 96.04 8.07207 96.0576 8.14056H96.5927L96.573 8.07998C96.5655 8.05889 96.5604 8.03783 96.5576 8.01674Z" fill="white"/>
</svg>
