<svg xmlns="http://www.w3.org/2000/svg" viewBox="0 0 150 80"><defs><style>.cls-1{opacity:0.15;}.cls-2{fill:#1d1d1b;}</style></defs><title>keyflow</title><g id="Layer_1" data-name="Layer 1"><g class="cls-1"><path class="cls-2" d="M13.47,40v9.18H9.85V30.51h3.63V38l7-7.47h4.81L17.1,39l9.18,10.14H21.69Z"/><path class="cls-2" d="M33.6,33.69v3.85h5.7v3.18H33.6V45.9h7.84v3.18H30V30.51H41.15v3.18Z"/><path class="cls-2" d="M54.77,40.72v8.44H51.21V40.72L44.85,30.51h4.07L53,37.1l4.07-6.59h4.07Z"/><path class="cls-2" d="M68.68,33.69v3.85h5.7v3.18h-5.7v8.36H65.05V30.51H76.23v3.18Z"/><path class="cls-2" d="M80.52,30.51h3.63V46H92v3.18H80.52Z"/><path class="cls-2" d="M103.83,30.29a9.39,9.39,0,0,1,9.69,9.62,9.69,9.69,0,0,1-19.39,0A9.31,9.31,0,0,1,103.83,30.29Zm0,15.91A6.18,6.18,0,0,0,110,39.84a6.15,6.15,0,1,0-12.28,0A6.13,6.13,0,0,0,103.83,46.2Z"/><path class="cls-2" d="M115,30.51h3.63l3.85,11.62,4.07-11.62h2.52l4.07,11.62L137,30.51h3.63L134.4,49.16h-2.52l-4.14-11.77-4,11.77h-2.52Z"/></g></g></svg>