<svg width="411" height="47" viewBox="0 0 411 47" fill="none" xmlns="http://www.w3.org/2000/svg">
<g opacity="0.5">
<path fill-rule="evenodd" clip-rule="evenodd" d="M161.815 2.41533C169.092 0.466225 176.856 2.54825 182.182 7.87687C187.51 13.2023 189.592 20.9664 187.643 28.2434C185.694 35.5205 180.01 41.2045 172.733 43.1536C165.456 45.1027 157.692 43.0207 152.366 37.6921C147.038 32.3666 144.956 24.6025 146.905 17.3255C148.854 10.0484 154.538 4.36444 161.815 2.41533ZM148.443 30.5653C151.595 38.1821 159.031 43.1449 167.274 43.1335L167.305 43.1085C176.51 43.093 184.559 36.9 186.932 28.0062C189.305 19.1124 185.413 9.73283 177.439 5.13308C169.466 0.533327 159.398 1.85898 152.887 8.36585C147.046 14.1826 145.291 22.9485 148.443 30.5653Z" fill="white"/>
<path fill-rule="evenodd" clip-rule="evenodd" d="M167.274 22.7845H155.614C155.614 16.3448 160.834 11.1243 167.274 11.1243V22.7845ZM167.274 22.7845H178.934C178.934 29.2243 173.714 34.4448 167.274 34.4448V22.7845Z" fill="white"/>
<path fill-rule="evenodd" clip-rule="evenodd" d="M167.274 3.26904C156.496 3.26904 147.759 12.0063 147.759 22.7843C147.759 33.5623 156.496 42.2996 167.274 42.2996C178.052 42.2996 186.789 33.5623 186.789 22.7843C186.789 17.6086 184.733 12.6448 181.073 8.98494C177.414 5.32511 172.45 3.26904 167.274 3.26904ZM164.422 4.33477H165.964L167.362 7.99584L168.76 4.33477H170.302V9.46905H169.28V5.85813L167.926 9.44398H166.804L165.45 5.85813V9.44398H164.422V4.33477ZM153.978 9.80131L151.47 12.7853L155.413 16.0765L158.059 12.9421C158.661 12.2211 158.748 11.519 158.121 10.8921C157.677 10.4571 156.988 10.3942 156.473 10.7417C156.561 10.4943 156.561 10.2242 156.473 9.97684C156.348 9.69675 156.153 9.45301 155.908 9.26844C155.231 8.6917 154.498 9.17441 153.978 9.80131ZM167.274 35.247C160.391 35.247 154.811 29.6673 154.811 22.7843C154.811 15.9014 160.391 10.3216 167.274 10.3216C174.157 10.3216 179.737 15.9014 179.737 22.7843C179.737 26.0897 178.424 29.2596 176.087 31.5968C173.749 33.934 170.579 35.247 167.274 35.247ZM177.956 15.0359L178.89 16.1957L183.642 13.9137L182.846 12.9295L179.843 14.3526L181.78 11.613L180.928 10.5599L177.844 11.8826L179.862 9.24337L179.066 8.25914L175.844 12.4029L176.79 13.5752L179.837 12.3214L177.956 15.0359Z" fill="white"/>
<path fill-rule="evenodd" clip-rule="evenodd" d="M155.35 10.5411C155.115 10.3369 154.765 10.3369 154.529 10.5411L153.025 12.3215L153.959 13.1051L155.444 11.331C155.543 11.2164 155.589 11.0656 155.571 10.9154C155.554 10.7652 155.473 10.6294 155.35 10.5411ZM155.607 14.5157L157.175 12.635V12.6475C157.407 12.3792 157.377 11.9736 157.109 11.7416C156.841 11.5097 156.435 11.5391 156.203 11.8075L154.623 13.6882L155.607 14.5157Z" fill="white"/>
<path fill-rule="evenodd" clip-rule="evenodd" d="M299.924 29.5963H292.461C292.861 28.6583 293.177 27.6868 293.406 26.6931H302.834L305.32 24.2075H293.796C293.837 23.7282 293.858 23.242 293.858 22.7559C293.858 22.2697 293.858 21.7836 293.796 21.3043H308.223L310.709 18.8392H293.413C293.183 17.8457 292.867 16.8742 292.468 15.936H313.619L316.104 13.4504H291.16C287.971 8.41458 282.426 5.3623 276.466 5.3623C270.505 5.3623 264.96 8.41458 261.771 13.4504H236.799L239.285 15.936H260.436C260.034 16.8739 259.716 17.8454 259.484 18.8392H242.188L244.674 21.3248H259.101C259.06 21.8041 259.039 22.2903 259.039 22.7764C259.039 23.2626 259.039 23.7487 259.101 24.228H247.577L250.076 26.6931H259.484C259.714 27.6872 260.033 28.6589 260.436 29.5963H252.966L255.451 32.0819H261.758C264.946 37.1177 270.491 40.17 276.452 40.17C282.412 40.17 287.958 37.1177 291.146 32.0819H297.452L299.924 29.5963ZM264.538 26.6931H266.071V20.8523L267.968 26.7273H269.687L271.529 20.8934V26.7136H273.11V18.8392H270.823L268.838 25.125L266.831 18.8392H264.538V26.6931ZM274.904 26.6931H276.527L276.534 18.8392H274.904V26.6931ZM279.875 26.6931H278.314V18.8392H280.204L283.347 24.5499V18.8392H284.908V26.7136H283.018L279.882 21.0304L279.875 26.6931ZM286.73 26.6931H288.352L288.359 18.8392H286.73V26.6931ZM261.518 22.7559C261.518 30.9999 268.201 37.6829 276.445 37.6829C284.686 37.6754 291.365 30.9967 291.372 22.7559C291.372 14.5119 284.689 7.82883 276.445 7.82883C268.201 7.82883 261.518 14.5119 261.518 22.7559Z" fill="white"/>
<path fill-rule="evenodd" clip-rule="evenodd" d="M40.4521 12.6456C41.4474 12.5278 42.3922 12.7936 43.1177 13.3182L45.6345 10.7908C44.1704 9.44333 42.1513 8.71786 40.0208 8.96996C37.9807 9.21138 36.2467 10.3006 35.1267 11.8434L38.3021 13.628C38.8654 13.1068 39.6082 12.7455 40.4521 12.6456Z" fill="white"/>
<path fill-rule="evenodd" clip-rule="evenodd" d="M8.89237 16.0604C7.23551 16.2396 5.88094 17.1164 5.11488 18.8187L4.20322 10.1206L0 10.5752L2.38368 32.8002L6.69105 32.3343L5.73827 23.4508C5.54638 21.6616 6.4576 20.1341 8.2706 19.938C10.2709 19.7216 11.2597 20.9803 11.4448 22.7066L12.4111 31.7156L16.4011 31.284L15.3575 21.5531C14.9938 18.1628 12.7055 15.6479 8.89237 16.0604Z" fill="white"/>
<path fill-rule="evenodd" clip-rule="evenodd" d="M24.7006 26.0037L21.7512 16.8605L17.6099 16.5803L22.3836 30.8758C21.8138 32.6483 18.0735 38.4757 18.0735 38.4757L22.5489 38.7785C24.4233 35.8006 32.986 17.6207 32.986 17.6207L28.9595 17.3483L24.7006 26.0037Z" fill="white"/>
<path fill-rule="evenodd" clip-rule="evenodd" d="M70.9072 31.9986L75.1709 32.2979L76.7231 9.99875L72.4594 9.69946L70.9072 31.9986Z" fill="white"/>
<path fill-rule="evenodd" clip-rule="evenodd" d="M41.0865 20.3369C43.1546 20.1971 44.9239 21.4682 45.0383 23.176C45.1528 24.8839 43.5691 26.3817 41.5011 26.5215C39.433 26.6613 37.6638 25.3902 37.5493 23.6823C37.4348 21.9745 39.0185 20.4767 41.0865 20.3369ZM43.4426 33.0186C41.0998 32.9043 39.6481 32.6117 38.905 32.2054C37.8343 31.5303 38.6498 30.6683 38.9518 30.3995C39.1091 30.2654 39.2924 30.1293 39.4997 29.992C39.5495 29.9629 39.8095 29.8228 40.1244 29.8646C40.1419 29.867 40.1566 29.8683 40.1699 29.8692C40.698 29.9241 41.2422 29.9352 41.7967 29.8977C46.1389 29.6041 49.4642 26.4592 49.2238 22.8733C49.174 22.13 48.9745 21.4264 48.6515 20.7802L49.5452 20.7197L49.3202 17.3631L45.2147 17.6407C43.9524 17.0811 42.4795 16.8069 40.9263 16.912C36.584 17.2055 33.2587 20.3504 33.4991 23.9363C33.646 26.1285 35.0916 27.9778 37.1851 29.0173L37.1843 29.0171C36.1741 29.6134 34.4888 30.9618 34.5886 33.0576C34.7327 36.0814 38.2966 36.3117 42.2421 36.5456C46.1874 36.7796 45.8651 38.0972 45.932 39.0941L50.2516 38.8021L50.0766 36.2162C50.0766 36.2162 50.1678 33.347 43.4426 33.0186Z" fill="white"/>
<path fill-rule="evenodd" clip-rule="evenodd" d="M59.8451 12.5625C60.8468 12.5307 61.7655 12.8767 62.4436 13.4618L65.1666 11.16C63.8228 9.69167 61.873 8.79524 59.7288 8.86323C57.6756 8.92835 55.8552 9.86447 54.6077 11.3054L57.6193 13.3564C58.2249 12.8855 58.9959 12.5894 59.8451 12.5625Z" fill="white"/>
<path fill-rule="evenodd" clip-rule="evenodd" d="M63.517 23.4487C63.4854 25.1601 61.7799 26.5162 59.7075 26.4777C57.6351 26.4391 55.9807 25.0206 56.0123 23.3091C56.0438 21.5978 57.7494 20.2416 59.8217 20.2802C61.8941 20.3187 63.5485 21.7373 63.517 23.4487ZM59.954 16.854C55.6027 16.7731 52.0215 19.6205 51.9553 23.2139C51.9148 25.4107 53.1974 27.3775 55.1946 28.5932L55.1938 28.5929C54.1365 29.1002 52.3425 30.2987 52.2632 32.3954C52.1489 35.4205 55.6802 35.9564 59.5912 36.5288C63.5021 37.1012 63.0687 38.3861 63.0503 39.3851L67.379 39.4656L67.425 36.8742C67.425 36.8742 67.7605 34.0233 61.088 33.1179C58.7636 32.8026 57.3422 32.3863 56.6363 31.9175C55.6272 31.1528 56.5132 30.3641 56.8369 30.1222C57.0051 30.0022 57.1994 29.8824 57.4176 29.7633C57.4697 29.7387 57.7407 29.6214 58.0509 29.6902C58.0681 29.694 58.0827 29.6967 58.0959 29.6987C58.6174 29.7987 59.1586 29.8566 59.7142 29.8669C64.0655 29.9478 67.6467 27.1003 67.7129 23.5069C67.7267 22.7621 67.5879 22.0439 67.3212 21.3722L68.2167 21.3889L68.2787 18.0252L64.1646 17.9487C62.9546 17.2828 61.5105 16.8829 59.954 16.854Z" fill="white"/>
<path fill-rule="evenodd" clip-rule="evenodd" d="M87.8355 28.9199C85.5143 29.256 83.3387 27.481 82.9761 24.9553C82.6135 22.4295 84.2012 20.1095 86.5224 19.7735C88.8437 19.4374 91.0192 21.2125 91.3818 23.7383C91.7444 26.2639 90.1568 28.5838 87.8355 28.9199ZM86.0159 16.2452C81.5733 16.8885 78.4924 21.037 79.1347 25.5115C79.777 29.9855 83.8994 33.0916 88.342 32.4484C92.7847 31.8051 95.8655 27.6561 95.2232 23.1821C94.5809 18.7077 90.4586 15.602 86.0159 16.2452Z" fill="white"/>
<path fill-rule="evenodd" clip-rule="evenodd" d="M96.8078 16.2036C96.4964 16.5198 96.1213 16.6779 95.6823 16.6779C95.2416 16.6779 94.8655 16.5207 94.5542 16.2062C94.2411 15.8919 94.0846 15.5098 94.0846 15.0602C94.0846 14.6264 94.2385 14.2513 94.5463 13.9352C94.8594 13.612 95.238 13.4504 95.6823 13.4504C96.1213 13.4504 96.4973 13.612 96.8104 13.9352C97.12 14.2531 97.2748 14.6281 97.2748 15.0602C97.2748 15.5045 97.1191 15.8857 96.8078 16.2036ZM97.0491 13.6875C96.6714 13.3081 96.2157 13.1184 95.6823 13.1184C95.1734 13.1184 94.73 13.2941 94.3522 13.6453C93.9499 14.0213 93.7488 14.4929 93.7488 15.0602C93.7488 15.6064 93.935 16.0666 94.3076 16.4407C94.6802 16.8148 95.1383 17.0019 95.6823 17.0019C96.2087 17.0019 96.66 16.8193 97.036 16.4539C97.4225 16.0763 97.6158 15.6117 97.6158 15.0602C97.6158 14.5245 97.4269 14.0669 97.0491 13.6875Z" fill="white"/>
<path fill-rule="evenodd" clip-rule="evenodd" d="M95.9211 14.9126C95.8476 14.9653 95.7453 14.9916 95.6141 14.9916H95.3964V14.3672H95.5328C95.6727 14.3672 95.7812 14.3821 95.8581 14.412C95.9736 14.4577 96.0313 14.5394 96.0313 14.657C96.0313 14.7747 95.9946 14.8599 95.9211 14.9126ZM96.5576 16.0165C96.5548 15.9954 96.5534 15.9743 96.5534 15.9533V15.7609C96.5534 15.5414 96.4904 15.3804 96.3645 15.278C96.2963 15.2234 96.1948 15.1819 96.0601 15.1536C96.2071 15.1379 96.3307 15.0899 96.4314 15.0095C96.5319 14.9291 96.5823 14.7984 96.5823 14.6175C96.5823 14.3804 96.4868 14.2091 96.2963 14.1037C96.1843 14.0423 96.0435 14.0054 95.8739 13.9931C95.8441 13.9913 95.6968 13.99 95.4318 13.9891C95.1668 13.9882 94.9679 13.9878 94.835 13.9878V16.1403H95.3964V15.3789H95.5145L95.6378 15.3868C95.7234 15.3921 95.7873 15.4035 95.8293 15.421C95.9063 15.451 95.9587 15.5036 95.9867 15.5791C96.0042 15.6248 96.016 15.7127 96.0221 15.8426C96.0282 15.9726 96.04 16.0718 96.0576 16.1403H96.5927L96.573 16.0797C96.5655 16.0586 96.5604 16.0376 96.5576 16.0165Z" fill="white"/>
<path fill-rule="evenodd" clip-rule="evenodd" d="M380.873 7.45197H396.661V0.321777H380.873C379.519 0.321777 377.689 1.32027 377.689 3.90698C377.637 4.80041 377.943 5.67789 378.541 6.34382C379.139 7.00976 379.979 7.40879 380.873 7.45197ZM380.873 2.28526H394.557V5.62251H380.946C380.333 5.28782 379.95 4.64589 379.948 3.94719C379.933 3.2668 380.287 2.63143 380.873 2.28526Z" fill="white"/>
<path fill-rule="evenodd" clip-rule="evenodd" d="M396.661 12.0623C396.661 9.16061 395.361 8.41006 393.531 8.29614C392.499 8.30955 377.716 8.30284 377.716 8.30284V15.7346H379.358H393.498C394.449 15.7346 396.661 14.9639 396.661 12.0623ZM379.841 10.4741H393.531C394.111 10.7883 394.464 11.403 394.443 12.0623C394.436 12.709 394.093 13.3056 393.538 13.6371H379.841V10.4741Z" fill="white"/>
<path fill-rule="evenodd" clip-rule="evenodd" d="M387.132 18.9432C387.046 18.8249 386.964 18.7114 386.884 18.6162C386.726 18.4022 386.606 18.2393 386.509 18.1067C386.109 17.5624 386.082 17.5262 385.349 16.5455H377.656C377.743 16.7624 377.83 16.9785 377.917 17.194C380.36 23.2553 382.575 28.7527 385.027 34.5251H390.08L391.508 30.7456C391.767 30.0576 392.025 29.3749 392.281 28.6952C393.798 24.6808 395.274 20.774 396.701 16.5388H389.115C388.848 17.0354 388.634 17.3784 388.398 17.7589C388.142 18.1692 387.86 18.623 387.453 19.3601C387.341 19.2294 387.234 19.083 387.132 18.9432ZM387.554 22.5566L390.234 18.576L393.866 18.5961C390.831 26.2356 390.234 27.7635 388.505 32.2668H386.495C385.35 29.4542 384.029 26.3355 382.688 23.1674C382.035 21.6253 381.377 20.0716 380.732 18.5358H384.538C385.584 19.8761 386.656 21.3034 387.554 22.5566Z" fill="white"/>
<path d="M366.036 39.8527C366.128 40.1641 366.43 40.3646 366.753 40.3285C366.907 40.3285 367.215 40.3285 367.215 40.0873C367.215 39.846 366.914 39.7991 366.733 39.7656C365.996 39.6249 365.118 39.4238 365.118 38.4857C365.127 38.1053 365.313 37.7509 365.62 37.5274C365.958 37.3202 366.35 37.2177 366.746 37.2325C367.43 37.1698 368.075 37.5615 368.334 38.1975L367.336 38.4991C367.241 38.2354 366.978 38.0716 366.699 38.1037C366.538 38.1037 366.311 38.1506 366.311 38.3583C366.311 38.5661 366.599 38.6063 366.746 38.6398C367.13 38.6927 367.504 38.7987 367.859 38.9547C368.23 39.1501 368.456 39.5407 368.442 39.9599C368.442 40.9048 367.503 41.3002 366.686 41.3002C365.882 41.3886 365.132 40.8805 364.917 40.1007L366.036 39.8527Z" fill="white"/>
<path d="M368.549 39.015V38.2644H369.025L369.112 37.3329L370.097 37.2994V38.2644H370.68V39.0083H370.104V40.0135C370.104 40.2279 370.104 40.3887 370.351 40.3887C370.463 40.3851 370.573 40.3671 370.68 40.3351V41.1527L370.01 41.2398C369.704 41.2877 369.395 41.1795 369.185 40.9517C369.003 40.7131 368.926 40.4107 368.971 40.114V39.015H368.549Z" fill="white"/>
<path d="M372.858 41.193V40.7105C372.712 41.0664 372.349 41.2843 371.967 41.2466C371.723 41.2644 371.482 41.1849 371.296 41.0255C371.121 40.8225 371.038 40.5551 371.069 40.2883V38.2779H372.201V40.0471C372.201 40.2347 372.201 40.4358 372.456 40.4358C372.571 40.4359 372.678 40.3712 372.73 40.2682C372.775 40.1717 372.795 40.066 372.791 39.96V38.2645H373.923V41.193H372.858Z" fill="white"/>
<path fill-rule="evenodd" clip-rule="evenodd" d="M376.302 40.8043V41.193L377.348 41.1997V37.266H376.215V38.4923C376.038 38.3116 375.798 38.206 375.545 38.1975C374.661 38.1975 374.393 39.0217 374.393 39.7455C374.393 40.4692 374.681 41.2533 375.525 41.2533C375.853 41.2814 376.163 41.1022 376.302 40.8043ZM376.175 39.0351C376.234 39.1386 376.258 39.2587 376.242 39.3769V39.9666C376.261 40.0957 376.238 40.2275 376.175 40.3419C376.125 40.435 376.026 40.492 375.92 40.4893C375.545 40.4893 375.545 40.0269 375.545 39.7723C375.548 39.5899 375.569 39.4081 375.606 39.2295C375.639 39.0552 375.726 38.9212 375.927 38.9212C376.023 38.9185 376.115 38.9607 376.175 39.0351Z" fill="white"/>
<path fill-rule="evenodd" clip-rule="evenodd" d="M377.897 37.983H379.003L379.03 37.2057H377.897V37.983ZM377.897 41.193H379.003L379.03 38.2645H377.897V41.193Z" fill="white"/>
<path fill-rule="evenodd" clip-rule="evenodd" d="M381.087 41.2466C381.772 41.3074 382.404 40.8707 382.588 40.2079L381.55 40.1476C381.542 40.2561 381.488 40.3563 381.403 40.4238C381.318 40.4913 381.208 40.52 381.101 40.5028C380.759 40.5028 380.658 40.2749 380.658 39.96H382.588V39.8058C382.628 39.3802 382.48 38.9585 382.185 38.6499C381.889 38.3413 381.474 38.1763 381.047 38.1975C380.615 38.1664 380.191 38.3216 379.881 38.6238C379.571 38.9261 379.405 39.3466 379.425 39.779C379.421 40.1976 379.597 40.5977 379.908 40.8781C380.242 41.1426 380.662 41.2739 381.087 41.2466ZM381.027 38.8744C381.349 38.8744 381.442 39.0888 381.442 39.377H380.618C380.611 39.1089 380.705 38.8744 381.027 38.8744Z" fill="white"/>
<path d="M384.203 41.1929H383.071V39.0887H382.655V38.365H383.071V38.3248C383.035 38.045 383.101 37.7617 383.258 37.5273C383.499 37.2849 383.837 37.1663 384.176 37.2057L385.021 37.2794V37.9964L384.505 37.9495C384.223 37.9495 384.143 38.0902 384.17 38.365H384.894V39.0887H384.203V41.1929Z" fill="white"/>
<path fill-rule="evenodd" clip-rule="evenodd" d="M386.81 37.3598L386.81 37.3565C386.812 37.5633 386.978 37.7314 387.185 37.735C387.393 37.735 387.561 37.567 387.561 37.3598C387.561 37.1525 387.393 36.9845 387.185 36.9845C386.979 36.9845 386.812 37.1507 386.81 37.3565L386.81 37.3532V37.3598ZM387.338 41.2777C387.937 41.014 388.317 40.4133 388.298 39.7588C388.312 39.3323 388.145 38.9196 387.839 38.6223C387.533 38.325 387.115 38.1708 386.689 38.1974C386.035 38.1977 385.446 38.5948 385.2 39.2016C384.954 39.8084 385.1 40.5037 385.57 40.9597C386.04 41.4158 386.739 41.5415 387.338 41.2777ZM386.683 40.563C386.475 40.563 386.287 40.5027 386.287 39.7186H386.294L386.294 39.7048C386.294 39.4208 386.294 38.9279 386.683 38.9279C387.078 38.9279 387.078 39.4372 387.078 39.7186C387.078 40.5027 386.891 40.563 386.683 40.563ZM385.805 37.3565C385.805 37.3576 385.805 37.3587 385.805 37.3598V37.3532C385.805 37.3543 385.805 37.3554 385.805 37.3565ZM386.18 36.9845C385.974 36.9845 385.807 37.1507 385.805 37.3565C385.807 37.5633 385.973 37.7314 386.18 37.735C386.387 37.735 386.555 37.567 386.555 37.3598C386.555 37.1525 386.387 36.9845 386.18 36.9845Z" fill="white"/>
<path d="M389.611 38.8676C389.712 38.4589 389.919 38.1975 390.375 38.1975H390.529V39.2228C390.458 39.2143 390.386 39.2143 390.315 39.2228C390.135 39.1991 389.957 39.2765 389.852 39.4238C389.785 39.5823 389.757 39.7549 389.772 39.9264V41.1997H388.619V38.2645H389.591V38.8676H389.611Z" fill="white"/>
<path fill-rule="evenodd" clip-rule="evenodd" d="M391.97 37.266H390.817L390.797 41.1863H391.467C391.504 41.0471 391.556 40.9123 391.622 40.7842C391.835 41.0872 392.19 41.2593 392.56 41.2399C393.478 41.2399 393.82 40.4893 393.82 39.6785C393.82 38.9815 393.538 38.1975 392.721 38.1975C392.411 38.168 392.114 38.3297 391.97 38.6063V37.266ZM392.298 40.5429C391.97 40.5429 391.97 40.2615 391.97 40.0336V39.3769C391.951 39.2693 391.975 39.1586 392.037 39.0686C392.093 38.9866 392.186 38.9367 392.285 38.9346C392.674 38.9346 392.674 39.4573 392.674 39.7388C392.674 40.0202 392.627 40.5429 392.298 40.5429Z" fill="white"/>
<path d="M395.917 41.193V40.7105C395.771 41.0664 395.409 41.2843 395.026 41.2466C394.782 41.2644 394.541 41.1849 394.356 41.0255C394.18 40.8225 394.097 40.5551 394.128 40.2883V38.2779H395.26V40.0471C395.26 40.2347 395.26 40.4358 395.515 40.4358C395.631 40.4359 395.737 40.3712 395.79 40.2682C395.834 40.1717 395.855 40.066 395.85 39.96V38.2645H396.983V41.193H395.917Z" fill="white"/>
<path d="M398.671 38.2645V38.6799C398.823 38.3657 399.155 38.1787 399.502 38.2108C399.789 38.1916 400.07 38.3023 400.266 38.5124C400.419 38.778 400.483 39.0858 400.447 39.3903V41.1929H399.301V39.4171C399.301 39.2361 399.301 38.9949 399.053 38.9949C398.805 38.9949 398.711 39.2629 398.711 39.5042V41.1929H397.572V38.2645H398.671Z" fill="white"/>
<path fill-rule="evenodd" clip-rule="evenodd" d="M402.692 40.8043V41.193L403.764 41.1997V37.266H402.598V38.4923C402.421 38.3116 402.181 38.206 401.928 38.1975C401.044 38.1975 400.782 39.0217 400.782 39.7455C400.782 40.4692 401.07 41.2533 401.915 41.2533C402.242 41.2814 402.553 41.1022 402.692 40.8043ZM402.565 39.0351C402.624 39.1386 402.648 39.2587 402.632 39.3769V39.9666C402.651 40.0957 402.628 40.2275 402.565 40.3419C402.514 40.435 402.416 40.492 402.31 40.4893C401.935 40.4893 401.935 40.0269 401.935 39.7723C401.938 39.5899 401.958 39.4081 401.995 39.2295C402.029 39.0552 402.116 38.9212 402.317 38.9212C402.413 38.9185 402.504 38.9607 402.565 39.0351Z" fill="white"/>
<path fill-rule="evenodd" clip-rule="evenodd" d="M405.788 41.2465C406.473 41.3073 407.105 40.8706 407.289 40.2078L406.217 40.1341C406.209 40.2426 406.156 40.3428 406.071 40.4103C405.985 40.4778 405.875 40.5065 405.768 40.4893C405.426 40.4893 405.326 40.2614 405.326 39.9465H407.283V39.7923C407.319 39.364 407.166 38.9413 406.865 38.6348C406.563 38.3283 406.143 38.1686 405.714 38.1974C405.287 38.1743 404.87 38.333 404.566 38.6343C404.262 38.9356 404.1 39.3514 404.12 39.7789C404.115 40.1975 404.291 40.5976 404.602 40.878C404.938 41.1441 405.361 41.2755 405.788 41.2465ZM405.728 38.8743C406.049 38.8743 406.143 39.0887 406.143 39.3769H405.319C405.312 39.1088 405.406 38.8743 405.728 38.8743Z" fill="white"/>
<path d="M407.343 39.015V38.2644H407.819L407.906 37.3329L408.891 37.2994V38.2644H409.474V39.0083H408.897V40.0135C408.897 40.2279 408.897 40.3887 409.145 40.3887C409.257 40.3851 409.367 40.3671 409.474 40.3351V41.1527L408.804 41.2398C408.499 41.2837 408.193 41.1731 407.986 40.945C407.804 40.7064 407.726 40.404 407.772 40.1073V39.015H407.343Z" fill="white"/>
<path d="M372.194 46.2391H370.961L369.695 42.3054H370.961L371.578 44.4297L371.692 44.8184L371.799 44.4431L372.416 42.2987H373.407L372.194 46.2391Z" fill="white"/>
<path d="M375.351 46.2391V45.7566C375.205 46.1125 374.842 46.3304 374.459 46.2927C374.216 46.3105 373.975 46.231 373.789 46.0716C373.613 45.8686 373.531 45.6012 373.561 45.3344V43.324H374.694V45.0932C374.694 45.2808 374.694 45.4818 374.949 45.4818C375.064 45.482 375.171 45.4173 375.223 45.3143C375.268 45.2178 375.288 45.1121 375.284 45.006V43.2838H376.423V46.2391H375.351Z" fill="white"/>
<path d="M378.822 46.239L378.286 45.3075L377.71 46.239H376.771L377.797 44.6843L376.899 43.3105H378.185L378.48 43.8466V43.907L378.541 44.0075L378.594 43.9137L378.628 43.8533L378.949 43.3038H379.908L379.057 44.6441L380.115 46.239H378.822Z" fill="white"/>
<path fill-rule="evenodd" clip-rule="evenodd" d="M381.717 46.239C382.397 46.3061 383.029 45.8818 383.225 45.2271L382.139 45.1601C382.131 45.2686 382.078 45.3688 381.993 45.4363C381.907 45.5038 381.798 45.5325 381.69 45.5153C381.348 45.5153 381.248 45.2874 381.248 44.9725H383.218V44.8183C383.254 44.39 383.102 43.9673 382.8 43.6608C382.499 43.3543 382.079 43.1946 381.65 43.2234C381.231 43.2011 380.822 43.3536 380.519 43.6444C380.217 43.9353 380.049 44.3385 380.055 44.758C380.051 45.1766 380.227 45.5767 380.538 45.857C380.87 46.1264 381.29 46.2625 381.717 46.239ZM381.663 43.8936C381.985 43.8936 382.079 44.108 382.079 44.3962H381.255C381.248 44.1281 381.342 43.8936 381.663 43.8936Z" fill="white"/>
<path d="M384.665 43.2837V43.6992C384.818 43.385 385.149 43.198 385.496 43.2301C385.783 43.2109 386.064 43.3216 386.26 43.5317C386.413 43.7973 386.477 44.1051 386.441 44.4096V46.239H385.315V44.4364C385.315 44.2554 385.315 44.0142 385.068 44.0142C384.82 44.0142 384.726 44.2822 384.726 44.5235V46.239H383.593V43.2837H384.665Z" fill="white"/>
<path d="M387.674 45.2606C387.735 45.542 388.05 45.5756 388.298 45.5756C388.412 45.5756 388.733 45.5756 388.733 45.3946C388.733 45.2137 388.345 45.2137 388.237 45.207C387.628 45.1199 386.897 44.9992 386.897 44.2219C386.9 43.9018 387.074 43.6077 387.353 43.4512C387.639 43.2908 387.964 43.2141 388.291 43.2301C388.854 43.1763 389.391 43.482 389.631 43.994L388.767 44.1616C388.663 43.9822 388.463 43.882 388.257 43.9069C388.164 43.9069 387.889 43.9069 387.889 44.0611C387.889 44.2152 387.989 44.1951 388.063 44.2085C388.227 44.2402 388.393 44.2625 388.559 44.2755C388.837 44.291 389.108 44.364 389.357 44.4899C389.618 44.6457 389.777 44.9294 389.772 45.2338C389.772 46.0446 388.921 46.2725 388.257 46.2725C387.618 46.3587 387.004 45.9878 386.783 45.3812L387.674 45.2606Z" fill="white"/>
<path d="M392.298 44.289L393.31 46.239H392.097L391.548 45.0663L391.26 45.4349V46.239H390.127V42.2786H391.26V44.3962L391.508 44.0678L392.178 43.2771H393.176L392.298 44.289Z" fill="white"/>
<path fill-rule="evenodd" clip-rule="evenodd" d="M395.483 46.2996C396.082 46.0315 396.458 45.4268 396.433 44.7714C396.443 44.3471 396.275 43.9381 395.969 43.6438C395.664 43.3495 395.248 43.197 394.825 43.2234C394.169 43.2239 393.579 43.6226 393.334 44.231C393.089 44.8394 393.238 45.5356 393.711 45.9905C394.183 46.4453 394.885 46.5676 395.483 46.2996ZM394.818 45.5756C394.61 45.5756 394.423 45.5152 394.423 44.7312H394.429C394.429 44.7266 394.429 44.722 394.429 44.7173C394.429 44.4334 394.429 43.9404 394.818 43.9404C395.213 43.9404 395.213 44.4497 395.213 44.7312C395.213 45.5152 395.026 45.5756 394.818 45.5756Z" fill="white"/>
<path d="M397.968 46.239H396.828V42.2786H397.961L397.968 46.239Z" fill="white"/>
<path fill-rule="evenodd" clip-rule="evenodd" d="M400.347 45.8302C400.345 45.9675 400.359 46.1046 400.387 46.239H401.513C401.435 46.0246 401.403 45.7963 401.419 45.5689V44.5436C401.419 44.5045 401.419 44.4654 401.42 44.4263C401.424 44.0701 401.428 43.7196 401.084 43.4781C400.759 43.2908 400.386 43.2023 400.011 43.2234C399.341 43.2234 398.631 43.411 398.457 44.1884L399.502 44.2889C399.536 44.041 399.676 43.9605 399.951 43.9605C400.226 43.9605 400.293 44.0678 400.293 44.3291C399.903 44.3435 399.516 44.4043 399.14 44.5101C398.711 44.6025 398.396 44.9697 398.37 45.408C398.375 45.6648 398.489 45.9073 398.683 46.0757C398.877 46.2441 399.133 46.3229 399.388 46.2926C399.767 46.3204 400.132 46.1442 400.347 45.8302ZM399.556 45.3678C399.556 45.0127 400.011 44.8987 400.286 44.8987V44.9657C400.286 45.274 400.28 45.6359 399.851 45.6359C399.676 45.6359 399.556 45.5555 399.556 45.3678Z" fill="white"/>
<path d="M402.94 43.2837V43.6992C403.092 43.385 403.423 43.198 403.771 43.2301C404.058 43.2109 404.338 43.3216 404.535 43.5317C404.688 43.7973 404.751 44.1051 404.716 44.4096V46.239H403.597V44.4364C403.597 44.2554 403.597 44.0142 403.349 44.0142C403.101 44.0142 403.007 44.2822 403.007 44.5235V46.239H401.875V43.2837H402.94Z" fill="white"/>
</g>
</svg>
