<svg width="81" height="36" viewBox="0 0 81 36" fill="none" xmlns="http://www.w3.org/2000/svg">
<path fill-rule="evenodd" clip-rule="evenodd" d="M63.9243 24.5965H56.4608C56.8607 23.6585 57.1769 22.687 57.4057 21.6933H66.8344L69.32 19.2077H57.796C57.8371 18.7284 57.8576 18.2423 57.8576 17.7561C57.8576 17.27 57.8576 16.7838 57.796 16.3045H72.2232L74.7088 13.8395H57.4126C57.1833 12.8459 56.8671 11.8744 56.4676 10.9362H77.6189L80.1044 8.45068H55.1598C51.9713 3.41482 46.426 0.362549 40.4656 0.362549C34.5051 0.362549 28.9599 3.41482 25.7713 8.45068H0.799316L3.28488 10.9362H24.4361C24.0342 11.8742 23.7157 12.8457 23.4843 13.8395H6.18812L8.67368 16.325H23.1009C23.0598 16.8044 23.0393 17.2905 23.0393 17.7767C23.0393 18.2628 23.0393 18.749 23.1009 19.2283H11.5769L14.0762 21.6933H23.4843C23.7144 22.6875 24.0329 23.6591 24.4361 24.5965H16.9657L19.4513 27.0821H25.7576C28.9462 32.118 34.4914 35.1702 40.4519 35.1702C46.4123 35.1702 51.9576 32.118 55.1461 27.0821H61.4524L63.9243 24.5965ZM28.5376 21.6933H30.0714V15.8526L31.9681 21.7275H33.6868L35.5287 15.8937V21.7138H37.1104V13.8395H34.8234L32.8377 20.1253L30.8314 13.8395H28.5376V21.6933ZM38.9044 21.6933H40.5272L40.534 13.8395H38.9044V21.6933ZM43.8755 21.6933H42.3143V13.8395H44.2042L47.3471 19.5501V13.8395H48.9082V21.7138H47.0184L43.8823 16.0306L43.8755 21.6933ZM50.7296 21.6933H52.3524L52.3593 13.8395H50.7296V21.6933ZM25.518 17.7561C25.518 26.0001 32.201 32.6832 40.445 32.6832C48.6859 32.6756 55.3645 25.997 55.3721 17.7561C55.3721 9.51214 48.689 2.82907 40.445 2.82907C32.201 2.82907 25.518 9.51214 25.518 17.7561Z" fill="white"/>
</svg>
