<svg fill="none" height="22" viewBox="0 0 129 22" width="129" xmlns="http://www.w3.org/2000/svg"><g fill="#fff" opacity=".5"><path d="m42.118 6.46381c-1.3317 0-2.8754.4468-3.7834 1.50425v-7.506382c0-.059574-.0605-.119149-.1211-.119149h-3.5412c-.0606 0-.1211.059575-.1211.119149v20.002122c0 .0596.0605.1192.1211.1192h3.5412c.0606 0 .1211-.0596.1211-.1192v-7.9681c-.0151-1.534.8929-2.74041 2.6181-2.74041 1.8161 0 2.5879 1.26601 2.5879 2.80001v7.9085c0 .0596.0605.1192.1211.1192h3.5412c.0606 0 .1211-.0596.1211-.1192v-8.5489c-.0151-3.02343-1.6496-5.45109-5.206-5.45109z"/><path d="m53.0294-.00008653c-1.2864-.01489367-2.3457 1.02765653-2.3457 2.32340653 0 1.23617 1.0442 2.26383 2.3305 2.26383 1.4075 0 2.4819-1.20639 2.3155-2.5617-.1514-1.131919-1.135-2.0106429-2.3003-2.02553653z"/><path d="m54.7849 6.82129h-3.5413c-.0605 0-.1211.05957-.1211.11915v13.52336c0 .0596.0606.1192.1211.1192h3.5413c.0605 0 .121-.0596.121-.1192v-13.52336c0-.05958-.0454-.11915-.121-.11915z"/><path d="m66.695 6.46381c-2.0733 0-3.6018.89361-4.2374 1.87659v-7.878722c0-.059574-.0605-.119149-.1211-.119149h-3.4807c-.0605 0-.1211.059575-.1211.119149v20.002122c0 .0596.0606.1192.1211.1192h3.4202c.0605 0 .1211-.0596.1211-.1192v-1.5638c.7415 1.1766 2.2095 2.0106 4.1466 2.0106 3.9801 0 6.5982-3.0979 6.5982-7.2681 0-4.08082-2.3608-7.17869-6.4469-7.17869zm-.8172 11.15529c-1.9068 0-3.5261-1.4595-3.5261-3.9468 0-2.517 1.6193-3.91701 3.5261-3.91701 1.9371 0 3.4656 1.40001 3.4656 3.91701s-1.5436 3.9468-3.4656 3.9468z"/><path d="m96.4023 17.3956c-.2421.0446-.6508.0744-1.0291.0744-1.0745 0-1.6496-.3872-1.6496-1.5936v-5.7489h2.6938c.0606 0 .1211-.0596.1211-.1192v-3.06806c0-.05958-.0605-.11915-.1211-.11915h-2.6938v-3.99149c0-.05958-.0605-.11915-.121-.11915h-3.4959c-.0606 0-.1211.05957-.1211.11915v3.99149h-2.4214c-.0605 0-.1211.05957-.1211.11915v3.06806c0 .0596.0606.1192.1211.1192h2.4214v6.4042c0 2.6511 1.7101 4.2447 4.4342 4.2447 1.0291 0 1.695-.1638 2.0582-.2979.0454-.0149.0756-.0595.0756-.1191v-2.8447c0-.0745-.0756-.134-.1513-.1191z"/><path d="m128.879.342529h-3.511c-.061 0-.121.059575-.121.119149v7.744682c-.394-.72979-1.529-1.71277-3.95-1.71277-3.95 0-6.704 3.15745-6.704 7.19361 0 4.1702 2.845 7.2383 6.825 7.2383 1.877 0 3.299-.834 3.92-1.9362v1.4745c0 .0596.06.1192.121.1192h3.42c.061 0 .121-.0596.121-.1192v-2.3681-17.634022c0-.074468-.06-.119149-.121-.119149zm-7.022 17.276571c-1.983 0-3.466-1.4893-3.466-3.9468 0-2.4574 1.529-3.88722 3.466-3.88722s3.481 1.40002 3.481 3.85742c0 2.4873-1.559 3.9766-3.481 3.9766z"/><path d="m105.377 6.4043c-3.587 0-6.8711 2.85957-6.8711 7.2383 0 4.6468 3.3751 7.3574 7.2191 7.3574 2.86 0 4.873-1.3702 5.887-3.217.03-.0596 0-.134-.061-.1638l-2.83-1.2064c-.06-.0298-.121 0-.151.0447-.545.8191-1.438 1.3553-2.815 1.3553-1.877 0-3.435-1.3106-3.526-3.1277h9.882c.061 0 .121-.0446.121-.1042.015-.1936.045-.6255.045-1.0426 0-4.42336-2.572-7.134-6.9-7.134zm-3.073 5.734c.091-1.251 1.166-2.7106 3.133-2.7106 2.164 0 3.072 1.3404 3.133 2.7106z"/><path d="m82.1464 12.2126-1.9976-.4171c-.7718-.134-1.2712-.5212-1.2712-1.1914 0-.78941.8021-1.37026 1.7858-1.37026 1.362 0 1.9976.75957 2.2246 1.48936.0151.0596.0908.1043.1513.0745l2.8149-1.07237c.0605-.02979.0908-.08936.0757-.14894-.4995-1.42978-1.9825-3.15744-5.2968-3.15744-3.0116 0-5.2211 2.04042-5.2211 4.49785 0 1.9362 1.2258 3.5745 3.9196 4.1702l1.8463.417c1.0745.2235 1.5134.6703 1.5134 1.2958 0 .7298-.5903 1.3702-1.8463 1.3702-1.5891 0-2.4063-.9234-2.5425-1.966-.0151-.0744-.0757-.1191-.1513-.1042l-2.9965.6404c-.0605.0149-.1059.0745-.0908.1341.227 1.5787 1.695 4.1404 5.8113 4.1404 3.6624 0 5.433-2.2936 5.433-4.5277-.0151-2.0255-1.4074-3.7234-4.1618-4.2744z"/><path d="m32.2055 16.3234-3.0872-1.0127c-.0606-.0149-.1362.0149-.1514.0744-.348 1.0426-1.3166 2.2043-3.178 2.2043-1.9371 0-3.5867-1.4-3.5867-3.8872 0-2.4873 1.6193-3.85748 3.5564-3.85748 1.6042 0 2.4819.86388 2.9208 1.83188.0303.0596.0908.0894.1513.0596l3.1781-1.0723c.0605-.0149.0908-.0894.0757-.149-.787-2.12975-2.8906-4.1106-6.4167-4.1106-4.0558 0-7.249 3.05319-7.249 7.2979 0 4.2298 3.2386 7.2978 7.355 7.2978 3.6623 0 5.8415-2.2787 6.5074-4.5276.0303-.0596 0-.1341-.0757-.149z"/><path d="m10.6401 8.96594-2.82998-.53617c-1.48309-.28298-2.19437-1.14681-2.19437-2.24894 0-1.32553 1.25609-2.53191 3.16293-2.53191 2.25492 0 3.23862 1.32553 3.57152 2.39787.0151.07447.0908.10426.1665.08936l3.284-1.01276c.0605-.0149.1059-.08936.0908-.14894-.6054-2.17447-2.5425-4.736169-7.14309-4.736169-3.81367 0-7.03713 2.695749-7.03713 6.225529 0 3.00851 2.08844 5.04889 5.3119 5.70429l2.82998.5659c1.57394.3128 2.45164 1.2064 2.45164 2.3532 0 1.4-1.1653 2.4426-3.28399 2.4426-2.67864 0-4.07094-1.549-4.37361-3.366-.01513-.0745-.0908-.1191-.16647-.1042l-3.38992.9085c-.06054.0149-.10594.0744-.09081.1489.46915 2.7553 2.84512 5.883 7.99055 5.883 4.70655 0 7.30955-3.083 7.30955-6.1511 0-2.8149-1.9674-5.18296-5.66-5.88296z"/></g></svg>