<svg width="43" height="43" viewBox="0 0 43 43" fill="none" xmlns="http://www.w3.org/2000/svg">
<path fill-rule="evenodd" clip-rule="evenodd" d="M15.8151 1.41533C23.0921 -0.533775 30.8562 1.54825 36.1816 6.87687C41.5103 12.2023 43.5923 19.9664 41.6432 27.2434C39.6941 34.5205 34.0101 40.2045 26.733 42.1536C19.456 44.1027 11.6919 42.0207 6.36643 36.6921C1.03782 31.3666 -1.04421 23.6025 0.904895 16.3255C2.854 9.04844 8.53801 3.36444 15.8151 1.41533ZM2.44322 29.5653C5.59514 37.1821 13.0309 42.1449 21.274 42.1335L21.3054 42.1085C30.5104 42.093 38.5587 35.9 40.9321 27.0062C43.3055 18.1124 39.4129 8.73283 31.4395 4.13308C23.4661 -0.466673 13.3978 0.858984 6.88675 7.36585C1.04592 13.1826 -0.708698 21.9485 2.44322 29.5653Z" fill="white"/>
<path fill-rule="evenodd" clip-rule="evenodd" d="M21.274 21.7845H9.61377C9.61377 15.3448 14.8343 10.1243 21.274 10.1243V21.7845ZM21.274 21.7845H32.9343C32.9343 28.2243 27.7138 33.4448 21.274 33.4448V21.7845Z" fill="white"/>
<path fill-rule="evenodd" clip-rule="evenodd" d="M21.274 2.26929C10.496 2.26929 1.75873 11.0066 1.75873 21.7846C1.75873 32.5626 10.496 41.2999 21.274 41.2999C32.052 41.2999 40.7893 32.5626 40.7893 21.7846C40.7893 16.6088 38.7332 11.645 35.0734 7.98518C31.4136 4.32536 26.4498 2.26929 21.274 2.26929ZM18.4216 3.33501H19.9638L21.3618 6.99609L22.7598 3.33501H24.3019V8.4693H23.2801V4.85837L21.926 8.44422H20.8039L19.4498 4.85837V8.44422H18.4216V3.33501ZM7.97754 8.80155L5.46996 11.7856L9.41314 15.0768L12.0586 11.9423C12.6605 11.2214 12.7482 10.5192 12.1213 9.89235C11.6771 9.45734 10.9883 9.39448 10.4726 9.7419C10.5606 9.49455 10.5606 9.22443 10.4726 8.97708C10.3475 8.697 10.1534 8.45325 9.90838 8.26869C9.23134 7.69194 8.49787 8.17465 7.97754 8.80155ZM21.274 34.2473C14.3911 34.2473 8.81132 28.6675 8.81132 21.7846C8.81132 14.9016 14.3911 9.32188 21.274 9.32188C28.157 9.32188 33.7367 14.9016 33.7367 21.7846C33.7367 25.0899 32.4237 28.2598 30.0865 30.597C27.7493 32.9343 24.5793 34.2473 21.274 34.2473ZM31.9563 14.0361L32.8904 15.1959L37.6423 12.914L36.8461 11.9298L33.8433 13.3528L35.7804 10.6133L34.9278 9.5601L31.8435 10.8828L33.8621 8.24361L33.0659 7.25938L29.8437 11.4032L30.7903 12.5755L33.837 11.3217L31.9563 14.0361Z" fill="white"/>
<path fill-rule="evenodd" clip-rule="evenodd" d="M9.35045 9.54113C9.1148 9.33687 8.76485 9.33687 8.52921 9.54113L7.02466 11.3215L7.95873 12.1051L9.44448 10.331C9.54323 10.2164 9.58928 10.0656 9.5714 9.91537C9.55352 9.76515 9.47334 9.62936 9.35045 9.54113ZM9.60747 13.5157L11.1747 11.635V11.6475C11.4067 11.3792 11.3772 10.9736 11.1089 10.7416C10.8406 10.5097 10.435 10.5391 10.203 10.8075L8.62324 12.6882L9.60747 13.5157Z" fill="white"/>
</svg>
