<svg width="46" height="47" viewBox="0 0 46 47" fill="none" xmlns="http://www.w3.org/2000/svg">
<path fill-rule="evenodd" clip-rule="evenodd" d="M16.8727 7.45197H32.661V0.321777H16.8727C15.519 0.321777 13.6896 1.32027 13.6896 3.90698C13.6366 4.80041 13.9433 5.67789 14.5412 6.34382C15.1392 7.00976 15.9787 7.40879 16.8727 7.45197ZM16.8727 2.28526H30.5568V5.62251H16.9464C16.3331 5.28782 15.9505 4.64589 15.9479 3.94719C15.9332 3.2668 16.2868 2.63143 16.8727 2.28526Z" fill="white"/>
<path fill-rule="evenodd" clip-rule="evenodd" d="M32.661 12.0625C32.661 9.16086 31.3609 8.41031 29.5315 8.29639C28.4995 8.30979 13.7164 8.30309 13.7164 8.30309V15.7348H15.3582H29.498C30.4495 15.7348 32.661 14.9642 32.661 12.0625ZM15.8407 10.4743H29.5315C30.1114 10.7885 30.4641 11.4033 30.4428 12.0625C30.4362 12.7092 30.0935 13.3058 29.5382 13.6373H15.8407V10.4743Z" fill="white"/>
<path fill-rule="evenodd" clip-rule="evenodd" d="M23.1324 18.9435C23.0463 18.8252 22.9636 18.7117 22.8838 18.6165C22.7262 18.4024 22.6064 18.2396 22.5089 18.1069C22.1086 17.5626 22.082 17.5264 21.3492 16.5458H13.6561C13.7435 16.7626 13.8306 16.9788 13.9174 17.1942C16.3597 23.2555 18.5749 28.753 21.0275 34.5254H26.0803L27.5077 30.7458C27.7668 30.0579 28.0247 29.3751 28.2815 28.6954C29.7982 24.6811 31.2742 20.7743 32.7012 16.5391H25.1153C24.8477 17.0357 24.6343 17.3786 24.3976 17.7592C24.1425 18.1694 23.8601 18.6233 23.4534 19.3603C23.3409 19.2296 23.2342 19.0832 23.1324 18.9435ZM23.5539 22.5568L26.2344 18.5763L29.8665 18.5964C26.8308 26.2359 26.2344 27.7638 24.5055 32.267H22.4951C21.3502 29.4545 20.0295 26.3357 18.688 23.1677C18.035 21.6256 17.377 20.0718 16.732 18.5361H20.5383C21.5837 19.8763 22.6559 21.3037 23.5539 22.5568Z" fill="white"/>
<path d="M2.03599 39.8528C2.12815 40.1642 2.43031 40.3647 2.75303 40.3286C2.90716 40.3286 3.21542 40.3286 3.21542 40.0874C3.21542 39.8461 2.91386 39.7992 2.73292 39.7657C1.99578 39.625 1.11791 39.424 1.11791 38.4858C1.12682 38.1054 1.31269 37.7511 1.62051 37.5275C1.9585 37.3204 2.35019 37.2178 2.74633 37.2326C3.43036 37.1699 4.07503 37.5616 4.33454 38.1976L3.33604 38.4992C3.2414 38.2355 2.97769 38.0718 2.69942 38.1038C2.53859 38.1038 2.31074 38.1507 2.31074 38.3585C2.31074 38.5662 2.5989 38.6064 2.74633 38.6399C3.12995 38.6928 3.50434 38.7988 3.85875 38.9549C4.22997 39.1502 4.45655 39.5409 4.44176 39.9601C4.44176 40.905 3.50358 41.3003 2.68602 41.3003C1.88185 41.3888 1.13236 40.8806 0.91687 40.1008L2.03599 39.8528Z" fill="white"/>
<path d="M4.54898 39.0151V38.2645H5.02477L5.11189 37.3331L6.09698 37.2996V38.2645H6.68V39.0084H6.10368V40.0136C6.10368 40.228 6.10368 40.3889 6.35163 40.3889C6.46294 40.3852 6.57331 40.3672 6.68 40.3353V41.1528L6.00987 41.2399C5.70421 41.2878 5.39486 41.1797 5.18561 40.9518C5.00339 40.7132 4.92598 40.4109 4.97116 40.1141V39.0151H4.54898Z" fill="white"/>
<path d="M8.85791 41.1931V40.7106C8.71179 41.0665 8.34951 41.2844 7.96664 41.2467C7.72281 41.2645 7.48187 41.185 7.29651 41.0256C7.12063 40.8227 7.03797 40.5552 7.06866 40.2884V38.2781H8.20118V40.0472C8.20118 40.2348 8.20118 40.4359 8.45583 40.4359C8.57161 40.4361 8.67773 40.3714 8.73059 40.2683C8.77483 40.1718 8.7955 40.0662 8.7909 39.9601V38.2646H9.92342V41.1931H8.85791Z" fill="white"/>
<path fill-rule="evenodd" clip-rule="evenodd" d="M12.3024 40.8044V41.1931L13.3478 41.1998V37.2661H12.2153V38.4925C12.0381 38.3117 11.7981 38.2061 11.5451 38.1976C10.6606 38.1976 10.3925 39.0219 10.3925 39.7456C10.3925 40.4693 10.6807 41.2534 11.525 41.2534C11.8527 41.2816 12.1631 41.1023 12.3024 40.8044ZM12.1751 39.0353C12.2343 39.1387 12.2579 39.2588 12.2421 39.377V39.9667C12.2614 40.0958 12.2379 40.2276 12.1751 40.342C12.1247 40.4351 12.0263 40.4921 11.9204 40.4894C11.5451 40.4894 11.5451 40.0271 11.5451 39.7724C11.5483 39.59 11.5684 39.4083 11.6055 39.2296C11.639 39.0554 11.7261 38.9213 11.9271 38.9213C12.023 38.9187 12.1146 38.9608 12.1751 39.0353Z" fill="white"/>
<path fill-rule="evenodd" clip-rule="evenodd" d="M13.8973 37.9832H15.003L15.0298 37.2058H13.8973V37.9832ZM13.8973 41.1931H15.003L15.0298 38.2646H13.8973V41.1931Z" fill="white"/>
<path fill-rule="evenodd" clip-rule="evenodd" d="M17.0871 41.2466C17.7724 41.3074 18.4036 40.8707 18.5882 40.2079L17.5495 40.1476C17.5415 40.2561 17.4884 40.3563 17.403 40.4238C17.3177 40.4913 17.208 40.52 17.1005 40.5028C16.7588 40.5028 16.6583 40.2749 16.6583 39.96H18.5882V39.8058C18.6276 39.3802 18.4804 38.9585 18.1846 38.6499C17.8889 38.3413 17.4738 38.1763 17.0469 38.1975C16.6151 38.1664 16.1906 38.3216 15.8807 38.6238C15.5707 38.9261 15.4049 39.3466 15.4252 39.779C15.4212 40.1976 15.5969 40.5977 15.9077 40.8781C16.2417 41.1426 16.6619 41.2739 17.0871 41.2466ZM17.0268 38.8744C17.3485 38.8744 17.4423 39.0888 17.4423 39.377H16.6181C16.6113 39.1089 16.7052 38.8744 17.0268 38.8744Z" fill="white"/>
<path d="M20.2032 41.1931H19.0707V39.0889H18.6552V38.3651H19.0707V38.3249C19.0348 38.0451 19.1014 37.7618 19.2584 37.5275C19.4988 37.285 19.8373 37.1664 20.1764 37.2058L21.0208 37.2795V37.9965L20.5048 37.9496C20.2233 37.9496 20.1429 38.0904 20.1697 38.3651H20.8935V39.0889H20.2032V41.1931Z" fill="white"/>
<path fill-rule="evenodd" clip-rule="evenodd" d="M22.8101 37.3599L22.8101 37.3566C22.8118 37.5634 22.9781 37.7315 23.1853 37.7352C23.3926 37.7352 23.5606 37.5672 23.5606 37.3599C23.5606 37.1526 23.3926 36.9846 23.1853 36.9846C22.9792 36.9846 22.8119 37.1509 22.8101 37.3566L22.8101 37.3533V37.3599ZM23.3381 41.2779C23.9373 41.0141 24.3168 40.4134 24.2978 39.759C24.3118 39.3324 24.1452 38.9197 23.839 38.6225C23.5328 38.3252 23.1154 38.1709 22.6894 38.1976C22.0347 38.1978 21.4455 38.595 21.1996 39.2017C20.9537 39.8085 21.1001 40.5038 21.5698 40.9598C22.0396 41.4159 22.7389 41.5417 23.3381 41.2779ZM22.6827 40.5631C22.475 40.5631 22.2874 40.5028 22.2874 39.7188H22.2941L22.2941 39.7049C22.294 39.4209 22.2938 38.928 22.6827 38.928C23.0781 38.928 23.0781 39.4373 23.0781 39.7188C23.0781 40.5028 22.8905 40.5631 22.6827 40.5631ZM21.8049 37.3566C21.8049 37.3577 21.8049 37.3588 21.8049 37.3599V37.3533C21.8049 37.3544 21.8049 37.3555 21.8049 37.3566ZM22.1801 36.9846C21.974 36.9846 21.8067 37.1509 21.8049 37.3566C21.8067 37.5634 21.9729 37.7315 22.1801 37.7352C22.3874 37.7352 22.5554 37.5672 22.5554 37.3599C22.5554 37.1526 22.3874 36.9846 22.1801 36.9846Z" fill="white"/>
<path d="M25.6112 38.8678C25.7117 38.459 25.9195 38.1976 26.3752 38.1976H26.5293V39.2229C26.4581 39.2144 26.3861 39.2144 26.3148 39.2229C26.1354 39.1992 25.9575 39.2766 25.8525 39.424C25.7849 39.5824 25.7573 39.755 25.772 39.9266V41.1998H24.6194V38.2646H25.5911V38.8678H25.6112Z" fill="white"/>
<path fill-rule="evenodd" clip-rule="evenodd" d="M27.9701 37.2661H26.8174L26.7973 41.1864H27.4675C27.5043 41.0472 27.556 40.9124 27.6216 40.7843C27.8353 41.0873 28.1895 41.2594 28.5598 41.24C29.4779 41.24 29.8196 40.4894 29.8196 39.6786C29.8196 38.9816 29.5382 38.1976 28.7206 38.1976C28.4105 38.1681 28.1135 38.3298 27.9701 38.6064V37.2661ZM28.2984 40.5431C27.9701 40.5431 27.9701 40.2616 27.9701 40.0338V39.377C27.951 39.2695 27.9751 39.1587 28.0371 39.0688C28.0933 38.9867 28.1856 38.9368 28.285 38.9347C28.6737 38.9347 28.6737 39.4574 28.6737 39.7389C28.6737 40.0204 28.6268 40.5431 28.2984 40.5431Z" fill="white"/>
<path d="M31.9171 41.1931V40.7106C31.771 41.0665 31.4087 41.2844 31.0258 41.2467C30.782 41.2645 30.5411 41.185 30.3557 41.0256C30.1798 40.8227 30.0972 40.5552 30.1279 40.2884V38.2781H31.2604V40.0472C31.2604 40.2348 31.2604 40.4359 31.515 40.4359C31.6308 40.4361 31.7369 40.3714 31.7898 40.2683C31.834 40.1718 31.8547 40.0662 31.8501 39.9601V38.2646H32.9826V41.1931H31.9171Z" fill="white"/>
<path d="M34.6714 38.2646V38.6801C34.8235 38.3658 35.1547 38.1789 35.5023 38.211C35.7893 38.1917 36.0698 38.3024 36.2663 38.5125C36.4193 38.7781 36.4827 39.0859 36.4472 39.3904V41.193H35.3013V39.4172C35.3013 39.2363 35.3013 38.995 35.0533 38.995C34.8054 38.995 34.7116 39.2631 34.7116 39.5043V41.193H33.5724V38.2646H34.6714Z" fill="white"/>
<path fill-rule="evenodd" clip-rule="evenodd" d="M38.6922 40.8044V41.1931L39.7644 41.1998V37.2661H38.5983V38.4925C38.4211 38.3117 38.1812 38.2061 37.9282 38.1976C37.0436 38.1976 36.7823 39.0219 36.7823 39.7456C36.7823 40.4693 37.0704 41.2534 37.9148 41.2534C38.2424 41.2816 38.5528 41.1023 38.6922 40.8044ZM38.5648 39.0353C38.6241 39.1387 38.6477 39.2588 38.6318 39.377V39.9667C38.6512 40.0958 38.6276 40.2276 38.5648 40.342C38.5144 40.4351 38.416 40.4921 38.3102 40.4894C37.9349 40.4894 37.9349 40.0271 37.9349 39.7724C37.9381 39.59 37.9583 39.4083 37.9952 39.2296C38.0287 39.0554 38.1158 38.9213 38.3169 38.9213C38.4128 38.9187 38.5044 38.9608 38.5648 39.0353Z" fill="white"/>
<path fill-rule="evenodd" clip-rule="evenodd" d="M41.7882 41.2466C42.4735 41.3074 43.1046 40.8707 43.2893 40.2079L42.217 40.1342C42.209 40.2427 42.1559 40.3429 42.0706 40.4104C41.9852 40.4779 41.8755 40.5066 41.7681 40.4894C41.4263 40.4894 41.3258 40.2616 41.3258 39.9466H43.2826V39.7925C43.3187 39.3642 43.1661 38.9414 42.8648 38.6349C42.5634 38.3284 42.1433 38.1687 41.7144 38.1975C41.2871 38.1744 40.8699 38.3331 40.5661 38.6344C40.2622 38.9357 40.1 39.3516 40.1195 39.7791C40.1155 40.1976 40.2912 40.5978 40.602 40.8781C40.9378 41.1442 41.3607 41.2756 41.7882 41.2466ZM41.7279 38.8744C42.0495 38.8744 42.1433 39.0888 42.1433 39.377H41.3191C41.3124 39.1089 41.4062 38.8744 41.7279 38.8744Z" fill="white"/>
<path d="M43.3429 39.0151V38.2645H43.8187L43.9058 37.3331L44.8909 37.2996V38.2645H45.4739V39.0084H44.8976V40.0136C44.8976 40.228 44.8976 40.3889 45.1455 40.3889C45.2568 40.3852 45.3672 40.3672 45.4739 40.3353V41.1528L44.8038 41.2399C44.4991 41.2838 44.1927 41.1733 43.9862 40.9451C43.804 40.7065 43.7266 40.4042 43.7717 40.1074V39.0151H43.3429Z" fill="white"/>
<path d="M8.1945 46.2392H6.96146L5.69492 42.3055H6.96146L7.57798 44.4298L7.69191 44.8185L7.79913 44.4432L8.41565 42.2988H9.40744L8.1945 46.2392Z" fill="white"/>
<path d="M11.3508 46.2391V45.7566C11.2047 46.1125 10.8424 46.3304 10.4595 46.2927C10.2157 46.3105 9.97476 46.231 9.7894 46.0716C9.61352 45.8686 9.53086 45.6012 9.56155 45.3344V43.324H10.6941V45.0932C10.6941 45.2808 10.6941 45.4818 10.9487 45.4818C11.0645 45.482 11.1706 45.4173 11.2235 45.3143C11.2677 45.2178 11.2884 45.1121 11.2838 45.006V43.2838H12.423V46.2391H11.3508Z" fill="white"/>
<path d="M14.8221 46.2391L14.286 45.3076L13.7097 46.2391H12.7715L13.7968 44.6844L12.8988 43.3107H14.1855L14.4803 43.8468V43.9071L14.5406 44.0076L14.5942 43.9138L14.6277 43.8535L14.9494 43.304H15.9077L15.0566 44.6442L16.1154 46.2391H14.8221Z" fill="white"/>
<path fill-rule="evenodd" clip-rule="evenodd" d="M17.7171 46.2391C18.3971 46.3062 19.0292 45.882 19.2248 45.2272L18.1392 45.1602C18.1312 45.2687 18.0781 45.3689 17.9927 45.4364C17.9074 45.5039 17.7977 45.5326 17.6902 45.5154C17.3485 45.5154 17.248 45.2876 17.248 44.9726H19.2181V44.8185C19.2543 44.3902 19.1017 43.9674 18.8004 43.6609C18.499 43.3544 18.0789 43.1947 17.65 43.2235C17.2311 43.2012 16.8217 43.3537 16.5194 43.6446C16.2171 43.9354 16.049 44.3387 16.0551 44.7581C16.0511 45.1767 16.2268 45.5769 16.5376 45.8572C16.8697 46.1265 17.2901 46.2626 17.7171 46.2391ZM17.6634 43.8937C17.9851 43.8937 18.0789 44.1081 18.0789 44.3963H17.2547C17.248 44.1282 17.3418 43.8937 17.6634 43.8937Z" fill="white"/>
<path d="M20.6656 43.2839V43.6993C20.8178 43.3851 21.1489 43.1981 21.4966 43.2303C21.7836 43.211 22.0641 43.3217 22.2605 43.5318C22.4135 43.7974 22.477 44.1052 22.4415 44.4097V46.2391H21.3157V44.4365C21.3157 44.2556 21.3157 44.0143 21.0677 44.0143C20.8198 44.0143 20.7259 44.2824 20.7259 44.5236V46.2391H19.5934V43.2839H20.6656Z" fill="white"/>
<path d="M23.6745 45.2607C23.7348 45.5422 24.0498 45.5757 24.2977 45.5757C24.4117 45.5757 24.7333 45.5757 24.7333 45.3947C24.7333 45.2138 24.3446 45.2138 24.2374 45.2071C23.6276 45.12 22.8972 44.9994 22.8972 44.222C22.8997 43.9019 23.0736 43.6078 23.3528 43.4514C23.6386 43.2909 23.9637 43.2142 24.291 43.2302C24.8542 43.1765 25.3906 43.4822 25.6313 43.9942L24.7668 44.1617C24.6635 43.9824 24.463 43.8821 24.2575 43.9071C24.1637 43.9071 23.8889 43.9071 23.8889 44.0612C23.8889 44.2153 23.9895 44.1952 24.0632 44.2086C24.2271 44.2403 24.3927 44.2626 24.5591 44.2756C24.8369 44.2912 25.1084 44.3642 25.3565 44.4901C25.6181 44.6459 25.7765 44.9295 25.772 45.2339C25.772 46.0448 24.921 46.2726 24.2575 46.2726C23.6177 46.3588 23.0042 45.9879 22.7832 45.3813L23.6745 45.2607Z" fill="white"/>
<path d="M28.2984 44.2891L29.3103 46.2392H28.0974L27.5479 45.0664L27.2597 45.435V46.2392H26.1272V42.2787H27.2597V44.3963L27.5077 44.0679L28.1778 43.2772H29.1763L28.2984 44.2891Z" fill="white"/>
<path fill-rule="evenodd" clip-rule="evenodd" d="M31.4832 46.2997C32.0819 46.0317 32.4577 45.427 32.4331 44.7715C32.4434 44.3473 32.2751 43.9382 31.9693 43.6439C31.6636 43.3496 31.2484 43.1971 30.8248 43.2235C30.1689 43.224 29.579 43.6227 29.334 44.2311C29.0891 44.8395 29.2381 45.5358 29.7106 45.9906C30.1832 46.4454 30.8846 46.5678 31.4832 46.2997ZM30.8181 45.5757C30.6104 45.5757 30.4227 45.5154 30.4227 44.7313H30.4295C30.4295 44.7268 30.4294 44.7221 30.4294 44.7175C30.4293 44.4335 30.4292 43.9406 30.8181 43.9406C31.2135 43.9406 31.2135 44.4499 31.2135 44.7313C31.2135 45.5154 31.0259 45.5757 30.8181 45.5757Z" fill="white"/>
<path d="M33.9677 46.2392H32.8285V42.2787H33.961L33.9677 46.2392Z" fill="white"/>
<path fill-rule="evenodd" clip-rule="evenodd" d="M36.3467 45.8303C36.3454 45.9676 36.3589 46.1047 36.3869 46.2391H37.5127C37.4349 46.0248 37.4029 45.7965 37.4189 45.569V44.5437C37.4189 44.5046 37.4194 44.4655 37.4198 44.4265C37.424 44.0702 37.4281 43.7198 37.0838 43.4782C36.7588 43.2909 36.3862 43.2024 36.0116 43.2235C35.3415 43.2235 34.6312 43.4112 34.4569 44.1885L35.5023 44.289C35.5358 44.0411 35.6766 43.9607 35.9513 43.9607C36.2261 43.9607 36.2931 44.0679 36.2931 44.3292C35.9031 44.3437 35.5161 44.4044 35.1405 44.5102C34.7112 44.6026 34.3961 44.9698 34.3698 45.4082C34.3756 45.665 34.4894 45.9074 34.6834 46.0758C34.8773 46.2442 35.1333 46.323 35.3884 46.2927C35.7674 46.3205 36.1326 46.1443 36.3467 45.8303ZM35.5559 45.3679C35.5559 45.0128 36.0116 44.8989 36.2864 44.8989V44.9659C36.2864 45.2741 36.2797 45.636 35.8508 45.636C35.6766 45.636 35.5559 45.5556 35.5559 45.3679Z" fill="white"/>
<path d="M38.9401 43.2839V43.6993C39.0923 43.3851 39.4234 43.1981 39.7711 43.2303C40.0581 43.211 40.3385 43.3217 40.535 43.5318C40.688 43.7974 40.7515 44.1052 40.716 44.4097V46.2391H39.5968V44.4365C39.5968 44.2556 39.5968 44.0143 39.3489 44.0143C39.1009 44.0143 39.0071 44.2824 39.0071 44.5236V46.2391H37.8746V43.2839H38.9401Z" fill="white"/>
</svg>
