<svg xmlns="http://www.w3.org/2000/svg" viewBox="0 0 101.85 53.99"><defs><style>.cls-1{opacity:0.15;}.cls-2{fill:#1d1d1b;}</style></defs><title>aff</title><g id="Layer_2" data-name="Layer 2"><g id="Layer_1-2" data-name="Layer 1"><g class="cls-1"><path class="cls-2" d="M4.87,47.49H7v6.38H4.87v-.73A2.13,2.13,0,0,1,3.11,54a3.34,3.34,0,0,1,0-6.67,2.2,2.2,0,0,1,1.77.85ZM3.55,52a1.33,1.33,0,1,0-1.33-1.33A1.34,1.34,0,0,0,3.55,52Z"/><path class="cls-2" d="M8.42,44.14H10.6v9.73H8.42Z"/><path class="cls-2" d="M12.24,44.14h2.18v9.73H12.24Z"/><path class="cls-2" d="M18.82,47.49h1.34v1.6H18.82v4.78H16.67V49.09H15.51v-1.6h1.16V45.21h2.15Z"/><path class="cls-2" d="M28.5,46.21h-.82c-.51,0-.88.33-.89,1.05v.23h1.34v1.6H26.79v4.78H24.61V49.09H23.42v-1.6h1.19v-.23a2.81,2.81,0,0,1,3.07-3.12h.82Z"/><path class="cls-2" d="M32.12,54a3.33,3.33,0,1,1,3.42-3.33A3.29,3.29,0,0,1,32.12,54Zm-2.31-8.9a1,1,0,0,0,1.05,1,1,1,0,1,0,0-2A1,1,0,0,0,29.81,45.1Zm1,5.57a1.33,1.33,0,1,0,1.33-1.33A1.34,1.34,0,0,0,30.79,50.67Zm1.59-5.57a1,1,0,0,0,1.07,1,1,1,0,1,0,0-2A1,1,0,0,0,32.38,45.1Z"/><path class="cls-2" d="M38.71,53.87H36.54V47.49h2.07v1.57a2.14,2.14,0,0,1,3-1.56L41,49.56a2.68,2.68,0,0,0-1-.16c-.82,0-1.33.47-1.33,2.38Z"/><path class="cls-2" d="M49.62,46.21H48.8c-.51,0-.88.33-.89,1.05v.23h1.34v1.6H47.91v4.78H45.74V49.09H44.55v-1.6h1.19v-.23a2.81,2.81,0,0,1,3.07-3.12h.82Z"/><path class="cls-2" d="M53.24,54a3.33,3.33,0,1,1,3.42-3.33A3.29,3.29,0,0,1,53.24,54Zm-1.33-3.33a1.33,1.33,0,1,0,1.33-1.33A1.34,1.34,0,0,0,51.91,50.67Z"/><path class="cls-2" d="M59.84,53.87H57.66V47.49h2.07v1.57a2.14,2.14,0,0,1,3-1.56l-.53,2.05a2.68,2.68,0,0,0-1-.16c-.82,0-1.33.47-1.33,2.38Z"/><path class="cls-2" d="M67.9,47.49h2.18v6.38H67.9v-.73a2.13,2.13,0,0,1-1.77.85,3.34,3.34,0,0,1,0-6.67,2.2,2.2,0,0,1,1.77.85Zm-3.48-2.4a1,1,0,0,0,1.05,1,1,1,0,1,0,0-2A1,1,0,0,0,64.42,45.1Zm.82,5.58a1.33,1.33,0,1,0,1.33-1.33A1.34,1.34,0,0,0,65.25,50.68ZM67,45.1a1,1,0,0,0,1.07,1,1,1,0,1,0,0-2A1,1,0,0,0,67,45.1Zm-16.06,0a1,1,0,0,0,1.05,1,1,1,0,1,0,0-2A1,1,0,0,0,50.93,45.1Zm2.57,0a1,1,0,0,0,1.07,1,1,1,0,1,0,0-2A1,1,0,0,0,53.51,45.1Z"/><path class="cls-2" d="M71.45,44.14h2.18v9.73H71.45Z"/><path class="cls-2" d="M79.5,44.14h2.18v9.73H79.62V53a2,2,0,0,1-1.89,1,3.34,3.34,0,0,1,0-6.67,2.31,2.31,0,0,1,1.77.75ZM78.17,52a1.33,1.33,0,1,0-1.33-1.33A1.34,1.34,0,0,0,78.17,52Z"/><path class="cls-2" d="M85.22,53.87H83V47.49h2.07v1.57a2.14,2.14,0,0,1,3-1.56l-.53,2.05a2.68,2.68,0,0,0-1-.16c-.82,0-1.33.47-1.33,2.38Z"/><path class="cls-2" d="M93.28,47.49h2.18v6.38H93.28v-.73a2.13,2.13,0,0,1-1.77.85,3.34,3.34,0,0,1,0-6.67,2.2,2.2,0,0,1,1.77.85ZM92,52a1.33,1.33,0,1,0-1.33-1.33A1.34,1.34,0,0,0,92,52Z"/><path class="cls-2" d="M99,53.87H96.83V47.49h2.07v1.57a2.14,2.14,0,0,1,3-1.56l-.53,2.05a2.68,2.68,0,0,0-1-.16c-.82,0-1.33.47-1.33,2.38Z"/><path class="cls-2" d="M66.43,36a9.78,9.78,0,1,1,9.78-9.78A9.79,9.79,0,0,1,66.43,36Zm0-17.35A7.58,7.58,0,1,0,74,26.23,7.58,7.58,0,0,0,66.43,18.66Z"/><path class="cls-2" d="M64.39,25.52a1.41,1.41,0,0,0,1.45,1.37,1.36,1.36,0,1,0,0-2.72A1.4,1.4,0,0,0,64.39,25.52Z"/><path class="cls-2" d="M43.4,34.12A17.06,17.06,0,1,1,60.46,17.06,17.08,17.08,0,0,1,43.4,34.12Zm0-31.92A14.86,14.86,0,1,0,58.26,17.06,14.88,14.88,0,0,0,43.4,2.2Z"/><path class="cls-2" d="M60.62,24.36a1.06,1.06,0,0,0,1.09,1,1,1,0,1,0,0-2A1.05,1.05,0,0,0,60.62,24.36Z"/><path class="cls-2" d="M40.88,12.7a2.06,2.06,0,0,0-1.46,1.75,2.06,2.06,0,0,0-2.18-.66,2.42,2.42,0,0,0-1.47,3c.53,1.79,5.34,3.32,5.34,3.32s3.18-3.92,2.64-5.71A2.42,2.42,0,0,0,40.88,12.7Z"/><path class="cls-2" d="M53.78,13.51a2.06,2.06,0,0,0-2.1.88A2.06,2.06,0,0,0,50,12.8a2.42,2.42,0,0,0-2.69,2c-.35,1.83,3.22,5.4,3.22,5.4s4.62-2,5-3.85A2.42,2.42,0,0,0,53.78,13.51Z"/></g></g></g></svg>