<svg xmlns="http://www.w3.org/2000/svg" viewBox="0 0 54.25 54.25"><defs><style>.cls-1{fill:#010101;opacity:0.15;}</style></defs><title>bmw</title><g id="Layer_2" data-name="Layer 2"><g id="Layer_1-2" data-name="Layer 1"><path class="cls-1" d="M46.31,7.95A27.13,27.13,0,1,0,7.95,46.31,27.13,27.13,0,1,0,46.31,7.95ZM27.13,53.32A26.19,26.19,0,0,1,8.61,8.61,26.19,26.19,0,1,1,27.13,53.32Z"/><path class="cls-1" d="M12.12,27.13h15v-15A15,15,0,0,0,12.12,27.13Zm15,0v15a15,15,0,0,0,15-15h-15Z"/><path class="cls-1" d="M27.13,2A25.11,25.11,0,1,0,52.24,27.13,25.11,25.11,0,0,0,27.13,2ZM23.46,3.39h2l1.8,4.71L29,3.39h2V10H29.71V5.38L28,10H26.52L24.78,5.38V10H23.46ZM6.79,14.26,10,10.42c.67-.8,1.6-1.43,2.49-.69a2.33,2.33,0,0,1,.72.91,1.47,1.47,0,0,1,0,1,1.69,1.69,0,0,1,2.12.19c.82.79.7,1.71-.08,2.64l-3.4,4.05Zm20.34,28.9a16,16,0,1,1,16-16A16,16,0,0,1,27.13,43.17ZM42.07,18.65l-1.2-1.49,2.39-3.5v0l-3.92,1.61-1.21-1.48,4.15-5.33,1,1.26-2.6,3.4,4-1.7,1.1,1.35-2.49,3.53,3.86-1.83,1,1.26Z"/><path class="cls-1" d="M10.72,11.37a.79.79,0,0,1,1.06,0,.7.7,0,0,1,.12,1L10,14.68l-1.2-1Zm3.41,2.69-2,2.41-1.27-1.06,2-2.43a.83.83,0,0,1,1.25,1.08Z"/></g></g></svg>