<svg xmlns="http://www.w3.org/2000/svg" viewBox="0 0 150 80"><defs><style>.cls-1{fill:#010101;opacity:0.15;}</style></defs><title>bmw</title><g id="Layer_1" data-name="Layer 1"><path class="cls-1" d="M100.11,16.22A33.63,33.63,0,1,0,52.55,63.78a33.63,33.63,0,1,0,47.56-47.56ZM76.33,72.46A32.46,32.46,0,0,1,53.38,17a32.46,32.46,0,1,1,23,55.42Z"/><path class="cls-1" d="M57.73,40h18.6V21.4A18.6,18.6,0,0,0,57.73,40Zm18.6,0V58.6A18.6,18.6,0,0,0,94.93,40H76.33Z"/><path class="cls-1" d="M76.33,8.87A31.13,31.13,0,1,0,107.46,40,31.13,31.13,0,0,0,76.33,8.87Zm-4.55,1.7h2.46l2.23,5.84,2.23-5.84h2.46v8.19H79.53V13l-2.16,5.72H75.58L73.42,13v5.72H71.78ZM51.12,24.05l4-4.76c.83-1,2-1.77,3.08-.85a2.89,2.89,0,0,1,.9,1.13,1.82,1.82,0,0,1,0,1.22,2.09,2.09,0,0,1,2.63.24c1,1,.86,2.12-.1,3.27l-4.22,5ZM76.33,59.88A19.88,19.88,0,1,1,96.21,40,19.88,19.88,0,0,1,76.33,59.88ZM94.86,29.49l-1.49-1.85,3-4.33,0,0-4.86,2L90,23.44l5.14-6.61,1.27,1.57-3.22,4.21,4.92-2.11,1.36,1.68-3.09,4.37,4.79-2.27,1.27,1.57Z"/><path class="cls-1" d="M56,20.47a1,1,0,0,1,1.31,0,.86.86,0,0,1,.15,1.26l-2.37,2.83-1.49-1.25Zm4.22,3.34-2.5,3-1.57-1.32,2.52-3a1,1,0,0,1,1.55,1.34Z"/></g></svg>