<svg xmlns="http://www.w3.org/2000/svg" viewBox="0 0 150 80"><defs><style>.cls-1{opacity:0.15;}.cls-2{fill:#1d1d1b;}</style></defs><title>comviq</title><g id="Layer_1" data-name="Layer 1"><g class="cls-1"><path class="cls-2" d="M22.14,26.35H20.37c-4.7,0-8.7,3.89-8.7,8.12v13a8.76,8.76,0,0,0,8.7,8.7h1.77a8.76,8.76,0,0,0,8.7-8.7V44.17h-6v3.08a3.51,3.51,0,0,1-3.23,3.46h-.77a3.51,3.51,0,0,1-3.23-3.46v-12a3.25,3.25,0,0,1,3.23-3.5h.77a3.25,3.25,0,0,1,3.23,3.5v3h6V34.47C30.84,30.23,26.83,26.35,22.14,26.35Z"/><path class="cls-2" d="M45,26.35H43.2c-4.7,0-8.7,3.89-8.7,8.12v13a8.76,8.76,0,0,0,8.7,8.7H45a8.76,8.76,0,0,0,8.7-8.7v-13C53.67,30.23,49.66,26.35,45,26.35Zm2.73,20.9a3.51,3.51,0,0,1-3.23,3.46H43.7a3.51,3.51,0,0,1-3.23-3.46v-12a3.25,3.25,0,0,1,3.23-3.5h.77a3.25,3.25,0,0,1,3.23,3.5Z"/><polygon class="cls-2" points="68.32 39.47 62.7 26.81 57.43 26.81 57.43 55.67 63.17 55.67 63.17 40.01 67.94 50.67 68.32 50.67 73.21 40.01 73.21 55.67 78.98 55.67 78.98 26.81 74.06 26.81 68.32 39.47"/><polygon class="cls-2" points="92.93 47.36 88.31 26.81 82.26 26.81 89.19 55.67 96.2 55.67 103.51 26.81 97.47 26.81 92.93 47.36"/><rect class="cls-2" x="106.82" y="26.81" width="5.89" height="28.87"/><path class="cls-2" d="M133.83,54.06l1,1.61h3.46l-10-15.37h-3.46l4.48,6.92a1,1,0,0,1,.16.55,1.13,1.13,0,0,1,0,.13,3.25,3.25,0,0,1-3.22,2.9h-.94a3.29,3.29,0,0,1-3.28-3.28V35a3.33,3.33,0,0,1,3.28-3.32h.94A3.29,3.29,0,0,1,129.58,35v4.48l5.75,8.9c0-.23,0-.47,0-.7V34.84a8.48,8.48,0,0,0-8.49-8.49h-2a8.46,8.46,0,0,0-8.49,8.49v12.8a8.48,8.48,0,0,0,8.49,8.49h2.68A8.45,8.45,0,0,0,133.17,54a.43.43,0,0,1,.66.06Z"/></g></g></svg>