<svg xmlns="http://www.w3.org/2000/svg" viewBox="0 0 126.67 29.79"><defs><style>.cls-1{opacity:0.15;}.cls-2{fill:#1d1d1b;}</style></defs><title>Comviq</title><g id="Layer_2" data-name="Layer 2"><g id="Layer_1-2" data-name="Layer 1"><g class="cls-1"><path class="cls-2" d="M10.47,0H8.7C4,0,0,3.89,0,8.12v13a8.76,8.76,0,0,0,8.7,8.7h1.77a8.76,8.76,0,0,0,8.7-8.7V17.82h-6V20.9A3.51,3.51,0,0,1,10,24.36H9.2A3.51,3.51,0,0,1,6,20.9v-12A3.25,3.25,0,0,1,9.2,5.43H10a3.25,3.25,0,0,1,3.23,3.5v3h6V8.12C19.17,3.89,15.17,0,10.47,0Z"/><path class="cls-2" d="M33.3,0H31.53c-4.7,0-8.7,3.89-8.7,8.12v13a8.76,8.76,0,0,0,8.7,8.7H33.3a8.76,8.76,0,0,0,8.7-8.7v-13C42,3.89,38,0,33.3,0ZM36,20.9a3.51,3.51,0,0,1-3.23,3.46H32A3.51,3.51,0,0,1,28.8,20.9v-12A3.25,3.25,0,0,1,32,5.43h.77A3.25,3.25,0,0,1,36,8.93Z"/><polygon class="cls-2" points="56.66 13.13 51.04 0.46 45.76 0.46 45.76 29.33 51.5 29.33 51.5 13.66 56.27 24.33 56.66 24.33 61.55 13.66 61.55 29.33 67.32 29.33 67.32 0.46 62.39 0.46 56.66 13.13"/><polygon class="cls-2" points="81.26 21.02 76.64 0.46 70.6 0.46 77.53 29.33 84.53 29.33 91.84 0.46 85.8 0.46 81.26 21.02"/><rect class="cls-2" x="95.15" y="0.46" width="5.89" height="28.87"/><path class="cls-2" d="M122.17,27.71l1,1.61h3.46L116.71,14h-3.46l4.48,6.92a1,1,0,0,1,.16.55,1.13,1.13,0,0,1,0,.13,3.25,3.25,0,0,1-3.22,2.9h-.94a3.29,3.29,0,0,1-3.28-3.28V8.62a3.33,3.33,0,0,1,3.28-3.32h.94a3.29,3.29,0,0,1,3.24,3.32V13.1l5.75,8.9c0-.23,0-.47,0-.7V8.49A8.48,8.48,0,0,0,115.21,0h-2a8.46,8.46,0,0,0-8.49,8.49V21.3a8.48,8.48,0,0,0,8.49,8.49h2.68a8.45,8.45,0,0,0,5.62-2.14.43.43,0,0,1,.66.06Z"/></g></g></g></svg>