<svg xmlns="http://www.w3.org/2000/svg" viewBox="0 0 124.46 38.86"><defs><style>.cls-1{fill:#1d1d1b;opacity:0.15;}</style></defs><title>Hygglo</title><g id="Layer_2" data-name="Layer 2"><g id="Layer_1-2" data-name="Layer 1"><path class="cls-1" d="M51.57,4.81a4.84,4.84,0,0,1,3.4.85l3.21-3.21a9,9,0,0,0-13.4,1.34l4,2.27A4.88,4.88,0,0,1,51.57,4.81Z"/><path class="cls-1" d="M11.34,9.14a5.71,5.71,0,0,0-4.82,3.5L5.36,1.6,0,2.18,3,30.39l5.49-.59L7.32,18.52c-.24-2.27.92-4.21,3.23-4.46,2.55-.27,3.81,1.32,4,3.51L15.82,29l5.09-.55L19.58,16.11C19.12,11.81,16.2,8.62,11.34,9.14Z"/><path class="cls-1" d="M31.49,21.77,27.73,10.16,22.45,9.8,28.54,28C27.81,30.2,23,37.6,23,37.6l5.71.38c2.39-3.78,13.31-26.86,13.31-26.86l-5.13-.35Z"/><rect class="cls-1" x="79.92" y="12.69" width="28.38" height="5.45" transform="translate(72.17 108.22) rotate(-86)"/><path class="cls-1" d="M55.39,30.67c-3-.15-4.84-.52-5.79-1-1.37-.86-.33-2,.06-2.29a7.29,7.29,0,0,1,.7-.52,1.33,1.33,0,0,1,.8-.16h.06a12.19,12.19,0,0,0,2.07,0c5.54-.37,9.78-4.37,9.47-8.92A6.94,6.94,0,0,0,62,15.13l1.14-.08-.29-4.26-5.23.35a11.63,11.63,0,0,0-5.47-.93c-5.54.37-9.78,4.37-9.47,8.92a7.94,7.94,0,0,0,4.7,6.45h0c-1.29.76-3.44,2.47-3.31,5.13.18,3.84,4.73,4.13,9.76,4.43s4.62,2,4.7,3.24L64.07,38l-.22-3.28S64,31.09,55.39,30.67Zm-3-16.1c2.64-.18,4.89,1.44,5,3.6s-1.87,4.07-4.51,4.25-4.89-1.44-5-3.6S49.75,14.75,52.38,14.57Z"/><path class="cls-1" d="M76.3,4.7a4.84,4.84,0,0,1,3.31,1.14l3.47-2.92a9,9,0,0,0-13.46.18l3.84,2.6A4.88,4.88,0,0,1,76.3,4.7Z"/><path class="cls-1" d="M76.44,10.15c-5.55-.1-10.11,3.51-10.2,8.07a7.94,7.94,0,0,0,4.13,6.83h0c-1.35.64-3.64,2.17-3.74,4.83C66.49,33.72,71,34.4,76,35.13s4.43,2.36,4.41,3.63l5.52.1L86,35.57s.43-3.62-8.08-4.77c-3-.4-4.78-.93-5.68-1.52-1.29-1-.16-2,.26-2.28a7.29,7.29,0,0,1,.74-.46,1.33,1.33,0,0,1,.81-.09h.06a12.19,12.19,0,0,0,2.06.21c5.55.1,10.11-3.51,10.2-8.07a6.94,6.94,0,0,0-.5-2.71l1.14,0,.08-4.27-5.25-.1A11.63,11.63,0,0,0,76.44,10.15ZM81,18.52c0,2.17-2.21,3.89-4.86,3.85s-4.75-1.85-4.71-4,2.21-3.89,4.86-3.85S81,16.35,81,18.52Z"/><path class="cls-1" d="M109.67,9.38a10.39,10.39,0,1,0,11.74,8.81A10.38,10.38,0,0,0,109.67,9.38ZM112,25.47a5.65,5.65,0,0,1-6.2-5,5.43,5.43,0,1,1,10.72-1.55A5.65,5.65,0,0,1,112,25.47Z"/><path class="cls-1" d="M123.73,6.13A2.37,2.37,0,0,0,122,5.41a2.42,2.42,0,0,0-1.7.67,2.35,2.35,0,0,0-.77,1.8,2.47,2.47,0,1,0,4.93,0A2.37,2.37,0,0,0,123.73,6.13Zm-.31,3.19a2,2,0,0,1-2.87,0,2,2,0,0,1,0-2.88,2,2,0,0,1,2.89,0A2,2,0,0,1,124,7.87,2,2,0,0,1,123.43,9.32Z"/><path class="cls-1" d="M123.11,9.09a.61.61,0,0,1,0-.08V8.76a.74.74,0,0,0-.24-.61.93.93,0,0,0-.39-.16.89.89,0,0,0,.47-.18.6.6,0,0,0,.19-.5.69.69,0,0,0-.36-.65,1.32,1.32,0,0,0-.54-.14h-1.32V9.24h.72v-1h.31a.8.8,0,0,1,.24,0,.33.33,0,0,1,.2.2,1.26,1.26,0,0,1,0,.33,2,2,0,0,0,0,.38h.68l0-.08A.39.39,0,0,1,123.11,9.09Zm-.81-1.4a.66.66,0,0,1-.39.1h-.28V7h.17a1.19,1.19,0,0,1,.41.06.31.31,0,0,1,.22.31A.37.37,0,0,1,122.29,7.68Z"/></g></g></svg>