<svg xmlns="http://www.w3.org/2000/svg" viewBox="0 0 130.77 19.24"><defs><style>.cls-1{opacity:0.15;}.cls-2{fill:#1d1d1b;}</style></defs><title>keyflow</title><g id="Layer_2" data-name="Layer 2"><g id="Layer_1-2" data-name="Layer 1"><g class="cls-1"><path class="cls-2" d="M3.63,9.69v9.18H0V.22H3.63V7.7l7-7.47h4.81L7.25,8.73l9.18,10.14H11.84Z"/><path class="cls-2" d="M23.76,3.4V7.25h5.7v3.18h-5.7v5.18H31.6V18.8H20.13V.22H31.3V3.4Z"/><path class="cls-2" d="M44.92,10.43v8.44H41.37V10.43L35,.22h4.07l4.07,6.59L47.22.22h4.07Z"/><path class="cls-2" d="M58.83,3.4V7.25h5.7v3.18h-5.7V18.8H55.21V.22H66.38V3.4Z"/><path class="cls-2" d="M70.67.22H74.3V15.69h7.84v3.18H70.67Z"/><path class="cls-2" d="M94,0a9.39,9.39,0,0,1,9.69,9.62,9.69,9.69,0,0,1-19.39,0A9.31,9.31,0,0,1,94,0Zm0,15.91a6.18,6.18,0,0,0,6.14-6.36,6.15,6.15,0,1,0-12.28,0A6.13,6.13,0,0,0,94,15.91Z"/><path class="cls-2" d="M105.16.22h3.63l3.85,11.62L116.71.22h2.52l4.07,11.62L127.14.22h3.63l-6.22,18.65H122L117.89,7.1l-4,11.77h-2.52Z"/></g></g></g></svg>