<svg xmlns="http://www.w3.org/2000/svg" viewBox="0 0 115.81 50.87"><defs><style>.cls-1{opacity:0.15;}.cls-2{fill:#010101;}</style></defs><title>mini</title><g id="Layer_2" data-name="Layer 2"><g id="Layer_1-2" data-name="Layer 1"><g class="cls-1"><path class="cls-2" d="M42.75,31.19H40.51V19.68h3.35l2.93,9.18,2.91-9.18H53v11.5H50.72V22.67L48,31.19H45.52L42.75,22.6Zm15.27,0H55.65V19.68H58Zm4.89,0H60.63V19.68h2.81L68,28V19.68h2.28v11.5H67.5l-4.58-8.3Zm12.38,0H72.92V19.68H75.3Zm16.9,4.24H81.29a25.27,25.27,0,0,0,1.38-4.24H96.45l3.63-3.63H83.25c.06-.7.09-1.41.09-2.12s0-1.42-.09-2.12h21.07l3.63-3.63H82.68a25.4,25.4,0,0,0-1.38-4.24h30.89l3.63-3.63H79.36a25.4,25.4,0,0,0-42.92,0H0l3.63,3.63H34.52a25.37,25.37,0,0,0-1.39,4.24H7.87l3.63,3.63H32.57c-.06.7-.09,1.41-.09,2.12s0,1.42.09,2.12H15.74l3.63,3.63H33.14a25,25,0,0,0,1.39,4.24H23.61l3.63,3.63h9.21a25.4,25.4,0,0,0,42.92,0h9.21ZM57.91,47.23a21.8,21.8,0,1,1,21.8-21.8,21.82,21.82,0,0,1-21.8,21.8"/></g></g></g></svg>