<svg xmlns="http://www.w3.org/2000/svg" viewBox="0 0 150 80"><defs><style>.cls-1{opacity:0.15;}.cls-2{fill:#010101;}</style></defs><title>mini</title><g id="Layer_1" data-name="Layer 1"><g class="cls-1"><path class="cls-2" d="M61.36,46.47H59.12V35h3.35l2.93,9.18L68.3,35h3.34v11.5H69.33V38l-2.69,8.52H64.13l-2.77-8.58Zm15.27,0H74.26V35h2.38Zm4.89,0H79.24V35H82l4.59,8.34V35h2.28v11.5H86.11l-4.58-8.3Zm12.38,0H91.53V35h2.38Zm16.9,4.24H99.9a25.27,25.27,0,0,0,1.38-4.24h13.77l3.63-3.63H101.85c.06-.7.09-1.41.09-2.12s0-1.42-.09-2.12h21.07L126.55,35H101.29a25.4,25.4,0,0,0-1.38-4.24h30.89l3.63-3.63H98a25.4,25.4,0,0,0-42.92,0H18.61l3.63,3.63H53.13A25.37,25.37,0,0,0,51.74,35H26.48l3.63,3.63H51.18c-.06.7-.09,1.41-.09,2.12s0,1.42.09,2.12H34.35L38,46.47H51.74a25,25,0,0,0,1.39,4.24H42.22l3.63,3.63h9.21a25.4,25.4,0,0,0,42.92,0h9.21ZM76.51,62.52a21.8,21.8,0,1,1,21.8-21.8,21.82,21.82,0,0,1-21.8,21.8"/></g></g></svg>