<svg xmlns="http://www.w3.org/2000/svg" viewBox="0 0 81.25 50.8"><defs><style>.cls-1{opacity:0.15;}.cls-2{fill:#1d1d1b;}</style></defs><title>nix</title><g id="Layer_2" data-name="Layer 2"><g id="Layer_1-2" data-name="Layer 1"><g id="Layer_1-2-2" data-name="Layer 1-2" class="cls-1"><path class="cls-2" d="M0,20.9H9L21.66,41.66h.09V20.9h6.59v29.9H19.72L6.67,29.51H6.59V50.79H0Z"/><path class="cls-2" d="M37,20.9h6.59v29.9H37Z"/><path class="cls-2" d="M61.24,35.17,51.36,20.9h8.26L66,31.37,72.13,20.9h8L70.44,35,81.25,50.8H73l-7.31-12-7.1,12H50.76Z"/><path class="cls-2" d="M40.36,5.89a4.92,4.92,0,1,1-4.89,5v0a4.9,4.9,0,0,1,4.86-4.93Zm0,7.5a2.59,2.59,0,1,0-2.54-2.63s0,0,0,.06a2.56,2.56,0,0,0,2.54,2.58Z"/><path class="cls-2" d="M34.25,5.69l-2-1.37A9.8,9.8,0,0,1,48,3.71L46.12,5.23a7.36,7.36,0,0,0-11.87.46Z"/></g></g></g></svg>