<svg xmlns="http://www.w3.org/2000/svg" viewBox="0 0 150 80"><defs><style>.cls-1{opacity:0.15;}.cls-2{fill:#1d1d1b;}</style></defs><title>nix</title><g id="Layer_1" data-name="Layer 1"><g id="Layer_1-2" data-name="Layer 1-2" class="cls-1"><path class="cls-2" d="M33.75,32.35h9L55.41,53.11h.09V32.35h6.59v29.9H53.47L40.42,41h-.08V62.25H33.75Z"/><path class="cls-2" d="M70.79,32.35h6.59v29.9H70.79Z"/><path class="cls-2" d="M95,46.63,85.1,32.35h8.26l6.38,10.47,6.14-10.47h8L104.19,46.5,115,62.25h-8.26l-7.31-12-7.1,12H84.51Z"/><path class="cls-2" d="M74.1,17.35a4.92,4.92,0,1,1-4.89,5v0a4.9,4.9,0,0,1,4.86-4.93Zm0,7.5a2.59,2.59,0,1,0-2.54-2.63s0,0,0,.06a2.56,2.56,0,0,0,2.54,2.58Z"/><path class="cls-2" d="M68,17.14l-2-1.37a9.8,9.8,0,0,1,15.8-.61l-1.91,1.52A7.36,7.36,0,0,0,68,17.14Z"/></g></g></svg>