<svg xmlns="http://www.w3.org/2000/svg" viewBox="0 0 150 80"><defs><style>.cls-1{opacity:0.15;}</style></defs><title>sv</title><g id="Layer_1" data-name="Layer 1"><g class="cls-1"><path d="M88,17.12H64.44a5,5,0,0,1-4.75-5.29c0-3.86,2.73-5.35,4.75-5.35H88ZM84.86,9.41H64.44a2.81,2.81,0,0,0-1.38,2.48,2.86,2.86,0,0,0,1.49,2.5H84.86Z"/><path d="M83.33,18.38C86.06,18.55,88,19.67,88,24s-3.3,5.48-4.72,5.48c-.89,0-21.1,0-21.1,0H59.73l0-11.09S81.79,18.4,83.33,18.38Zm0,3.25-20.43,0v4.72H83.34A2.77,2.77,0,0,0,84.69,24,2.6,2.6,0,0,0,83.33,21.63Z"/><path d="M73.41,33.78c.26.31.54.75.85,1.11,1.17-2.12,1.65-2.67,2.48-4.21H88.06c-2.49,7.39-5.08,14.11-7.75,21.2l-2.13,5.64H70.64c-3.79-8.92-7.2-17.4-11-26.83H71.12C72.48,32.51,72.21,32.15,73.41,33.78Zm5-.06-4,5.94c-1.34-1.87-2.94-4-4.5-6H64.23c2.94,7,6.06,14.25,8.6,20.49h3c2.58-6.72,3.47-9,8-20.4Z"/><path d="M42.3,65.47a1,1,0,0,0,1.07.71c.23,0,.69,0,.69-.36s-.45-.43-.72-.48c-1.1-.21-2.41-.51-2.41-1.91A1.82,1.82,0,0,1,41.68,62a3,3,0,0,1,1.68-.44A2.33,2.33,0,0,1,45.73,63l-1.49.45a.9.9,0,0,0-.95-.59c-.24,0-.58.07-.58.38s.43.37.65.42a6.23,6.23,0,0,1,1.66.47,1.63,1.63,0,0,1,.87,1.5c0,1.41-1.4,2-2.62,2a2.46,2.46,0,0,1-2.64-1.79Z"/><path d="M46.05,64.22V63.1h.71l.13-1.39,1.47-.05V63.1h.87v1.11h-.86v1.5c0,.32,0,.56.37.56a1.93,1.93,0,0,0,.49-.08v1.22l-1,.13A1.38,1.38,0,0,1,47,67.11a1.65,1.65,0,0,1-.32-1.25V64.22Z"/><path d="M52.48,67.47v-.72h0a1.3,1.3,0,0,1-1.33.8,1.38,1.38,0,0,1-1-.33,1.43,1.43,0,0,1-.34-1.1v-3h1.69v2.64c0,.28,0,.58.38.58a.46.46,0,0,0,.41-.25,1,1,0,0,0,.09-.46V63.1h1.69v4.37Z"/><path d="M57.62,67.47v-.58h0a1.17,1.17,0,0,1-1.16.67c-1.26,0-1.69-1.17-1.69-2.25S55.17,63,56.49,63a1.47,1.47,0,0,1,1,.44V61.61h1.69v5.87Zm-.09-2.71a.81.81,0,0,0-.1-.51.46.46,0,0,0-.37-.17c-.3,0-.43.2-.48.46a4.36,4.36,0,0,0-.09.81c0,.38,0,1.07.56,1.07a.42.42,0,0,0,.38-.22.89.89,0,0,0,.1-.56Z"/><path d="M61.65,67.47H60V63.1h1.69Zm0-4.79H60V61.52h1.69Z"/><path d="M67,66a2.13,2.13,0,0,1-2.24,1.55A2.57,2.57,0,0,1,63,67a2.18,2.18,0,0,1-.72-1.64A2.26,2.26,0,0,1,64.7,63,2.2,2.2,0,0,1,67,65.4v.23H64.12c0,.47.15.81.66.81a.58.58,0,0,0,.67-.53Zm-1.71-1.24c0-.43-.14-.75-.62-.75s-.62.35-.61.75Z"/><path d="M69.41,67.47H67.72V64.33h-.62V63.25h.62v-.06A1.74,1.74,0,0,1,68,62a1.66,1.66,0,0,1,1.37-.48l1.26.11V62.7l-.77-.07c-.42,0-.54.21-.5.62h1.08v1.08H69.41Z"/><path d="M75.52,65.33A2.4,2.4,0,1,1,73.12,63,2.26,2.26,0,0,1,75.52,65.33Zm-3-.06c0,1.17.28,1.26.59,1.26s.59-.09.59-1.26c0-.42,0-1.18-.59-1.18S72.53,64.85,72.53,65.27Zm.78-3.52a.56.56,0,1,1,.56.56A.57.57,0,0,1,73.3,61.74Zm-1.5,0a.56.56,0,1,1,.56.56A.57.57,0,0,1,71.8,61.74Z"/><path d="M77.48,64c.15-.61.46-1,1.14-1l.23,0v1.53a1.35,1.35,0,0,0-.32,0,.73.73,0,0,0-.69.3,1.57,1.57,0,0,0-.12.75v1.9H76V63.1h1.45V64Z"/><path d="M79.28,61.61H81v2h0A1.14,1.14,0,0,1,82.12,63c1.22,0,1.64,1.17,1.64,2.21,0,1.21-.51,2.33-1.88,2.33a1.61,1.61,0,0,1-1.4-.68,3,3,0,0,0-.23.6h-1ZM81,65.74c0,.34,0,.76.49.76s.56-.78.56-1.2,0-1.2-.58-1.2a.46.46,0,0,0-.37.2.62.62,0,0,0-.1.46Z"/><path d="M86.89,67.47v-.72h0a1.3,1.3,0,0,1-1.33.8,1.38,1.38,0,0,1-1-.33,1.43,1.43,0,0,1-.34-1.1v-3h1.69v2.64c0,.28,0,.58.38.58a.46.46,0,0,0,.41-.25,1,1,0,0,0,.09-.46V63.1h1.69v4.37Z"/><path d="M91,63.1v.62h0a1.25,1.25,0,0,1,1.24-.7,1.43,1.43,0,0,1,1.14.45,2.13,2.13,0,0,1,.27,1.31v2.69H91.94V64.82c0-.27,0-.63-.37-.63s-.51.4-.51.76v2.52H89.36V63.1Z"/><path d="M97,67.47v-.58h0a1.17,1.17,0,0,1-1.16.67c-1.26,0-1.69-1.17-1.69-2.25S94.54,63,95.86,63a1.47,1.47,0,0,1,1,.44V61.61H98.6v5.87Zm-.09-2.71a.81.81,0,0,0-.1-.51.46.46,0,0,0-.37-.17c-.3,0-.43.2-.48.46a4.37,4.37,0,0,0-.09.81c0,.38,0,1.07.56,1.07a.42.42,0,0,0,.38-.22.89.89,0,0,0,.1-.56Z"/><path d="M103.86,66a2.13,2.13,0,0,1-2.24,1.55A2.57,2.57,0,0,1,99.85,67a2.18,2.18,0,0,1-.72-1.64A2.26,2.26,0,0,1,101.51,63a2.2,2.2,0,0,1,2.34,2.38v.23h-2.92c0,.47.15.81.66.81a.58.58,0,0,0,.67-.53Zm-1.71-1.24c0-.43-.14-.75-.62-.75s-.62.35-.61.75Z"/><path d="M103.94,64.22V63.1h.71l.13-1.39,1.47-.05V63.1h.87v1.11h-.86v1.5c0,.32,0,.56.37.56a1.93,1.93,0,0,0,.49-.08v1.22l-1,.13a1.38,1.38,0,0,1-1.22-.44,1.65,1.65,0,0,1-.32-1.25V64.22Z"/><path d="M51.49,75H49.65l-1.89-5.87h1.89l.92,3.17.17.58.16-.56.92-3.2h1.48Z"/><path d="M56.2,75v-.72h0a1.3,1.3,0,0,1-1.33.8,1.38,1.38,0,0,1-1-.33,1.43,1.43,0,0,1-.34-1.1v-3h1.69v2.64c0,.28,0,.58.38.58a.46.46,0,0,0,.41-.25,1,1,0,0,0,.09-.46V70.59H57.8V75Z"/><path d="M61.38,75l-.8-1.39L59.72,75H58.32l1.53-2.32-1.34-2.05h1.92l.44.8,0,.09.09.15.08-.14.05-.09.48-.82H63l-1.27,2L63.31,75Z"/><path d="M67.95,73.49A2.13,2.13,0,0,1,65.7,75a2.57,2.57,0,0,1-1.76-.57,2.18,2.18,0,0,1-.72-1.64A2.26,2.26,0,0,1,65.6,70.5a2.2,2.2,0,0,1,2.34,2.38v.23H65c0,.47.15.81.66.81a.58.58,0,0,0,.67-.53Zm-1.71-1.24c0-.43-.14-.75-.62-.75s-.62.35-.61.75Z"/><path d="M70.1,70.59v.62h0a1.25,1.25,0,0,1,1.24-.7,1.43,1.43,0,0,1,1.14.45,2.13,2.13,0,0,1,.27,1.31V75H71.07V72.31c0-.27,0-.63-.37-.63s-.51.4-.51.76V75H68.5V70.59Z"/><path d="M74.59,73.54c.09.42.56.47.93.47.17,0,.65,0,.65-.27s-.58-.27-.74-.28c-.91-.13-2-.31-2-1.47a1.33,1.33,0,0,1,.68-1.15,2.6,2.6,0,0,1,1.4-.33,2,2,0,0,1,2,1.14l-1.29.25a.77.77,0,0,0-.76-.38c-.14,0-.55,0-.55.23s.15.2.26.22a6.61,6.61,0,0,0,.74.1,3,3,0,0,1,1.19.32,1.27,1.27,0,0,1,.62,1.11c0,1.21-1.27,1.55-2.26,1.55a2.05,2.05,0,0,1-2.2-1.33Z"/><path d="M81.49,72.09,83,75H81.19l-.82-1.75-.43.55V75H78.25V69.09h1.69v3.16l.37-.49,1-1.18H82.8Z"/><path d="M87.66,72.81a2.4,2.4,0,1,1-2.4-2.31A2.26,2.26,0,0,1,87.66,72.81Zm-3-.06c0,1.17.28,1.26.59,1.26s.59-.09.59-1.26c0-.42,0-1.18-.59-1.18S84.67,72.33,84.67,72.75Z"/><path d="M89.95,75H88.25V69.09h1.69Z"/><path d="M93.56,75a2.86,2.86,0,0,1-.06-.61,1.59,1.59,0,0,1-1.43.69,1.36,1.36,0,0,1-1.52-1.32,1.46,1.46,0,0,1,1.15-1.34,7.35,7.35,0,0,1,1.72-.27v0c0-.39-.1-.55-.51-.55s-.62.12-.67.49l-1.56-.15C90.94,70.78,92,70.5,93,70.5a2.88,2.88,0,0,1,1.6.38c.57.4.5,1,.5,1.59V74a2.43,2.43,0,0,0,.14,1Zm-.15-2c-.41,0-1.09.17-1.09.7,0,.28.18.4.44.4.64,0,.65-.54.65-1Z"/><path d="M97.37,70.59v.62h0a1.25,1.25,0,0,1,1.24-.7,1.43,1.43,0,0,1,1.14.45,2.13,2.13,0,0,1,.27,1.31V75H98.35V72.31c0-.27,0-.63-.37-.63s-.51.4-.51.76V75H95.78V70.59Z"/></g></g></svg>