<svg xmlns="http://www.w3.org/2000/svg" viewBox="0 0 55.5 57.23"><defs><style>.cls-1{opacity:0.15;}</style></defs><title>sv</title><g id="Layer_2" data-name="Layer 2"><g id="Layer_1-2" data-name="Layer 1"><g class="cls-1"><path d="M39.56,8.88H19.87a4.14,4.14,0,0,1-4-4.41c0-3.22,2.28-4.46,4-4.46H39.56ZM36.92,2.44h-17a2.34,2.34,0,0,0-1.15,2.07A2.38,2.38,0,0,0,20,6.6h17Z"/><path d="M35.64,9.93c2.28.14,3.94,1.08,3.94,4.65a4.22,4.22,0,0,1-3.94,4.58c-.74,0-17.61,0-17.61,0H15.94l0-9.26S34.35,9.94,35.64,9.93Zm0,2.72-17.06,0v3.94H35.65a2.31,2.31,0,0,0,1.12-2A2.17,2.17,0,0,0,35.64,12.64Z"/><path d="M27.36,22.78c.22.26.45.62.71.93,1-1.77,1.38-2.23,2.07-3.51h9.45c-2.08,6.17-4.24,11.78-6.47,17.7L31.34,42.6H25.05c-3.16-7.44-6-14.53-9.19-22.39h9.59C26.58,21.72,26.36,21.42,27.36,22.78Zm4.15-.05-3.33,5c-1.12-1.56-2.45-3.31-3.76-5H19.7c2.45,5.88,5.06,11.9,7.18,17.1H29.4c2.16-5.61,2.9-7.55,6.66-17Z"/><path d="M1.39,49.24a.82.82,0,0,0,.89.59c.19,0,.58,0,.58-.3s-.38-.36-.6-.4c-.92-.18-2-.43-2-1.59a1.52,1.52,0,0,1,.63-1.23,2.48,2.48,0,0,1,1.41-.37,1.94,1.94,0,0,1,2,1.2L3,47.52A.75.75,0,0,0,2.22,47c-.2,0-.49.06-.49.31s.36.31.54.35a5.2,5.2,0,0,1,1.38.39,1.36,1.36,0,0,1,.73,1.25C4.39,50.51,3.22,51,2.21,51A2.05,2.05,0,0,1,0,49.49Z"/><path d="M4.53,48.19v-.93h.59l.11-1.16,1.23,0v1.21h.73v.93H6.47v1.26c0,.26,0,.47.31.47a1.61,1.61,0,0,0,.41-.06v1L6.35,51a1.15,1.15,0,0,1-1-.37,1.38,1.38,0,0,1-.27-1V48.19Z"/><path d="M9.89,50.91v-.6h0A1.09,1.09,0,0,1,8.77,51,1.16,1.16,0,0,1,8,50.7a1.19,1.19,0,0,1-.29-.92V47.26H9.08v2.21c0,.24,0,.49.31.49a.38.38,0,0,0,.34-.21.79.79,0,0,0,.07-.39v-2.1h1.41v3.65Z"/><path d="M14.18,50.91v-.49h0a1,1,0,0,1-1,.56c-1,0-1.41-1-1.41-1.88s.36-1.91,1.46-1.91a1.22,1.22,0,0,1,.87.37V46h1.41v4.9Zm-.07-2.26a.68.68,0,0,0-.09-.43.38.38,0,0,0-.31-.14c-.25,0-.36.16-.4.39a3.64,3.64,0,0,0-.07.68c0,.32,0,.89.46.89a.35.35,0,0,0,.31-.19.75.75,0,0,0,.09-.46Z"/><path d="M17.55,50.91H16.13V47.26h1.41Zm0-4H16.13v-1h1.41Z"/><path d="M22,49.69A1.78,1.78,0,0,1,20.18,51a2.15,2.15,0,0,1-1.47-.48,1.82,1.82,0,0,1-.6-1.37,1.88,1.88,0,0,1,2-1.94,1.84,1.84,0,0,1,2,2v.19H19.61c0,.39.12.68.55.68a.49.49,0,0,0,.56-.44Zm-1.43-1c0-.36-.11-.63-.51-.63s-.52.29-.51.63Z"/><path d="M24,50.91H22.61V48.28H22.1v-.9h.51v0a1.46,1.46,0,0,1,.26-1,1.39,1.39,0,0,1,1.14-.4l1,.09v.89l-.64-.06c-.35,0-.45.17-.41.51h.9v.9H24Z"/><path d="M29.12,49.12a2,2,0,1,1-2-1.93A1.89,1.89,0,0,1,29.12,49.12Zm-2.5,0c0,1,.24,1,.49,1s.49-.07.49-1c0-.35,0-1-.49-1S26.62,48.72,26.62,49.07Zm.65-2.94a.47.47,0,1,1,.46.47A.47.47,0,0,1,27.27,46.13Zm-1.26,0a.47.47,0,1,1,.46.47A.47.47,0,0,1,26,46.13Z"/><path d="M30.76,48c.12-.51.39-.86.95-.82h.19v1.28a1.13,1.13,0,0,0-.27,0,.61.61,0,0,0-.58.25,1.31,1.31,0,0,0-.1.63v1.58H29.54V47.26h1.21V48Z"/><path d="M32.26,46h1.41V47.7h0a1,1,0,0,1,.94-.51c1,0,1.37,1,1.37,1.85S35.58,51,34.43,51a1.34,1.34,0,0,1-1.17-.57,2.49,2.49,0,0,0-.19.5h-.81Zm1.42,3.45c0,.29,0,.64.41.64s.47-.65.47-1,0-1-.49-1a.38.38,0,0,0-.31.16.52.52,0,0,0-.09.39Z"/><path d="M38.62,50.91v-.6h0A1.09,1.09,0,0,1,37.5,51a1.16,1.16,0,0,1-.81-.28,1.19,1.19,0,0,1-.29-.92V47.26h1.41v2.21c0,.24,0,.49.31.49a.38.38,0,0,0,.34-.21.79.79,0,0,0,.07-.39v-2.1H40v3.65Z"/><path d="M42,47.26v.51h0a1,1,0,0,1,1-.59,1.19,1.19,0,0,1,.95.38,1.78,1.78,0,0,1,.23,1.09v2.25H42.83V48.7c0-.22,0-.53-.31-.53s-.43.34-.43.64v2.11H40.68V47.26Z"/><path d="M47,50.91v-.49h0a1,1,0,0,1-1,.56c-1,0-1.41-1-1.41-1.88s.36-1.91,1.46-1.91a1.22,1.22,0,0,1,.87.37V46h1.41v4.9ZM47,48.65a.68.68,0,0,0-.09-.43.38.38,0,0,0-.31-.14c-.25,0-.36.16-.4.39a3.65,3.65,0,0,0-.07.68c0,.32,0,.89.46.89a.35.35,0,0,0,.31-.19.75.75,0,0,0,.09-.46Z"/><path d="M52.78,49.69A1.78,1.78,0,0,1,50.91,51a2.15,2.15,0,0,1-1.47-.48,1.82,1.82,0,0,1-.6-1.37,1.88,1.88,0,0,1,2-1.94,1.84,1.84,0,0,1,2,2v.19H50.34c0,.39.12.68.55.68a.49.49,0,0,0,.56-.44Zm-1.43-1c0-.36-.11-.63-.51-.63s-.52.29-.51.63Z"/><path d="M52.85,48.19v-.93h.59l.11-1.16,1.23,0v1.21h.73v.93h-.71v1.26c0,.26,0,.47.31.47a1.61,1.61,0,0,0,.41-.06v1l-.84.11a1.15,1.15,0,0,1-1-.37,1.38,1.38,0,0,1-.27-1V48.19Z"/><path d="M9.06,57.16H7.53L6,52.26H7.53l.77,2.65.14.49.14-.46.77-2.67h1.23Z"/><path d="M13,57.16v-.6h0a1.09,1.09,0,0,1-1.11.67,1.16,1.16,0,0,1-.81-.28,1.19,1.19,0,0,1-.29-.92V53.51h1.41v2.21c0,.24,0,.49.31.49a.38.38,0,0,0,.34-.21.79.79,0,0,0,.07-.39v-2.1h1.41v3.65Z"/><path d="M17.32,57.16,16.65,56l-.71,1.16H14.77L16,55.22l-1.12-1.71h1.6l.37.67,0,.08.08.13.06-.11,0-.08.4-.69h1.18l-1.06,1.66,1.3,2Z"/><path d="M22.8,55.94a1.78,1.78,0,0,1-1.87,1.29,2.15,2.15,0,0,1-1.47-.48,1.82,1.82,0,0,1-.6-1.37,1.88,1.88,0,0,1,2-1.94,1.84,1.84,0,0,1,2,2v.19H20.36c0,.39.12.68.55.68a.49.49,0,0,0,.56-.44Zm-1.43-1c0-.36-.11-.63-.51-.63s-.52.29-.51.63Z"/><path d="M24.6,53.51V54h0a1,1,0,0,1,1-.59,1.19,1.19,0,0,1,.95.38,1.78,1.78,0,0,1,.23,1.09v2.25H25.41V54.94c0-.22,0-.53-.31-.53s-.43.34-.43.64v2.11H23.26V53.51Z"/><path d="M28.35,56c.08.35.47.39.78.39.14,0,.54,0,.54-.23s-.49-.22-.61-.24c-.76-.11-1.67-.26-1.67-1.23a1.11,1.11,0,0,1,.56-1,2.17,2.17,0,0,1,1.17-.28,1.63,1.63,0,0,1,1.65.95l-1.08.21a.64.64,0,0,0-.64-.32c-.11,0-.46,0-.46.19s.12.16.21.19a5.52,5.52,0,0,0,.61.09,2.54,2.54,0,0,1,1,.27,1.06,1.06,0,0,1,.51.93c0,1-1.06,1.29-1.88,1.29a1.72,1.72,0,0,1-1.83-1.11Z"/><path d="M34.1,54.76l1.23,2.39H33.85l-.69-1.46-.36.46v1H31.4v-4.9h1.41V54.9l.31-.41.86-1H35.2Z"/><path d="M39.26,55.36a2,2,0,1,1-2-1.93A1.89,1.89,0,0,1,39.26,55.36Zm-2.5,0c0,1,.24,1,.49,1s.49-.07.49-1c0-.35,0-1-.49-1S36.76,55,36.76,55.31Z"/><path d="M41.16,57.16H39.75v-4.9h1.41Z"/><path d="M44.18,57.16a2.39,2.39,0,0,1,0-.51,1.33,1.33,0,0,1-1.19.58,1.13,1.13,0,0,1-1.27-1.1,1.22,1.22,0,0,1,1-1.12,6.13,6.13,0,0,1,1.43-.23v0c0-.33-.09-.46-.43-.46s-.51.1-.56.41l-1.3-.12c.21-.91,1.08-1.14,1.9-1.14a2.4,2.4,0,0,1,1.33.31c.48.34.42.81.42,1.33v1.28a2,2,0,0,0,.11.8Zm-.12-1.71c-.34,0-.91.14-.91.59,0,.24.15.34.37.34.54,0,.54-.45.54-.85Z"/><path d="M47.37,53.51V54h0a1,1,0,0,1,1-.59,1.19,1.19,0,0,1,.95.38,1.78,1.78,0,0,1,.23,1.09v2.25H48.18V54.94c0-.22,0-.53-.31-.53s-.43.34-.43.64v2.11H46V53.51Z"/></g></g></g></svg>